<svg width="70" height="165" fill="none" xmlns="http://www.w3.org/2000/svg"><path stroke="#BFBFBF" d="M.5.5h69v164H.5z"/><path stroke="#000" d="M14.5 24.5h41v59h-41z"/><path stroke="#000" d="M18.5 28.5h33v51h-33zM14.5 123.5h41v17h-41z"/><path stroke="#000" d="M18.5 127.5h33v9h-33zM14.5 90.5h41v17h-41z"/><path stroke="#000" d="M18.5 94.5h33v9h-33zM10.175 14.5h48.65l-2.072 2.153-.334.347.334.347 1.11 1.153H11.72l.617-1.283.151-.313-.24-.25-2.073-2.154zM10.175 117.5h48.65l-2.072-2.153-.334-.347.334-.347 1.11-1.153H11.72l.617 1.283.151.313-.24.251-2.073 2.153zM10.175 150.5h48.65l-2.072-2.153-.334-.347.334-.347 1.11-1.153H11.72l.617 1.283.151.313-.24.251-2.073 2.153z"/></svg>