<svg width="70" height="165" fill="none" xmlns="http://www.w3.org/2000/svg"><path stroke="#BFBFBF" d="M.5.5h69v164H.5z"/><path stroke="#000" d="M44.5 129.5h8v17h-8z"/><path stroke="#000" d="M40.5 125.5h16v25h-16zM44.5 92.5h8v17h-8z"/><path stroke="#000" d="M40.5 88.5h16v25h-16zM44.5 55.5h8v17h-8z"/><path stroke="#000" d="M40.5 51.5h16v25h-16zM44.5 18.5h8v17h-8z"/><path stroke="#000" d="M40.5 14.5h16v25h-16zM17.5 18.5h8v17h-8z"/><path stroke="#000" d="M13.5 14.5h16v25h-16zM17.5 55.5h8v17h-8z"/><path stroke="#000" d="M13.5 51.5h16v25h-16zM17.5 92.5h8v17h-8z"/><path stroke="#000" d="M13.5 88.5h16v25h-16zM17.5 129.5h8v17h-8z"/><path stroke="#000" d="M13.5 125.5h16v25h-16z"/></svg>