<svg width="70" height="165" fill="none" xmlns="http://www.w3.org/2000/svg"><path stroke="#BFBFBF" d="M.5.5h69v164H.5z"/><path stroke="#000" d="M13.5 14.5h16v16h-16z"/><path stroke="#000" d="M17.5 18.5h8v8h-8zM13.5 134.5h16v16h-16z"/><path stroke="#000" d="M17.5 138.5h8v8h-8zM40.5 134.5h16v16h-16z"/><path stroke="#000" d="M44.5 138.5h8v8h-8zM40.5 14.5h16v16h-16z"/><path stroke="#000" d="M44.5 18.5h8v8h-8zM13.5 42.5h16v80h-16zM40.5 42.5h16v80h-16z"/><path stroke="#000" d="M44.5 46.5h8v72h-8zM17.5 46.5h8v72h-8z"/></svg>