<svg width="70" height="165" fill="none" xmlns="http://www.w3.org/2000/svg"><path stroke="#BFBFBF" d="M.5.5h69v164H.5z"/><path stroke="#000" d="M13.5 112.5h17v38h-17z"/><path stroke="#000" d="M17.5 116.5h9v30h-9zM39.5 112.5h17v38h-17z"/><path stroke="#000" d="M43.5 116.5h9v30h-9zM39.5 63.5h17v38h-17zM39.5 14.5h17v38h-17zM13.5 14.5h17v38h-17z"/><path stroke="#000" d="M43.5 67.5h9v30h-9zM43.5 18.5h9v30h-9zM17.5 18.5h9v30h-9zM13.5 63.5h17v38h-17z"/><path stroke="#000" d="M17.5 67.5h9v30h-9z"/></svg>