<svg width="70" height="165" fill="none" xmlns="http://www.w3.org/2000/svg"><path d="M13.5 1v163m43-163v163m-16-150v137m-11-137v137m0-136.5h11m-11 136h11M44.5 128.5h8v18h-8z" stroke="#000"/><path stroke="#000" d="M40.5 124.5h16v26h-16zM44.5 91.5h8v18h-8z"/><path stroke="#000" d="M40.5 87.5h16v26h-16zM44.5 54.5h8v18h-8z"/><path stroke="#000" d="M40.5 50.5h16v26h-16zM44.5 18.5h8v18h-8z"/><path stroke="#000" d="M40.5 14.5h16v26h-16zM17.5 18.5h8v18h-8z"/><path stroke="#000" d="M13.5 14.5h16v26h-16zM17.5 54.5h8v18h-8z"/><path stroke="#000" d="M13.5 50.5h16v26h-16zM17.5 91.5h8v18h-8z"/><path stroke="#000" d="M13.5 87.5h16v26h-16zM17.5 128.5h8v18h-8z"/><path stroke="#000" d="M13.5 124.5h16v26h-16z"/><path stroke="#BFBFBF" d="M.5.5h69v164H.5z"/></svg>