<svg width="70" height="165" fill="none" xmlns="http://www.w3.org/2000/svg"><path stroke="#000" d="M13.5 133.5h17v17h-17z"/><path stroke="#000" d="M17.5 137.5h9v9h-9zM39.5 133.5h17v17h-17z"/><path stroke="#000" d="M43.5 137.5h9v9h-9zM39.5 42.5h17v80h-17z"/><path stroke="#000" d="M43.5 46.5h9v72h-9z"/><path stroke="#000" d="M13.5.5h43v164h-43z"/><path stroke="#000" d="M13.5 14.5h43v136h-43z"/><path stroke="#000" d="M30.5 14.5h9v136h-9zM39.5 14.5h17v17h-17z"/><path stroke="#000" d="M43.5 18.5h9v9h-9zM13.5 14.5h17v17h-17z"/><path stroke="#000" d="M17.5 18.5h9v9h-9zM13.5 42.5h17v80h-17z"/><path stroke="#000" d="M17.5 46.5h9v72h-9z"/><path stroke="#BFBFBF" d="M.5.5h69v164H.5z"/></svg>