<svg width="70" height="165" fill="none" xmlns="http://www.w3.org/2000/svg"><path stroke="#000" d="M13.5 137.5h17v13h-17z"/><path stroke="#000" d="M17.5 141.5h9v5h-9zM39.5 137.5h17v13h-17z"/><path stroke="#000" d="M43.5 141.5h9v5h-9z"/><path stroke="#000" d="M13.5.5h43v164h-43z"/><path d="M56.5 24.5c0 2.896-2.255 5.64-6.175 7.689C46.428 34.225 41.01 35.5 35 35.5c-6.011 0-11.428-1.275-15.325-3.311-3.92-2.05-6.175-4.793-6.175-7.689s2.255-5.64 6.175-7.689C23.571 14.775 28.99 13.5 35 13.5c6.011 0 11.428 1.275 15.325 3.311 3.92 2.05 6.175 4.793 6.175 7.689zM20.823 42.23c3.603 1.364 5.907 1.933 9.677 1.977V126.5h-17V37.52c1.61 1.837 4.242 3.543 7.323 4.71z" stroke="#000"/><path d="M21.49 46.938c1.822.498 3.751.793 5.01.86V122.5h-9V45.228c.317.234.677.445 1.056.636.859.43 1.888.788 2.933 1.074zM48.677 42.23c-3.59 1.36-5.437 1.932-9.177 1.977V126.5h17V37.473c-.688.74-1.569 1.45-2.56 2.107-1.534 1.018-3.37 1.933-5.263 2.65z" stroke="#000"/><path d="M48.51 46.938c-1.822.498-3.751.793-5.01.86V122.5h9V45.228a7.238 7.238 0 01-1.056.636c-.859.43-1.888.788-2.933 1.074zM51.5 24.5c0 .872-.398 1.74-1.197 2.573-.8.836-1.984 1.611-3.484 2.273-3 1.323-7.177 2.154-11.819 2.154-4.642 0-8.82-.831-11.819-2.154-1.5-.662-2.683-1.437-3.484-2.273-.799-.833-1.197-1.701-1.197-2.573 0-.872.398-1.74 1.197-2.573.8-.836 1.984-1.611 3.484-2.273 3-1.323 7.177-2.154 11.819-2.154 4.642 0 8.82.831 11.819 2.154 1.5.662 2.683 1.437 3.484 2.273.799.833 1.197 1.701 1.197 2.573zM14 13.5h42M14 150.5h42M30.5 127v10M39.5 127v10" stroke="#000"/><path stroke="#BFBFBF" d="M.5.5h69v164H.5z"/></svg>