<svg width="70" height="165" fill="none" xmlns="http://www.w3.org/2000/svg"><path stroke="#000" d="M13.5 14.5h43v38h-43z"/><path stroke="#000" d="M15.5 16.5h39v34h-39z"/><path stroke="#000" d="M21.5 22.5h27v22h-27z"/><path stroke="#000" d="M23.5 24.5h23v18h-23zM13.5 63.5h43v38h-43z"/><path stroke="#000" d="M15.5 65.5h39v34h-39z"/><path stroke="#000" d="M21.5 71.5h27v22h-27z"/><path stroke="#000" d="M23.5 73.5h23v18h-23zM13.5 112.5h43v38h-43z"/><path stroke="#000" d="M15.5 114.5h39v34h-39z"/><path stroke="#000" d="M21.5 120.5h27v22h-27z"/><path stroke="#000" d="M23.5 122.5h23v18h-23z"/><path stroke="#000" d="M13.5.5h43v164h-43z"/><path stroke="#BFBFBF" d="M.5.5h69v164H.5z"/></svg>