<svg width="70" height="165" fill="none" xmlns="http://www.w3.org/2000/svg"><path stroke="#000" d="M13.5 107.5h43v43h-43z"/><path stroke="#000" d="M15.5 109.5h39v39h-39z"/><path stroke="#000" d="M21.5 115.5h27v27h-27z"/><path stroke="#000" d="M23.5 117.5h23v23h-23z"/><path stroke="#000" d="M13.5.5h43v164h-43z"/><path stroke="#000" d="M13.5 72.5h43v24h-43z"/><path stroke="#000" d="M15.5 74.5h39v20h-39z"/><path stroke="#000" d="M21.5 80.5h27v8h-27z"/><path stroke="#000" d="M23.5 82.5h23v4h-23zM13.5 14.5h43v47h-43z"/><path stroke="#000" d="M15.5 16.5h39v43h-39z"/><path stroke="#000" d="M21.5 22.5h27v30h-27z"/><path stroke="#000" d="M23.5 24.5h23v26h-23z"/><path stroke="#BFBFBF" d="M.5.5h69v164H.5z"/></svg>