<svg width="70" height="165" fill="none" xmlns="http://www.w3.org/2000/svg"><path stroke="#000" d="M13.5 14.5h43v25h-43zM13.5 125.5h43v25h-43z"/><path stroke="#000" d="M17.5 129.5h35v17h-35z"/><circle cx="35" cy="138" r="4.5" stroke="#000"/><path d="M39.167 140.764l12.333 6.017 1-.625-12.865-6.276a4.953 4.953 0 01-.468.884zM30.256 136.417c.106-.319.244-.625.41-.912L18.5 129.57l-1 .625 12.756 6.222zM30.833 140.764L18.5 146.781l-1-.625 12.865-6.276c.127.312.284.608.468.884zM39.744 136.417a4.987 4.987 0 00-.41-.912L51.5 129.57l1 .625-12.756 6.222z" fill="#000"/><path stroke="#000" d="M17.5 18.5h35v17h-35z"/><circle cx="35" cy="27" r="4.5" stroke="#000"/><path d="M39.167 29.764L51.5 35.781l1-.625-12.865-6.276a4.991 4.991 0 01-.468.884zM30.256 25.417c.106-.32.244-.625.41-.912L18.5 18.57l-1 .625 12.756 6.222zM30.833 29.764L18.5 35.781l-1-.625 12.865-6.276c.127.312.284.608.468.884zM39.744 25.417a4.978 4.978 0 00-.41-.912L51.5 18.57l1 .625-12.756 6.222z" fill="#000"/><path stroke="#000" d="M13.5 50.5h43v64h-43z"/><path stroke="#000" d="M17.5 54.5h35v56h-35z"/><circle cx="35" cy="83" r="4.5" stroke="#000"/><path d="M37.416 87.379L51.82 110.5l.68-.799-14.26-22.892c-.254.216-.53.407-.824.57zM32.135 78.901a4.99 4.99 0 01.874-.489L18.113 54.5l-.703.764L32.135 78.9zM32.574 87.379L18.171 110.5l-.68-.799 14.26-22.892c.249-.309 1.249.191.823.57zM37.855 78.901a4.994 4.994 0 00-.873-.489L51.878 54.5l.702.764L37.855 78.9z" fill="#000"/><path stroke="#000" d="M13.5.5h43v164h-43z"/><path stroke="#BFBFBF" d="M.5.5h69v164H.5z"/></svg>