<svg width="70" height="165" fill="none" xmlns="http://www.w3.org/2000/svg"><path stroke="#000" d="M13.5.5h43v164h-43z"/><path stroke="#000" d="M13.5 69.5h43v25h-43z"/><path stroke="#000" d="M17.5 73.5h35v17h-35zM13.5 14.5h43v44h-43z"/><path stroke="#000" d="M17.5 18.5h35v36h-35z"/><circle cx="35" cy="82" r="4.5" stroke="#000"/><circle cx="35" cy="37" r="4.5" stroke="#000"/><path d="M38.231 40.816l13.27 13.618.972-.434-13.547-13.904c-.207.263-.44.504-.695.72zM31.27 33.671c.222-.25.469-.476.737-.676L18 18.62l-.5.92L31.27 33.67zM31.742 40.816l-13.27 13.618L17.5 54l13.547-13.904c.453-.596.953.404.695.72zM38.703 33.671a5.035 5.035 0 00-.737-.676L51.973 18.62l.5.92-13.77 14.131z" fill="#000"/><path stroke="#000" d="M13.5 104.5h43v44h-43z"/><path stroke="#000" d="M17.5 108.5h35v36h-35z"/><circle cx="35" cy="127" r="4.5" stroke="#000"/><path d="M38.231 130.816l13.27 13.618.972-.434-13.547-13.904c-.207.263-.44.504-.695.72zM31.27 123.671a5.01 5.01 0 01.737-.676L18 108.62l-.5.919 13.77 14.132zM31.742 130.816l-13.27 13.618L17.5 144l13.547-13.904c.453-.596.953.404.695.72zM38.703 123.671a5.01 5.01 0 00-.737-.676l14.007-14.375.5.919-13.77 14.132zM39.167 84.764L51.5 90.781l1-.625-12.865-6.276a4.978 4.978 0 01-.468.884zM30.256 80.417c.106-.32.244-.625.41-.912L18.5 73.57l-1 .625 12.756 6.222zM30.833 84.764L18.5 90.781l-1-.625 12.866-6.276c.126.312.283.608.467.884zM39.744 80.417a4.971 4.971 0 00-.41-.912L51.5 73.57l1 .625-12.756 6.222z" fill="#000"/><path stroke="#BFBFBF" d="M.5.5h69v164H.5z"/></svg>