<svg width="70" height="165" fill="none" xmlns="http://www.w3.org/2000/svg"><path stroke="#000" d="M13.5 49.5h43v66h-43z"/><path stroke="#000" d="M17.5 53.5h35v58h-35z"/><path stroke="#000" d="M13.5.5h43v164h-43z"/><path stroke="#000" d="M13.5 126.5h43v24h-43z"/><path stroke="#000" d="M17.5 130.5h35v16h-35zM13.5 14.5h43v24h-43z"/><path stroke="#000" d="M17.5 18.5h35v16h-35z"/><path d="M19.238 26.5L35 19.547 50.76 26.5 35 33.453 19.238 26.5zM19.239 138.5L35 131.547l15.76 6.953-15.76 6.954L19.24 138.5zM18.583 82.5L35 54.976 51.418 82.5l-16.417 27.524L18.583 82.5z" stroke="#000"/><path stroke="#BFBFBF" d="M.5.5h69v164H.5z"/></svg>