<svg width="72" height="167" viewBox="0 0 72 167" fill="none" xmlns="http://www.w3.org/2000/svg">
<path d="M1 1H71V166H1V1Z" stroke="#BFBFBF"/>
<path fill-rule="evenodd" clip-rule="evenodd" d="M11.5 12H12H58H58.5V12.5V69V70.7576L57.5752 69.2637L57.5751 69.2635L57.5749 69.2632L57.5725 69.2594L57.5606 69.2408C57.5495 69.2236 57.532 69.1968 57.5079 69.161C57.4599 69.0895 57.3858 68.9823 57.2847 68.8444C57.0826 68.5687 56.7728 68.1705 56.3482 67.6907C55.4989 66.7309 54.1913 65.4456 52.3679 64.1585C48.7258 61.5876 43.0127 59 34.75 59C26.4879 59 20.9025 61.5871 17.3887 64.1538C15.6291 65.439 14.3847 66.7224 13.5826 67.6804C13.1816 68.1593 12.8914 68.5565 12.703 68.8315C12.6087 68.969 12.54 69.0758 12.4955 69.147C12.4733 69.1825 12.4572 69.2092 12.447 69.2262L12.4362 69.2446L12.4341 69.2481L12.434 69.2482L12.4339 69.2485L12.4338 69.2486L11.5 70.8828V69V12.5V12ZM12.5 67.4261C12.5972 67.3033 12.7025 67.1738 12.8159 67.0384C13.6622 66.0276 14.9647 64.686 16.7988 63.3462C20.4725 60.6629 26.2621 58 34.75 58C43.2373 58 49.1492 60.6624 52.9446 63.3415C54.84 64.6794 56.2042 66.0191 57.0971 67.028C57.244 67.1941 57.3783 67.3512 57.5 67.498V13H12.5V67.4261ZM35 110C47.1503 110 57 100.15 57 88C57 75.8497 47.1503 66 35 66C22.8497 66 13 75.8497 13 88C13 100.15 22.8497 110 35 110ZM35 111C47.7025 111 58 100.703 58 88C58 75.2975 47.7025 65 35 65C22.2975 65 12 75.2975 12 88C12 100.703 22.2975 111 35 111ZM35 106C44.9411 106 53 97.9411 53 88C53 78.0589 44.9411 70 35 70C25.0589 70 17 78.0589 17 88C17 97.9411 25.0589 106 35 106ZM35 107C45.4934 107 54 98.4934 54 88C54 77.5066 45.4934 69 35 69C24.5066 69 16 77.5066 16 88C16 98.4934 24.5066 107 35 107ZM46 88C46 94.0751 41.0751 99 35 99C28.9249 99 24 94.0751 24 88C24 81.9249 28.9249 77 35 77C41.0751 77 46 81.9249 46 88ZM47 88C47 94.6274 41.6274 100 35 100C28.3726 100 23 94.6274 23 88C23 81.3726 28.3726 76 35 76C41.6274 76 47 81.3726 47 88ZM11.5 150.5V151H12L58 151H58.5V150.5L58.5 110V108.612L57.6155 109.68L57.6154 109.68L57.6152 109.681L57.6149 109.681L57.6139 109.682L57.6041 109.694C57.5947 109.705 57.5793 109.722 57.5578 109.746C57.5148 109.793 57.4475 109.866 57.3547 109.959C57.169 110.146 56.8815 110.418 56.4827 110.747C55.6854 111.404 54.4429 112.289 52.6811 113.177C49.1601 114.953 43.5501 116.748 35.25 116.748C26.9499 116.748 21.2124 114.953 17.5628 113.174C15.7368 112.285 14.4303 111.398 13.5849 110.738C13.1621 110.408 12.8545 110.135 12.6548 109.947C12.555 109.853 12.4821 109.781 12.4353 109.733C12.4119 109.709 12.395 109.691 12.3845 109.679L12.3736 109.668L12.3722 109.666L12.3719 109.666L12.3717 109.666L12.3717 109.666L11.5 108.694L11.5 110L11.5 150.5ZM57.1188 111.518C57.2579 111.404 57.3848 111.295 57.5 111.193L57.5 150L12.5 150L12.5 111.146C12.6392 111.264 12.7957 111.391 12.9698 111.527C13.8666 112.226 15.232 113.151 17.1247 114.073C20.9126 115.919 26.8001 117.748 35.25 117.748C43.6999 117.748 49.4649 115.919 53.1314 114.07C54.9633 113.147 56.2677 112.22 57.1188 111.518ZM17 17.9827H17.5L53.5 17.9827H54V18.4827V58.4127V59.6014L53.151 58.7707L53.1509 58.7706L53.1507 58.7704L53.1503 58.7701L53.1496 58.7694L53.1407 58.761C53.1322 58.7529 53.1182 58.7398 53.0987 58.7222C53.0598 58.6868 52.9989 58.633 52.9158 58.5633C52.7495 58.424 52.4939 58.2212 52.1453 57.9759C51.4481 57.4854 50.3787 56.8249 48.9075 56.1622C45.967 54.8376 41.4119 53.4999 35 53.4999C28.5894 53.4999 24.2914 54.8588 21.6104 56.1973C20.2688 56.8672 19.3284 57.5338 18.7282 58.0269C18.4281 58.2736 18.2128 58.477 18.075 58.6159C18.006 58.6853 17.9564 58.7387 17.9252 58.7733C17.9096 58.7905 17.8986 58.8031 17.8921 58.8107L17.8859 58.818L17.8857 58.8182L17.8855 58.8184L17.8852 58.8188L17.8849 58.8191L17 59.893V58.5V18.4827V17.9827ZM18 57.3318C18.0303 57.3064 18.0614 57.2805 18.0934 57.2543C18.7482 56.7162 19.7514 56.0078 21.1637 55.3026C23.9908 53.8911 28.4428 52.4999 35 52.4999C41.5559 52.4999 46.2508 53.8686 49.3183 55.2504C50.8511 55.9409 51.9753 56.6336 52.7207 57.158C52.8206 57.2283 52.9137 57.2956 53 57.3594V18.9827L18 18.9827V57.3318ZM17 144.5V145H17.5H53.5H54V144.5L54 118V116.607L53.1151 117.681L53.1148 117.681L53.1145 117.682L53.1143 117.682L53.1141 117.682L53.1079 117.689C53.1014 117.697 53.0904 117.709 53.0748 117.727C53.0436 117.761 52.994 117.815 52.925 117.884C52.7872 118.023 52.5719 118.226 52.2718 118.473C51.6716 118.966 50.7312 119.633 49.3896 120.303C46.7086 121.641 42.4106 123 36 123C29.5881 123 25.033 121.662 22.0925 120.338C20.6213 119.675 19.5519 119.015 18.8547 118.524C18.5061 118.279 18.2505 118.076 18.0842 117.937C18.0011 117.867 17.9402 117.813 17.9013 117.778L17.8799 117.758L17.8593 117.739L17.8504 117.731L17.8497 117.73L17.8493 117.73L17.8491 117.729L17.849 117.729L17 116.899V118.087L17 144.5ZM52.9066 119.246C52.9386 119.219 52.9697 119.194 53 119.168L53 144H18L18 119.141C18.0864 119.204 18.1794 119.272 18.2793 119.342C19.0247 119.866 20.1489 120.559 21.6817 121.25C24.7492 122.631 29.4441 124 36 124C42.5572 124 47.0092 122.609 49.8363 121.197C51.2486 120.492 52.2518 119.784 52.9066 119.246ZM23 140V139.5L23 126.059V124.766L23.8688 125.722L23.8689 125.722L23.8693 125.722L23.8696 125.723L23.87 125.723L23.8726 125.726C23.8768 125.73 23.8842 125.738 23.895 125.749C23.9165 125.77 23.9514 125.805 24.0002 125.85C24.0979 125.94 24.2514 126.073 24.4652 126.236C24.8926 126.56 25.5617 127.001 26.5088 127.445C28.4008 128.332 31.4149 129.236 35.8472 129.236C40.2788 129.236 43.111 128.317 44.8191 127.425C45.6742 126.978 46.2521 126.535 46.611 126.212C46.7906 126.05 46.9157 125.918 46.9935 125.83C47.0323 125.786 47.0594 125.753 47.0755 125.732C47.0836 125.722 47.0889 125.715 47.0917 125.711L47.0934 125.709L47.0934 125.709L47.0938 125.708L48 124.43V126V139.5V140H47.5H23.5H23ZM24 127.136L24 139H47V127.195C46.5902 127.53 46.0274 127.922 45.2822 128.311C43.4152 129.287 40.421 130.236 35.8472 130.236C31.2741 130.236 28.1146 129.302 26.0844 128.35C25.1639 127.919 24.4782 127.485 24 127.136ZM23.5 23H23V23.5V50.9411V52.0444L23.8283 51.3182L23.8283 51.3182L23.8288 51.3177L23.8292 51.3174L23.8296 51.3171L23.8319 51.3152C23.8359 51.3118 23.8432 51.3057 23.8539 51.2971C23.8752 51.2799 23.9099 51.2526 23.9586 51.2166C24.0558 51.1446 24.2086 51.0378 24.4207 50.9078C24.8448 50.6477 25.5067 50.2938 26.4369 49.9375C28.2963 49.2252 31.2354 48.5 35.5 48.5C39.7646 48.5 42.7037 49.2252 44.5631 49.9375C45.4933 50.2938 46.1552 50.6477 46.5793 50.9078C46.7914 51.0378 46.9442 51.1446 47.0414 51.2166C47.0901 51.2526 47.1248 51.2799 47.1461 51.2971C47.1568 51.3057 47.1641 51.3118 47.1681 51.3152L47.1704 51.3171L47.1708 51.3174L47.1712 51.3177L47.1717 51.3182L47.1717 51.3182L48 52.0444V50.9411V23.5V23H47.5H23.5ZM26.0792 49.0036C25.1585 49.3563 24.4735 49.7112 24 49.9936V24H47V49.9936C46.5265 49.7112 45.8415 49.3563 44.9208 49.0036C42.9414 48.2454 39.8805 47.5 35.5 47.5C31.1195 47.5 28.0586 48.2454 26.0792 49.0036Z" fill="black"/>
</svg>
