<svg width="70" height="165" fill="none" xmlns="http://www.w3.org/2000/svg"><g clip-path="url(#clip0)"><path fill-rule="evenodd" clip-rule="evenodd" d="M72.409-44l-179.407 88.394-.442-.897L71.967-44.896l.442.897zM-95.065 68.615L84.342-19.78l-.442-.897-179.407 88.393.442.897zm11.932 24.22L96.273 4.441l-.442-.897-179.406 88.393.442.897zm1.326 2.691L97.6 7.132l-.442-.897L-82.25 94.628l.442.897zM98.927 9.823L-80.48 98.216l-.442-.897L98.484 8.926l.443.897zm-178.081 91.084l179.406-88.393-.442-.897-179.406 88.393.442.897zm180.732-85.702l-179.406 88.393-.442-.897 179.406-88.393.442.897zM2.307 67.46l100.597-49.564-.442-.897L.044 67.46h2.263zM0 68.597v-1.115l-76.944 37.91.442.897L0 68.597zm0 2.23v1.114l-75.175 37.039-.442-.897L0 70.826zm9.095-3.367H6.833l96.956-47.77.442.897L9.095 67.46zM0 74.17l-74.294 36.605.442.897L0 75.285V74.17zm15.882-6.71h-2.263l91.493-45.078.442.896L15.882 67.46zM0 77.515l-72.968 35.951.442.897L0 78.629v-1.114zM22.67 67.46h-2.263l86.032-42.387.442.896L22.67 67.46zM0 80.86l-71.64 35.296.441.897L0 81.974V80.86zm29.458-13.4h-2.262l80.57-39.697.442.897-78.75 38.8zM0 84.204l-70.315 34.644.442.897L0 85.318v-1.114zM36.246 67.46h-2.263l75.109-37.006.442.898L36.246 67.46zM0 87.548l-68.989 33.991.442.897L0 88.663v-1.115zM43.034 67.46h-2.263l69.647-34.314.442.897L43.034 67.46zM0 90.892l-67.663 33.338.442.897L0 92.007v-1.115zM49.822 67.46h-2.263l64.184-31.623.442.897L49.822 67.46zM0 94.237l-66.336 32.684.442.897L0 95.352v-1.115zM56.61 67.46h-2.262l58.723-28.932.442.897L56.61 67.46zm-56.365 30l-65.258 32.152.442.897L2.507 97.46H.245zm63.152-30h-2.263l53.26-26.24.442.896-51.44 25.344zm-56.364 30l-70.72 34.843.442.897 72.54-35.74H7.033zM70 67.551v-.09h-2.078l47.798-23.55.442.896L70 67.551zM13.821 97.46l-76.18 37.534.442.897L16.084 97.46h-2.263zM70 70.896V69.78l47.047-23.18.442.897L70 70.896zM20.61 97.46l-81.643 40.225.441.897L22.872 97.46h-2.263zM70 74.24v-1.115l48.373-23.833.442.897L70 74.24zM27.397 97.46l-87.105 42.916.442.897L29.66 97.46h-2.263zM70 77.585V76.47l49.699-24.487.442.897L70 77.585zM34.185 97.46l-92.567 45.607.442.897L36.448 97.46h-2.263zM70 80.929v-1.115l51.025-25.14.442.897L70 80.93zM40.974 97.46l-98.028 48.298.442.897L43.236 97.46h-2.262zM70 84.274v-1.115l52.352-25.794.442.897L70 84.274zM47.76 97.46l-103.492 50.99.442.897L50.022 97.46H47.76zM70 87.617v-1.115l53.675-26.445.442.897L70 87.617zM54.548 97.46l-108.953 53.681.442.897L56.81 97.46h-2.263zM70 90.962v-1.115l55.001-27.1.442.898L70 90.962zm-8.663 6.498l-114.415 56.372.442.897L63.599 97.46h-2.262zM70 94.306v-1.114l56.328-27.753.442.897L70 94.306zm-1.876 3.154H70v-.924l57.654-28.406.442.897L-51.31 157.42l-.442-.897L68.124 97.46zM85.67-17.089L-93.737 71.305l-.442-.898L85.227-17.986l.442.897zM-92.415 73.996L86.992-14.397l-.442-.897L-92.856 73.1l.441.897zM88.318-11.706L-91.088 76.687l-.442-.897L87.876-12.603l.442.897zm-178.08 91.084L89.646-9.015l-.442-.897-179.406 88.393.442.897zM90.972-6.324L-88.435 82.07l-.442-.897L90.529-7.22l.442.897zM-87.109 84.76L92.297-3.633l-.442-.897-179.406 88.393.442.897zM93.623-.942L-85.784 87.451l-.441-.897L93.18-1.839l.442.897zm-178.08 91.084L94.95 1.75l-.442-.897-179.406 88.393.442.897zm213.879-18.424L-49.984 160.11l-.442-.897L128.98 70.821l.442.897zm-178.08 91.084l179.406-88.393-.442-.897L-49.1 161.905l.442.897zM132.075 77.1l-179.406 88.393-.442-.897 179.406-88.393.442.897zm-178.08 91.084l179.407-88.393-.442-.897-179.407 88.393.442.897zm180.729-85.701l-179.406 88.393-.442-.897 179.406-88.394.442.898zm-178.079 91.083l179.407-88.393-.442-.897-179.407 88.393.442.897zm180.732-85.701l-179.406 88.393-.442-.897 179.406-88.393.442.897zm-178.08 91.084l179.406-88.393-.442-.897-179.406 88.393.442.897zm180.732-85.702L-39.377 181.64l-.442-.897L139.587 92.35l.442.897zM-38.05 184.33l179.406-88.393-.442-.898-179.406 88.394.442.897zm180.733-85.702l-179.407 88.393-.442-.897 179.407-88.394.442.898zm-178.084 91.084l179.407-88.393-.442-.897-179.407 88.393.442.897zm180.734-85.702l-179.407 88.393-.442-.897 179.407-88.393.442.897zm-178.08 91.084l179.406-88.393-.442-.897-179.407 88.393.442.897zm180.732-85.702l-179.407 88.393-.442-.897 179.407-88.393.442.897zm-178.08 91.084l179.406-88.393-.442-.897-179.407 88.393.442.897zm180.733-85.702l-179.407 88.393-.442-.897 179.407-88.393.442.897zm-178.08 91.084l179.406-88.393-.442-.897-179.406 88.393.442.897zm-78.23-158.774L73.734-41.308l-.441-.897-179.407 88.393.442.897zM75.06-38.617l-179.406 88.393-.442-.897L74.618-39.514l.442.897zm-178.079 91.084L76.388-35.926l-.442-.897-179.407 88.393.442.897zm180.73-85.701l-179.407 88.393-.442-.897L77.269-34.132l.442.898zM-100.37 57.85L79.037-30.543l-.442-.898-179.406 88.394.442.897zM80.364-27.853L-99.043 60.54l-.441-.897L79.922-28.75l.442.897zm-178.08 91.084L81.69-25.162l-.442-.897L-98.16 62.335l.442.896zM83.015-22.47L-96.391 65.923l-.442-.897L82.574-23.368l.442.898zM-26.12 208.55l179.407-88.393-.442-.897-179.406 88.393.442.897zm180.734-85.702l-179.406 88.393-.442-.897 179.406-88.393.442.897zm-178.08 91.084L155.94 125.54l-.442-.897-179.406 88.393.442.897zm180.732-85.702L-22.14 216.624l-.442-.897 179.406-88.393.442.897zm-178.08 91.084l179.406-88.393-.442-.897-179.407 88.393.442.897z" fill="#000"/><path fill-rule="evenodd" clip-rule="evenodd" d="M-20.815-44l179.407 88.394.442-.897-179.407-88.393-.442.897zM146.66 68.615L-32.748-19.78l.442-.897 179.407 88.393-.442.897zm-11.932 24.22L-44.679 4.441l.442-.897 179.406 88.393-.442.897zm-1.326 2.691L-46.006 7.132l.442-.897 179.407 88.393-.442.897zM70 67.632l62.074 30.584.442-.897L-46.891 8.926l-.442.897L69.651 67.46H70v.172zm-4.875-.172L-48.217 11.617l-.442.897L62.863 67.46h2.262zM70 70.977v-1.115l61.19 30.148-.442.897L70 70.977zM58.337 67.46l-107.88-53.152-.441.897L56.075 67.46h2.262zM70 74.32v-1.114l59.864 29.495-.442.897L70 74.321zm-18.45-6.86L-50.868 17l-.442.897L49.287 67.46h2.263zM70 77.665V76.55l58.538 28.842-.442.897L70 77.665zM44.761 67.46l-96.957-47.77-.442.897L42.498 67.46h2.263zM70 81.01v-1.115l57.211 28.188-.442.897L70 81.01zM37.975 67.46L-53.52 22.382l-.442.896L35.712 67.46h2.263zM70 84.354v-1.115l55.888 27.536-.442.897L70 84.354zM31.187 67.46l-86.032-42.387-.442.896L28.924 67.46h2.263zM70 87.698v-1.115l54.561 26.883-.442.897L70 87.698zM24.398 67.46l-80.57-39.697-.442.897 78.75 38.8h2.262zM70 91.043v-1.115l53.234 26.228-.442.897L70 91.043zM17.61 67.46l-75.108-37.006-.442.898L15.348 67.46h2.262zM70 94.387v-1.115l51.908 25.576-.441.897L70 94.387zM10.822 67.46l-69.646-34.314-.442.897L8.56 67.46h2.262zm58.627 30H70v-.843l50.583 24.922-.442.897L69.449 97.46zm-65.415-30L-60.15 35.837l-.442.897L1.772 67.46h2.262zm58.627 30h2.263l54.333 26.77-.442.897L62.661 97.46zM0 68.817l-61.477-30.29-.442.898L0 69.931v-1.115zM55.873 97.46h2.262l59.794 29.461-.442.897L55.873 97.46zM0 72.16l-62.8-30.94-.442.896L0 73.276V72.16zm49.086 25.3h2.263l65.258 32.152-.442.897L49.086 97.46zM0 75.505L-64.126 43.91l-.442.897L0 76.62v-1.115zM42.298 97.46h2.263l70.719 34.843-.442.897-72.54-35.74zM0 78.85L-65.453 46.6l-.442.897L0 79.965V78.85zm35.51 18.61h2.262l76.181 37.534-.442.897L35.51 97.46zM0 82.194l-66.78-32.902-.441.897L0 83.31v-1.115zM28.722 97.46h2.262l81.643 40.225-.442.897L28.722 97.46zM0 85.538l-68.105-33.555-.442.897L0 86.653v-1.115zM21.934 97.46h2.263l87.104 42.916-.442.897L21.934 97.46zM0 88.883l-69.431-34.209-.442.897L0 89.998v-1.115zm15.146 8.577h2.263l92.566 45.607-.442.897L15.146 97.46zM0 92.228l-70.758-34.863-.442.897L0 93.342v-1.114zm8.358 5.232h2.262l98.028 48.298-.442.897L8.358 97.46zM0 95.571l-72.081-35.514-.442.897L0 96.686V95.57zm1.571 1.889h2.263l103.491 50.99-.442.897L1.571 97.46zM-34.075-17.089L145.33 71.305l.442-.898-179.406-88.393-.442.897zm178.083 91.085L-35.398-14.397l.442-.897L144.45 73.1l-.442.897zM-36.725-11.706l179.407 88.393.442-.897-179.406-88.393-.443.897zm178.08 91.084L-38.051-9.015l.442-.897 179.406 88.393-.442.897zM-39.377-6.324L140.029 82.07l.442-.897L-38.935-7.22l-.442.897zm178.08 91.084L-40.703-3.633l.442-.897 179.406 88.393-.442.897zM-42.029-.942l179.406 88.393.442-.897L-41.587-1.839l-.442.897zM136.05 90.142L-43.356 1.75l.442-.897 179.406 88.393-.442.897zm-30.493 61.896L-73.849 63.645l.442-.897 179.406 88.393-.442.897zM-75.177 66.336l179.407 88.393.442-.897-179.407-88.393-.442.897zm178.081 91.084L-76.502 69.027l.441-.897 179.407 88.393-.442.897zM-77.828 71.718l179.406 88.393.442-.897-179.406-88.393-.442.897zm178.08 91.084L-79.154 74.409l.442-.897 179.406 88.393-.442.897zM-80.481 77.1l179.406 88.393.442-.897-179.406-88.393-.442.897zm178.08 91.084L-81.808 79.791l.442-.897 179.407 88.393-.442.897zm-180.73-85.701l179.407 88.393.442-.897L-82.69 81.585l-.442.898zm178.08 91.083L-84.458 85.173l.442-.897L95.391 172.67l-.442.897zM-85.784 87.865l179.407 88.393.442-.897-179.407-88.393-.442.897zm178.08 91.084L-87.11 90.556l.442-.897L92.74 178.052l-.442.897zM-88.435 93.247L90.972 181.64l.442-.897L-87.993 92.35l-.443.897zm178.08 91.084L-89.763 95.938l.442-.898 179.407 88.394-.442.897zM-91.09 98.629l179.406 88.393.442-.897-179.406-88.394-.442.898zm178.084 91.084L-92.413 101.32l.442-.897 179.406 88.393-.442.897zM-93.74 104.011l179.406 88.393.442-.897-179.406-88.393-.442.897zm178.08 91.084l-179.406-88.393.442-.897 179.406 88.393-.442.897zM-96.39 109.393l179.407 88.393.441-.897-179.406-88.393-.442.897zm178.08 91.084l-179.406-88.393.442-.897L82.132 199.58l-.442.897zm-180.733-85.702l179.407 88.393.442-.897-179.407-88.393-.442.897zm178.08 91.084l-179.406-88.393.442-.897 179.406 88.393-.442.897zm78.23-158.774L-22.141-41.308l.442-.897 179.407 88.393-.442.897zM-23.467-38.617L155.94 49.776l.442-.897-179.407-88.393-.442.897zm178.079 91.084L-24.794-35.926l.442-.897L155.054 51.57l-.442.897zM-26.117-33.234L153.29 55.159l.442-.897-179.407-88.394-.442.898zm178.08 91.084L-27.443-30.543l.442-.898 179.406 88.394-.442.897zM-28.77-27.853L150.636 60.54l.442-.897L-28.328-28.75l-.442.897zm178.08 91.084L-30.096-25.162l.442-.897 179.406 88.394-.442.896zM-31.422-22.47l179.406 88.393.442-.897L-30.98-23.368l-.442.898zM77.713 208.55l-179.406-88.393.442-.897 179.406 88.393-.442.897zm-180.733-85.702l179.406 88.393.442-.897-179.406-88.393-.442.897zm178.08 91.084l-179.406-88.393.442-.897 179.406 88.393-.442.897zm-180.732-85.702l179.406 88.393.442-.897-179.406-88.393-.442.897zm178.08 91.084l-179.406-88.393.442-.897L72.85 218.418l-.442.897z" fill="#000"/><path d="M.5 67.96h69v29H.5v-29zM1 70.97h68M1 93.96h68" stroke="#000"/></g><path stroke="#BFBFBF" d="M.5.5h69v164H.5z"/><defs><clipPath id="clip0"><path fill="#fff" transform="translate(1)" d="M0 0h69v165H0z"/></clipPath></defs></svg>