<svg width="71" height="166" fill="none" xmlns="http://www.w3.org/2000/svg"><path fill-rule="evenodd" clip-rule="evenodd" d="M59 165L37 .5l.991-.132 22 164.5L59 165z" fill="#000"/><path fill-rule="evenodd" clip-rule="evenodd" d="M1 126L70 25l.826.564-69 101L1 126z" fill="#000"/><path fill-rule="evenodd" clip-rule="evenodd" d="M70 57.5L1 14l.532-.847 69.001 43.5-.532.847zM70.166 16.942l-44-16L26.5 0l44 16-.335.942z" fill="#000"/><path fill-rule="evenodd" clip-rule="evenodd" d="M45 165L1 5l.964-.265 44 160L45 165z" fill="#000"/><path fill-rule="evenodd" clip-rule="evenodd" d="M71 118L7 165l-.592-.806 64-47L71 118z" fill="#000"/><path stroke="#BFBFBF" d="M1.5.5h69v164h-69z"/></svg>