<svg width="70" height="165" fill="none" xmlns="http://www.w3.org/2000/svg"><path d="M1 21h5a2 2 0 002-2V1h1v18a3 3 0 01-3 3H1v-1z" fill="#000"/><path d="M1 41h13a2 2 0 002-2V1h1v38a3 3 0 01-3 3H1v-1zM42 13a2 2 0 00-2 2v33a2 2 0 002 2h27v1H42a3 3 0 01-3-3V15a3 3 0 013-3h27v1H42zM26 71a2 2 0 00-2 2v27a2 2 0 002 2h43v1H26a3 3 0 01-3-3V73a3 3 0 013-3h43v1H26zM55 164v-39a2 2 0 00-2-2H37a2 2 0 00-2 2v39h-1v-39a3 3 0 013-3h16a3 3 0 013 3v39h-1z" fill="#000"/><path d="M51 138a1 1 0 00-1-1h-4a1 1 0 00-1 1v26h-1v-26a2 2 0 012-2h4a2 2 0 012 2v26h-1v-26zM1 130h7a1 1 0 001-1v-10a1 1 0 00-1-1H1v-1h7a2 2 0 012 2v10a2 2 0 01-2 2H1v-1zM35 75a2 2 0 00-2 2v12a2 2 0 002 2h34v1H35a3 3 0 01-3-3V77a3 3 0 013-3h34v1H35z" fill="#000"/><path d="M47 79a1 1 0 00-1 1v3a1 1 0 001 1h22v1H47a2 2 0 01-2-2v-3a2 2 0 012-2h22v1H47zM69 22h-5a2 2 0 00-2 2v15a2 2 0 002 2h5v1h-5a3 3 0 01-3-3V24a3 3 0 013-3h5v1zM14 139a2 2 0 002-2v-22a2 2 0 00-2-2H1v-1h13a3 3 0 013 3v22a3 3 0 01-3 3H1v-1h13z" fill="#000"/><path stroke="#BFBFBF" d="M.5.5h69v164H.5z"/></svg>