<svg width="70" height="165" fill="none" xmlns="http://www.w3.org/2000/svg"><path d="M70 40H16a2 2 0 00-2 2v16a2 2 0 002 2h54v1H16a3 3 0 01-3-3V42a3 3 0 013-3h54v1z" fill="#000"/><path d="M70 44H26a2 2 0 00-2 2v8a2 2 0 002 2h44v1H26a3 3 0 01-3-3v-8a3 3 0 013-3h44v1zM1 7h54a2 2 0 012 2v16a2 2 0 01-2 2H1v1h54a3 3 0 003-3V9a3 3 0 00-3-3H1v1z" fill="#000"/><path d="M1 11h44a2 2 0 012 2v8a2 2 0 01-2 2H1v1h44a3 3 0 003-3v-8a3 3 0 00-3-3H1v1zM70 138H16a2 2 0 00-2 2v16a2 2 0 002 2h54v1H16a3 3 0 01-3-3v-16a3 3 0 013-3h54v1z" fill="#000"/><path d="M70 142H26a2 2 0 00-2 2v8a2 2 0 002 2h44v1H26a3 3 0 01-3-3v-8a3 3 0 013-3h44v1zM1 105h54a2 2 0 012 2v16a2 2 0 01-2 2H1v1h54a3 3 0 003-3v-16a3 3 0 00-3-3H1v1z" fill="#000"/><path d="M1 109h44a2 2 0 012 2v8a2 2 0 01-2 2H1v1h44a3 3 0 003-3v-8a3 3 0 00-3-3H1v1z" fill="#000"/><path stroke="#BFBFBF" d="M.5.5h69v164H.5z"/></svg>