<svg width="70" height="165" fill="none" xmlns="http://www.w3.org/2000/svg"><path d="M48 12H0v-1h48a3 3 0 013 3v30a3 3 0 01-3 3H0v-1h48a2 2 0 002-2V14a2 2 0 00-2-2z" fill="#000"/><path d="M34 19H0v-1h34a3 3 0 013 3v11a3 3 0 01-3 3H0v-1h34a2 2 0 002-2V21a2 2 0 00-2-2z" fill="#000"/><path d="M26 23H0v-1h26a3 3 0 013 3v3a3 3 0 01-3 3H0v-1h26a2 2 0 002-2v-3a2 2 0 00-2-2zM22 65h48v-1H22a3 3 0 00-3 3v34a3 3 0 003 3h48v-1H22a2 2 0 01-2-2V67a2 2 0 012-2z" fill="#000"/><path d="M36 70h34v-1H36a3 3 0 00-3 3v19a3 3 0 003 3h34v-1H36a2 2 0 01-2-2V72a2 2 0 012-2z" fill="#000"/><path d="M44 74h26v-1H44a3 3 0 00-3 3v11a3 3 0 003 3h26v-1H44a2 2 0 01-2-2V76a2 2 0 012-2zM48 115H0v-1h48a3 3 0 013 3v34a3 3 0 01-3 3H0v-1h48a2 2 0 002-2v-34a2 2 0 00-2-2z" fill="#000"/><path d="M34 120H0v-1h34a3 3 0 013 3v19a3 3 0 01-3 3H0v-1h34a2 2 0 002-2v-19a2 2 0 00-2-2z" fill="#000"/><path d="M26 124H0v-1h26a3 3 0 013 3v11a3 3 0 01-3 3H0v-1h26a2 2 0 002-2v-11a2 2 0 00-2-2z" fill="#000"/><path stroke="#BFBFBF" d="M.5.5h69v164H.5z"/></svg>