<svg width="70" height="165" fill="none" xmlns="http://www.w3.org/2000/svg"><g clip-path="url(#clip0)" stroke="#000"><path d="M-38.458 3.992l179.406 88.393M-39.785 6.683l179.407 88.393M-41.112 9.374l179.407 88.393M-42.438 12.065l179.407 88.393M-43.764 14.756l179.407 88.393M-45.089 17.448l179.406 88.393M-46.417 20.138l179.407 88.393M-47.739 22.83l179.406 88.393M-49.066 25.521l179.407 88.393M-26.527-20.228L152.88 68.165M-27.854-17.537l179.406 88.393M-29.177-14.845l179.406 88.393M-30.503-12.154l179.406 88.393M-31.83-9.463L147.576 78.93M-33.156-6.772L146.25 81.621M-34.482-4.081l179.406 88.393M-35.808-1.39l179.406 88.393M-37.135 1.301l179.406 88.393M-50.393 28.212l179.406 88.393M-51.719 30.903l179.407 88.393M-53.045 33.594l179.407 88.393M-54.371 36.285l179.407 88.393M-55.698 38.976l179.407 88.393M-57.021 41.668l179.407 88.393M-58.347 44.359l179.406 88.393M-59.674 47.05l179.406 88.393M-61 49.741l179.406 88.393M-62.326 52.432l179.406 88.393M-63.652 55.123l179.406 88.393M-64.979 57.814l179.406 88.393M-66.302 60.505l179.406 88.393M-67.628 63.196l179.406 88.393M-68.956 65.887l179.407 88.393M-70.281 68.578l179.406 88.393M-71.607 71.269l179.406 88.393M-72.933 73.96l179.406 88.394M-74.26 76.651l179.406 88.393M-75.587 79.342l179.407 88.393M-76.91 82.034l179.407 88.393M-78.237 84.725l179.407 88.393M-79.563 87.416l179.407 88.393M-80.889 90.107L98.518 178.5M-82.215 92.798l179.407 88.393M-83.542 95.489l179.407 88.393M-84.868 98.18l179.406 88.393M-86.191 100.872l179.407 88.393M-87.518 103.563l179.406 88.393M-88.844 106.254l179.407 88.393M-90.17 108.945l179.407 88.393M-91.496 111.636l179.407 88.393M-92.823 114.327L86.584 202.72M-94.149 117.018l179.406 88.393M-14.594-44.448l179.407 88.393M-15.92-41.757l179.407 88.393M-17.246-39.066l179.407 88.394M-18.573-36.375l179.406 88.393M-19.896-33.683L159.511 54.71M-21.222-30.992l179.406 88.393M-22.549-28.301l179.406 88.393M-23.875-25.61l179.406 88.393M-25.201-22.919l179.406 88.393M-95.472 119.709l179.406 88.393M-96.799 122.4l179.406 88.393M-98.125 125.091l179.406 88.393M-99.451 127.782l179.406 88.394M-100.777 130.474l179.406 88.393M102.052 3.992L-77.354 92.385M103.379 6.683L-76.027 95.076M104.706 9.374L-74.7 97.767M106.031 12.065l-179.406 88.393M107.357 14.756L-72.049 103.15M108.683 17.447L-70.723 105.84M110.011 20.138l-179.406 88.393M111.333 22.83l-179.406 88.393M112.66 25.521l-179.406 88.393M90.12-20.228L-89.285 68.165M91.448-17.537L-87.958 70.856M92.77-14.845L-86.634 73.548M94.097-12.154L-85.309 76.239M95.424-9.463L-83.982 78.93M96.75-6.772L-82.656 81.62M98.076-4.081L-81.33 84.312M99.402-1.39L-80.004 87.003M100.729 1.3L-78.677 89.695M113.987 28.212l-179.406 88.393M115.313 30.903l-179.406 88.393M116.639 33.594l-179.406 88.393M117.965 36.285l-179.406 88.393M119.292 38.976l-179.406 88.393M120.615 41.668L-58.791 130.06M121.941 44.359l-179.406 88.393M123.268 47.05l-179.406 88.393M124.594 49.74l-179.406 88.394M125.92 52.432l-179.406 88.393M127.246 55.123L-52.16 143.516M128.573 57.814l-179.406 88.393M129.896 60.505L-49.51 148.898M131.222 63.196L-48.184 151.59M132.549 65.887L-46.857 154.28M133.875 68.578l-179.406 88.393M135.201 71.27l-179.406 88.392M136.527 73.96l-179.406 88.393M137.854 76.651l-179.406 88.393M139.181 79.342l-179.406 88.393M140.503 82.034l-179.406 88.393M141.831 84.725l-179.406 88.393M143.157 87.416l-179.406 88.393M144.482 90.107L-34.924 178.5M145.808 92.798l-179.406 88.393M147.135 95.489l-179.406 88.393M148.462 98.18l-179.406 88.393M149.785 100.871l-179.406 88.393M151.112 103.562l-179.406 88.393M152.438 106.253l-179.406 88.393M153.764 108.944l-179.406 88.393M155.09 111.635l-179.406 88.393M156.417 114.326L-22.989 202.72M157.743 117.017L-21.663 205.41M78.188-44.448L-101.22 43.945M79.514-41.757L-99.893 46.636M80.84-39.066L-98.568 49.327M82.167-36.375L-97.24 52.018M83.49-33.683L-95.917 54.71M84.816-30.992L-94.59 57.401M86.143-28.301L-93.263 60.092M87.469-25.61L-91.937 62.783M88.795-22.919L-90.612 65.474M159.066 119.71L-20.34 208.101M160.393 122.4l-179.406 88.393M161.719 125.091l-179.406 88.393M163.045 127.782l-179.406 88.393M164.371 130.473l-179.406 88.393"/></g><path d="M55.5 164.5V.5h3v164h-3zM11.5 164.5V.5h3v164h-3z" stroke="#000"/><path stroke="#BFBFBF" d="M.5.5h69v164H.5z"/><defs><clipPath id="clip0"><path fill="#fff" transform="translate(15)" d="M0 0h40v164H0z"/></clipPath></defs></svg>