<svg width="70" height="165" fill="none" xmlns="http://www.w3.org/2000/svg"><path stroke="#BFBFBF" d="M.5.5h69v164H.5z"/><path stroke="#000" d="M.5.5h51v164H.5zM0 3.5h52M0 39.5h52M0 75.5h52M0 21.5h52M0 57.5h52M0 93.5h52M0 6.5h52M0 42.5h52M0 78.5h52M0 24.5h52M0 60.5h52M0 96.5h52M0 111.5h52M0 9.5h52M0 45.5h52M0 81.5h52M0 27.5h52M0 63.5h52M0 99.5h52M0 114.5h52M0 12.5h52M0 48.5h52M0 84.5h52M0 30.5h52M0 66.5h52M0 102.5h52M0 117.5h52M0 15.5h52M0 51.5h52M0 87.5h52M0 33.5h52M0 69.5h52M0 105.5h52M0 120.5h52M0 123.5h52M0 126.5h52M0 129.5h52M0 132.5h52M0 135.5h52M0 138.5h52M0 141.5h52M0 144.5h52M0 147.5h52M0 150.5h52M0 153.5h52M0 156.5h52M0 159.5h52M0 162.5h52M0 18.5h52M0 54.5h52M0 90.5h52M0 36.5h52M0 72.5h52M0 108.5h52"/></svg>