<svg width="72" height="167" viewBox="0 0 72 167" fill="none" xmlns="http://www.w3.org/2000/svg">
<path d="M1 1H71V166H1V1Z" stroke="#BFBFBF"/>
<path d="M58.5 10.5V7.5L8.5 7.5L8.5 155.5H58.5V152.5M58.5 10.5L11.5 10.5V152.5H58.5M58.5 10.5V13.5M58.5 152.5V149.5M58.5 149.5H14.5V13.5L58.5 13.5M58.5 149.5V146.5M58.5 13.5V16.5M58.5 16.5L17.5 16.5V146.5H58.5M58.5 16.5V19.5M58.5 146.5V143.5M58.5 19.5L20.5 19.5V143.5H58.5M58.5 19.5V22.5M58.5 143.5V140.5M58.5 140.5H23.5V22.5L58.5 22.5M58.5 140.5V137.5M58.5 22.5V25.5M58.5 25.5L26.5 25.5V137.5H58.5M58.5 25.5V28.5M58.5 137.5V134.5M58.5 134.5H29.5V28.5L58.5 28.5M58.5 134.5V131.5M58.5 28.5V31.5M58.5 31.5L32.5 31.5769V131.5H58.5M58.5 31.5V34.5385M58.5 131.5V128.5M58.5 128.5H35.5V34.5L58.5 34.5385M58.5 128.5V125.5M58.5 34.5385V37.5M58.5 37.5L38.5 37.5V125.5H58.5M58.5 37.5V40.5M58.5 125.5V122.5M58.5 122.5H41.5V40.5L58.5 40.5M58.5 122.5V119.5M58.5 40.5V43.5M58.5 43.5V46.5L47.5 46.5V116.5H58.5V119.5M58.5 43.5L44.5 43.5V119.5H58.5" stroke="black"/>
</svg>
