<svg width="89" height="89" viewBox="0 0 89 89" fill="none" xmlns="http://www.w3.org/2000/svg">
<path d="M7.41699 54.1417L7.41699 75.65C7.41699 76.8788 8.41316 77.875 9.64199 77.875H23.7337C24.9625 77.875 25.9587 76.8788 25.9587 75.65V54.1417C25.9587 52.9128 24.9625 51.9167 23.7337 51.9167H9.64199C8.41316 51.9167 7.41699 52.9128 7.41699 54.1417Z" stroke="white" stroke-width="3"/>
<path d="M63.042 33.7452V55.2535C63.042 56.4823 64.0382 57.4785 65.267 57.4785H79.3587C80.5875 57.4785 81.5837 56.4823 81.5837 55.2535V33.7452C81.5837 32.5163 80.5875 31.5202 79.3587 31.5202H65.267C64.0382 31.5202 63.042 32.5163 63.042 33.7452Z" stroke="white" stroke-width="3"/>
<path d="M7.41699 13.3507L7.41699 34.859C7.41699 36.0878 8.41316 37.084 9.64199 37.084H23.7337C24.9625 37.084 25.9587 36.0878 25.9587 34.859V13.3507C25.9587 12.1218 24.9625 11.1257 23.7337 11.1257H9.64199C8.41316 11.1257 7.41699 12.1218 7.41699 13.3507Z" stroke="white" stroke-width="3"/>
<path d="M25.958 64.8952H38.9372C43.0334 64.8952 46.3538 61.5747 46.3538 57.4785V31.5202C46.3538 27.4241 43.0334 24.1035 38.9372 24.1035H25.958" stroke="white" stroke-width="3"/>
<path d="M46.3545 44.5H63.042" stroke="white" stroke-width="3"/>
</svg>
