<svg width="89" height="89" viewBox="0 0 89 89" fill="none" xmlns="http://www.w3.org/2000/svg">
<path d="M44.4989 55.623C50.6433 55.623 55.6239 50.6423 55.6239 44.498C55.6239 38.354 50.6433 33.373 44.4989 33.373C38.3549 33.373 33.374 38.354 33.374 44.498C33.374 50.6423 38.3549 55.623 44.4989 55.623Z" stroke="white" stroke-width="3" stroke-miterlimit="1.5" stroke-linecap="round" stroke-linejoin="round"/>
<path d="M48.208 33.3757C48.208 33.3757 51.9163 25.959 51.9163 18.5423C51.9163 11.1257 44.4997 3.70898 44.4997 3.70898C44.4997 3.70898 37.083 11.1257 37.083 18.5423C37.083 25.959 40.7913 33.3757 40.7913 33.3757" stroke="white" stroke-width="3" stroke-miterlimit="1.5" stroke-linecap="round" stroke-linejoin="round"/>
<path d="M33.3747 40.7923C33.3747 40.7923 25.958 37.084 18.5413 37.084C11.1247 37.084 3.70801 44.5007 3.70801 44.5007C3.70801 44.5007 11.1247 51.9173 18.5413 51.9173C25.958 51.9173 33.3747 48.209 33.3747 48.209" stroke="white" stroke-width="3" stroke-miterlimit="1.5" stroke-linecap="round" stroke-linejoin="round"/>
<path d="M48.208 55.625C48.208 55.625 51.9163 63.0417 51.9163 70.4583C51.9163 77.875 44.4997 85.2917 44.4997 85.2917C44.4997 85.2917 37.083 77.875 37.083 70.4583C37.083 63.0417 40.7913 55.625 40.7913 55.625" stroke="white" stroke-width="3" stroke-miterlimit="1.5" stroke-linecap="round" stroke-linejoin="round"/>
<path d="M55.625 40.7923C55.625 40.7923 63.0417 37.084 70.4583 37.084C77.875 37.084 85.2917 44.5007 85.2917 44.5007C85.2917 44.5007 77.875 51.9173 70.4583 51.9173C63.0417 51.9173 55.625 48.209 55.625 48.209" stroke="white" stroke-width="3" stroke-miterlimit="1.5" stroke-linecap="round" stroke-linejoin="round"/>
<path d="M39.256 34.0115C39.256 34.0115 36.6337 26.145 31.3894 20.9006C26.145 15.6562 15.6562 15.6562 15.6562 15.6562C15.6562 15.6562 15.6563 26.145 20.9006 31.3894C26.145 36.6337 34.0116 39.256 34.0116 39.256" stroke="white" stroke-width="3" stroke-miterlimit="1.5" stroke-linecap="round" stroke-linejoin="round"/>
<path d="M34.0106 49.7441C34.0106 49.7441 26.144 52.3663 20.8997 57.6106C15.6553 62.855 15.6553 73.344 15.6553 73.344C15.6553 73.344 26.144 73.344 31.3884 68.0996C36.6328 62.855 39.2548 54.9885 39.2548 54.9885" stroke="white" stroke-width="3" stroke-miterlimit="1.5" stroke-linecap="round" stroke-linejoin="round"/>
<path d="M54.9894 49.7441C54.9894 49.7441 62.8559 52.3663 68.1003 57.6106C73.3446 62.855 73.3446 73.344 73.3446 73.344C73.3446 73.344 62.8559 73.344 57.6116 68.0996C52.3673 62.855 49.7451 54.9885 49.7451 54.9885" stroke="white" stroke-width="3" stroke-miterlimit="1.5" stroke-linecap="round" stroke-linejoin="round"/>
<path d="M49.7441 34.0115C49.7441 34.0115 52.3663 26.145 57.6106 20.9006C62.855 15.6562 73.344 15.6562 73.344 15.6562C73.344 15.6562 73.344 26.145 68.0996 31.3894C62.855 36.6337 54.9885 39.256 54.9885 39.256" stroke="white" stroke-width="3" stroke-miterlimit="1.5" stroke-linecap="round" stroke-linejoin="round"/>
</svg>
