<svg width="89" height="89" viewBox="0 0 89 89" fill="none" xmlns="http://www.w3.org/2000/svg">
<path d="M61.1875 18.541H75.65C76.8789 18.541 77.875 19.5372 77.875 20.766V75.6493C77.875 76.8783 76.8789 77.8744 75.65 77.8744H13.35C12.1212 77.8744 11.125 76.8783 11.125 75.6493V20.766C11.125 19.5372 12.1212 18.541 13.35 18.541H27.8125" stroke="white" stroke-width="3" stroke-linecap="round" stroke-linejoin="round"/>
<path d="M60.3657 23.4686L61.1263 18.9068C61.1663 18.6646 61.1663 18.4174 61.1263 18.1752L60.3657 13.6134C59.7697 10.0372 56.6755 7.41602 53.0499 7.41602H35.9491C32.3236 7.41602 29.2294 10.0372 28.6334 13.6134L27.873 18.1752C27.8327 18.4174 27.8327 18.6646 27.873 18.9068L28.6334 23.4686C29.2294 27.0449 32.3236 29.666 35.9491 29.666H53.0499C56.6755 29.666 59.7697 27.0449 60.3657 23.4686Z" stroke="white" stroke-width="3" stroke-linecap="round" stroke-linejoin="round"/>
<path d="M44.5003 29.6673L40.792 20.3965" stroke="white" stroke-width="3" stroke-linecap="round" stroke-linejoin="round"/>
<path d="M25.958 63.041H63.0413" stroke="white" stroke-width="3" stroke-linecap="round" stroke-linejoin="round"/>
</svg>
