<svg width="244" height="487" viewBox="0 0 244 487" fill="none" xmlns="http://www.w3.org/2000/svg">
<path d="M223.808 477.687V55.1178L17.4226 17.3204V397.46L13.1357 401.135L1.49707 396.5L1.49973 355.816V352.754V3.67452L7 1L242.793 41.6445V446.454V483.812L237.894 485.5L223.808 477.687Z" fill="#2B2B2B"/>
<path d="M13.1357 401.135V16.5353L17.4226 17.3204M13.1357 401.135L1.49707 396.5L1.49973 355.816V352.754V3.67452M13.1357 401.135L17.4226 397.46V17.3204M1.49973 3.67452L237.894 45.3191M1.49973 3.67452L7 1L242.793 41.6445M237.894 45.3191V448.291V485.5M237.894 45.3191L242.793 41.6445M237.894 485.5L223.808 477.687V55.1178L17.4226 17.3204M237.894 485.5L242.793 483.812V446.454V41.6445" stroke="#ABABAB" stroke-width="1.22484"/>
</svg>
