<svg width="70" height="165" fill="none" xmlns="http://www.w3.org/2000/svg"><path fill="#FAFAFA" stroke="#000" d="M.5.5h69v164H.5z"/><path stroke="#000" d="M3.5 3.5h13v13h-13zM53.5 3.5h13v13h-13zM53.5 19.5h13v91h-13zM53.5 113.5h13v48h-13zM3.5 113.5h13v48h-13zM19.5 113.5h31v48h-31z"/><path d="M16 20H4v24H3V19h14v92H3V98h1v12h12V20z" fill="#000"/><path stroke="#000" d="M19.5 3.5h31v13h-31zM19.5 19.5h31v91h-31z"/><path fill="#AAE1FC" stroke="#000" d="M21.5 21.5h27v87h-27z"/><circle cx="35" cy="138" r="2.5" stroke="#000"/><circle cx="35" cy="10" r="2.5" stroke="#000"/><path d="M36.274 140.717L49.5 161.5h1.185l-13.589-21.354a3.022 3.022 0 01-.822.571zM33.079 135.696c.256-.214.547-.385.864-.505L20.14 113.5l-.867.5 13.806 21.696zM33.684 140.717L20.458 161.5h-1.185l13.588-21.354c.14-.646 1.14.354.823.571zM36.879 135.696a2.998 2.998 0 00-.865-.505L49.818 113.5l.867.5-13.806 21.696zM37.564 11.559L50 16.696l.5-.876-12.566-5.19a2.982 2.982 0 01-.37.929zM32.083 9.295c.08-.33.215-.64.394-.919L20.5 3.429l-1 .669 12.583 5.197zM32.436 11.559L20 16.696l-.5-.876 12.566-5.19c.072.333.198.646.37.929zM37.917 9.295a2.986 2.986 0 00-.394-.919L49.5 3.429l1 .669-12.583 5.197z" fill="#000"/></svg>