<svg width="70" height="165" fill="none" xmlns="http://www.w3.org/2000/svg"><path stroke="#000" d="M.5.5h69v164H.5z"/><path stroke="#000" d="M13.5 110.5h43v40h-43z"/><path stroke="#000" d="M13.5.5h43v164h-43z"/><path fill="#AAE1FC" stroke="#000" d="M17.5 114.5h34v32h-34z"/><path d="M56.5 99.5H13.564V25.129C17.743 17.596 25.777 12.5 35 12.5s17.257 5.096 21.437 12.629c0 11.47.015 23.533.03 35.84l.002.782c.015 12.46.031 25.163.032 37.749z" stroke="#000"/><path d="M17.5 95.5V26.143C21.123 20.353 27.663 16.5 35 16.5c7.336 0 13.876 3.853 17.5 9.643V95.5h-35z" fill="#AAE1FC" stroke="#000"/></svg>