<svg width="70" height="165" fill="none" xmlns="http://www.w3.org/2000/svg"><path stroke="#000" d="M.5.5h69v164H.5z"/><path stroke="#000" d="M13.5 14.5h43v136h-43z"/><path stroke="#000" d="M15.5 16.5h39v132h-39z"/><path stroke="#000" d="M13.5.5h43v164h-43z"/><path d="M45.5 82.5c0 3.037 0 15.887-1.372 27.972-.686 6.047-1.712 11.869-3.24 16.168-.764 2.151-1.642 3.886-2.64 5.075-.993 1.182-2.068 1.785-3.248 1.785-1.18 0-2.255-.603-3.248-1.785-.998-1.189-1.876-2.924-2.64-5.075-1.528-4.299-2.554-10.121-3.24-16.168C24.5 98.387 24.5 85.537 24.5 82.5c0-3.037 0-15.887 1.372-27.972.686-6.047 1.712-11.87 3.24-16.168.764-2.151 1.642-3.886 2.64-5.075C32.745 32.103 33.82 31.5 35 31.5c1.18 0 2.255.603 3.248 1.785.998 1.189 1.876 2.924 2.64 5.075 1.528 4.299 2.554 10.12 3.24 16.168C45.5 66.613 45.5 79.463 45.5 82.5z" fill="#AAE1FC" stroke="#000"/><path d="M23.5 24.5h23v16.124c-.262-.622-.53-1.306-.813-2.035l-.005-.011c-.613-1.573-1.296-3.321-2.16-4.945C41.802 30.392 39.283 27.5 35 27.5c-4.283 0-6.8 2.892-8.523 6.133-.863 1.624-1.546 3.372-2.16 4.945l-.004.011c-.284.729-.55 1.413-.813 2.035V24.5zM23.5 140.5h23v-15.838a53.674 53.674 0 00-.522 1.718l-.073.25c-.436 1.502-.918 3.162-1.618 4.708-.742 1.638-1.743 3.185-3.235 4.321-1.5 1.143-3.456 1.841-6.052 1.841-2.596 0-4.553-.698-6.052-1.841-1.492-1.136-2.493-2.683-3.235-4.321-.7-1.546-1.182-3.206-1.618-4.708l-.073-.25a53.674 53.674 0 00-.522-1.718V140.5z" stroke="#000"/></svg>