<svg width="19" height="19" viewBox="0 0 19 19" fill="none" xmlns="http://www.w3.org/2000/svg">
<path d="M18.2237 15.0387C18.2237 15.3537 18.1537 15.6775 18.005 15.9925C17.8562 16.3075 17.6638 16.605 17.41 16.885C16.9813 17.3575 16.5087 17.6988 15.975 17.9175C15.45 18.1363 14.8813 18.25 14.2688 18.25C13.3763 18.25 12.4225 18.04 11.4162 17.6113C10.41 17.1825 9.40375 16.605 8.40625 15.8788C7.38959 15.1351 6.43023 14.3161 5.53625 13.4287C4.65142 12.538 3.83534 11.5815 3.095 10.5675C2.3775 9.57 1.8 8.5725 1.38 7.58375C0.96 6.58625 0.75 5.6325 0.75 4.7225C0.75 4.1275 0.855 3.55875 1.065 3.03375C1.275 2.5 1.6075 2.01 2.07125 1.5725C2.63125 1.02125 3.24375 0.75 3.89125 0.75C4.13625 0.75 4.38125 0.8025 4.6 0.9075C4.8275 1.0125 5.02875 1.17 5.18625 1.3975L7.21625 4.25875C7.37375 4.4775 7.4875 4.67875 7.56625 4.87125C7.645 5.055 7.68875 5.23875 7.68875 5.405C7.68875 5.615 7.6275 5.825 7.505 6.02625C7.39125 6.2275 7.225 6.4375 7.015 6.6475L6.35 7.33875C6.25375 7.435 6.21 7.54875 6.21 7.68875C6.21 7.75875 6.21875 7.82 6.23625 7.89C6.2625 7.96 6.28875 8.0125 6.30625 8.065C6.46375 8.35375 6.735 8.73 7.12 9.185C7.51375 9.64 7.93375 10.1038 8.38875 10.5675C8.86125 11.0313 9.31625 11.46 9.78 11.8537C10.235 12.2387 10.6112 12.5012 10.9087 12.6587C10.9525 12.6762 11.005 12.7025 11.0662 12.7287C11.1362 12.755 11.2062 12.7637 11.285 12.7637C11.4337 12.7637 11.5475 12.7113 11.6437 12.615L12.3088 11.9588C12.5275 11.74 12.7375 11.5737 12.9388 11.4688C13.14 11.3462 13.3412 11.285 13.56 11.285C13.7262 11.285 13.9013 11.32 14.0938 11.3988C14.2862 11.4775 14.4875 11.5913 14.7063 11.74L17.6025 13.7962C17.83 13.9537 17.9875 14.1375 18.0837 14.3562C18.1712 14.575 18.2237 14.7937 18.2237 15.0387Z" stroke="white" stroke-width="1.3125" stroke-miterlimit="10"/>
</svg>
