<svg width="70" height="89" viewBox="0 0 70 89" fill="none" xmlns="http://www.w3.org/2000/svg">
<g id="share-android">
<path id="Vector" d="M57 81.584C63.0753 81.584 68 76.6033 68 70.459C68 64.3146 63.0753 59.334 57 59.334C50.9247 59.334 46 64.3146 46 70.459C46 76.6033 50.9247 81.584 57 81.584Z" stroke="white" stroke-width="3" stroke-linecap="round" stroke-linejoin="round"/>
<path id="Vector_2" d="M57 29.666C63.0753 29.666 68 24.6852 68 18.541C68 12.3969 63.0753 7.41602 57 7.41602C50.9247 7.41602 46 12.3969 46 18.541C46 24.6852 50.9247 29.666 57 29.666Z" stroke="white" stroke-width="3" stroke-linecap="round" stroke-linejoin="round"/>
<path id="Vector_3" d="M13 55.625C19.0751 55.625 24 50.6443 24 44.5C24 38.3557 19.0751 33.375 13 33.375C6.92488 33.375 2 38.3557 2 44.5C2 50.6443 6.92488 55.625 13 55.625Z" stroke="white" stroke-width="3" stroke-linecap="round" stroke-linejoin="round"/>
<path id="Vector_4" d="M47.8327 24.1035L22.166 38.9368" stroke="white" stroke-width="3"/>
<path id="Vector_5" d="M22.166 50.0625L47.8327 64.8958" stroke="white" stroke-width="3"/>
</g>
</svg>
