<svg width="89" height="89" viewBox="0 0 89 89" fill="none" xmlns="http://www.w3.org/2000/svg">
<g id="color-filter">
<path id="Vector" d="M44.5004 53.7705C56.7887 53.7705 66.7504 43.8088 66.7504 31.5205C66.7504 19.2322 56.7887 9.27051 44.5004 9.27051C32.2121 9.27051 22.2504 19.2322 22.2504 31.5205C22.2504 43.8088 32.2121 53.7705 44.5004 53.7705Z" stroke="white" stroke-width="3" stroke-linecap="round" stroke-linejoin="round"/>
<path id="Vector_2" d="M59.3335 79.7285C71.6218 79.7285 81.5835 69.7668 81.5835 57.4785C81.5835 45.1902 71.6218 35.2285 59.3335 35.2285C47.0452 35.2285 37.0835 45.1902 37.0835 57.4785C37.0835 69.7668 47.0452 79.7285 59.3335 79.7285Z" stroke="white" stroke-width="3" stroke-linecap="round" stroke-linejoin="round"/>
<path id="Vector_3" d="M29.667 79.7285C41.9553 79.7285 51.917 69.7668 51.917 57.4785C51.917 45.1902 41.9553 35.2285 29.667 35.2285C17.3786 35.2285 7.41696 45.1902 7.41696 57.4785C7.41696 69.7668 17.3786 79.7285 29.667 79.7285Z" stroke="white" stroke-width="3" stroke-linecap="round" stroke-linejoin="round"/>
</g>
</svg>
