<svg width="89" height="89" viewBox="0 0 89 89" fill="none" xmlns="http://www.w3.org/2000/svg">
<g id="keyframes">
<path id="Vector" d="M51.3514 49.3835L35.2481 67.7872C32.2932 71.1644 27.0398 71.1644 24.0849 67.7872L7.98159 49.3835C5.53487 46.5874 5.53487 42.4118 7.98159 39.6158L24.0849 21.212C27.0398 17.8349 32.2932 17.8349 35.2481 21.2119L51.3514 39.6158C53.7981 42.4118 53.7981 46.5874 51.3514 49.3835Z" stroke="white" stroke-width="3" stroke-linecap="round" stroke-linejoin="round"/>
<path id="Vector_2" d="M48.2083 70.4579L66.3213 49.3264C68.7017 46.5488 68.7017 42.4504 66.3213 39.6728L48.2083 18.5413" stroke="white" stroke-width="3" stroke-linecap="round" stroke-linejoin="round"/>
<path id="Vector_3" d="M63.0417 70.4579L81.1547 49.3264C83.5351 46.5488 83.5351 42.4504 81.1547 39.6728L63.0417 18.5413" stroke="white" stroke-width="3" stroke-linecap="round" stroke-linejoin="round"/>
</g>
</svg>
