<svg width="70" height="165" fill="none" xmlns="http://www.w3.org/2000/svg"><path stroke="#000" d="M13.5 49.5h43v66h-43z"/><path stroke="#000" d="M15.5 51.5h39v62h-39z"/><path stroke="#000" d="M21.5 57.5h27v50h-27z"/><path stroke="#000" d="M23.5 59.5h23v46h-23z"/><path stroke="#000" d="M13.5.5h43v164h-43z"/><path stroke="#000" d="M13.5 126.5h43v24h-43z"/><path stroke="#000" d="M15.5 128.5h39v20h-39z"/><path stroke="#000" d="M21.5 134.5h27v8h-27z"/><path stroke="#000" d="M23.5 136.5h23v4h-23zM13.5 14.5h43v24h-43z"/><path stroke="#000" d="M15.5 16.5h39v20h-39z"/><path stroke="#000" d="M21.5 22.5h27v8h-27z"/><path stroke="#000" d="M23.5 24.5h23v4h-23z"/><path stroke="#BFBFBF" d="M.5.5h69v164H.5z"/></svg>