<svg width="70" height="165" fill="none" xmlns="http://www.w3.org/2000/svg"><path stroke="#000" d="M13.5 116.5h16v34h-16z"/><path stroke="#000" d="M17.5 120.5h8v26h-8zM40.5 116.5h16v34h-16z"/><path stroke="#000" d="M44.5 120.5h8v26h-8zM13.5 86.5h43v19h-43z"/><path stroke="#000" d="M17.5 90.5h35v11h-35zM13.5 14.5h16v61h-16z"/><path stroke="#000" d="M17.5 18.5h8v53h-8zM40.5 14.5h16v61h-16z"/><path stroke="#000" d="M13.5.5h43v164h-43z"/><path stroke="#000" d="M29.5 116.5h11v34h-11zM29.5 14.5h11v61h-11zM44.5 18.5h8v53h-8z"/><path stroke="#BFBFBF" d="M.5.5h69v164H.5z"/></svg>