<svg width="70" height="165" fill="none" xmlns="http://www.w3.org/2000/svg"><path d="M43.336 102.632a12 12 0 003.401-6.135H56.5V150.5h-18v-45.022a11.987 11.987 0 004.836-2.846zM26.665 102.632a12 12 0 01-3.402-6.135H13.5V150.5h18v-45.022a11.988 11.988 0 01-4.835-2.846zM26.665 85.365a12 12 0 00-3.402 6.135H13.5V14.497h18v68.022a12 12 0 00-4.835 2.846zM43.336 85.365a12 12 0 013.401 6.135H56.5V14.497h-18v68.022a12 12 0 014.836 2.846z" stroke="#000"/><path stroke="#BFBFBF" d="M.5.5h69v164H.5z"/></svg>