<svg width="70" height="165" fill="none" xmlns="http://www.w3.org/2000/svg"><path stroke="#000" d="M13.5.5h43v164h-43z"/><path d="M56.5 50.5c0 2.896-2.255 5.64-6.175 7.689C46.428 60.225 41.01 61.5 35 61.5c-6.011 0-11.428-1.275-15.325-3.311-3.92-2.05-6.175-4.793-6.175-7.689s2.255-5.64 6.175-7.689C23.571 40.775 28.99 39.5 35 39.5c6.011 0 11.428 1.275 15.325 3.311 3.92 2.05 6.175 4.793 6.175 7.689zM48.681 69.381c-1.858.722-3.263 1.235-4.714 1.563-1.334.302-2.692.446-4.467.468V150.5h17V64.503c-.686.757-1.565 1.484-2.555 2.158-1.534 1.044-3.371 1.984-5.264 2.72z" stroke="#000"/><path d="M48.514 74.012c-1.823.513-3.754.818-5.014.888v71.6h9V72.253c-.315.24-.673.456-1.051.651-.859.444-1.889.813-2.935 1.108zM21.319 69.381c1.858.722 3.263 1.235 4.714 1.563 1.334.302 2.692.446 4.467.468V150.5h-17V64.503c.686.757 1.565 1.484 2.555 2.158 1.534 1.044 3.371 1.984 5.264 2.72z" stroke="#000"/><path d="M21.486 74.012c1.823.513 3.754.818 5.014.888v71.6h-9V72.253c.315.24.673.456 1.051.651.859.444 1.889.813 2.935 1.108zM21.319 31.619c1.858-.722 3.263-1.235 4.714-1.563 1.334-.302 2.692-.446 4.467-.468V14.5h-17v21.997c.686-.757 1.565-1.484 2.555-2.158 1.534-1.044 3.371-1.984 5.264-2.72z" stroke="#000"/><path d="M21.486 26.988c1.823-.513 3.754-.818 5.014-.888v-7.6h-9v10.247c.315-.24.673-.456 1.051-.651.859-.444 1.889-.813 2.935-1.108zM48.681 31.619c-1.858-.722-3.263-1.235-4.714-1.563-1.334-.302-2.692-.446-4.467-.468V14.5h17v21.997c-.686-.757-1.565-1.484-2.555-2.158-1.534-1.044-3.371-1.984-5.264-2.72z" stroke="#000"/><path d="M48.514 26.988c-1.823-.513-3.754-.818-5.014-.888v-7.6h9v10.247a7.224 7.224 0 00-1.051-.651c-.859-.444-1.889-.813-2.935-1.108zM31 150.5h8M31 14.5h8M51.5 50.5c0 .872-.398 1.74-1.197 2.573-.8.836-1.984 1.611-3.484 2.273-3 1.323-7.177 2.154-11.819 2.154-4.642 0-8.82-.831-11.819-2.154-1.5-.662-2.683-1.437-3.484-2.273-.799-.833-1.197-1.701-1.197-2.573 0-.872.398-1.74 1.197-2.573.8-.836 1.984-1.611 3.484-2.273 3-1.323 7.177-2.154 11.819-2.154 4.642 0 8.82.831 11.819 2.154 1.5.662 2.683 1.437 3.484 2.273.799.833 1.197 1.701 1.197 2.573z" stroke="#000"/><path stroke="#BFBFBF" d="M.5.5h69v164H.5z"/></svg>