<?xml version="1.0" encoding="UTF-8"?>
<!DOCTYPE svg PUBLIC "-//W3C//DTD SVG 1.1//EN" "http://www.w3.org/Graphics/SVG/1.1/DTD/svg11.dtd">
<!-- Creator: CorelDRAW 2018 (64-Bit) -->
<svg xmlns="http://www.w3.org/2000/svg" xml:space="preserve" width="70px" height="165px" version="1.1" style="shape-rendering:geometricPrecision; text-rendering:geometricPrecision; image-rendering:optimizeQuality; fill-rule:evenodd; clip-rule:evenodd"
viewBox="0 0 70 165"
 xmlns:xlink="http://www.w3.org/1999/xlink">
 <defs>
  <style type="text/css">
   <![CDATA[
    .fil1 {fill:black}
    .fil0 {fill:#BFBFBF}
   ]]>
  </style>
 </defs>
 <g id="Слой_x0020_1">
  <metadata id="CorelCorpID_0Corel-Layer"/>
  <path class="fil0" d="M0 0l70 0 0 165 -70 0 0 -165zm1 1l68 0 0 163 -68 0 0 -163z"/>
  <path class="fil1" d="M13 13l0 75 44 0 0 -75 -44 0zm3 3l38 0 0 69 -38 0 0 -69zm-4 -4l46 0 0 77 -46 0 0 -77zm5 5l36 0 0 67 -36 0 0 -67zm2 2l32 0 0 63 -32 0 0 -63zm-1 -1l34 0 0 65 -34 0 0 -65z"/>
  <path class="fil1" d="M13 100l0 48 44 0 0 -48 -44 0zm3 3l38 0 0 42 -38 0 0 -42zm-4 -4l46 0 0 50 -46 0 0 -50zm5 5l36 0 0 40 -36 0 0 -40zm2 2l32 0 0 36 -32 0 0 -36zm-1 -1l34 0 0 38 -34 0 0 -38z"/>
 </g>
</svg>
