<?xml version="1.0" encoding="UTF-8"?>
<!DOCTYPE svg PUBLIC "-//W3C//DTD SVG 1.1//EN" "http://www.w3.org/Graphics/SVG/1.1/DTD/svg11.dtd">
<!-- Creator: CorelDRAW 2018 (64-Bit) -->
<svg xmlns="http://www.w3.org/2000/svg" xml:space="preserve" width="70px" height="165px" version="1.1" style="shape-rendering:geometricPrecision; text-rendering:geometricPrecision; image-rendering:optimizeQuality; fill-rule:evenodd; clip-rule:evenodd"
viewBox="0 0 70 165"
 xmlns:xlink="http://www.w3.org/1999/xlink">
 <defs>
  <style type="text/css">
   <![CDATA[
    .fil1 {fill:black}
    .fil0 {fill:#BFBFBF}
   ]]>
  </style>
 </defs>
 <g id="Слой_x0020_1">
  <metadata id="CorelCorpID_0Corel-Layer"/>
  <path class="fil0" d="M0 0l70 0 0 165 -70 0 0 -165zm1 1l68 0 0 163 -68 0 0 -163z"/>
  <path class="fil1" d="M18 121l34 0 0 22 -34 0 0 -22zm1 1l32 0 0 20 -32 0 0 -20zm-2 -2l36 0 0 24 -36 0 0 -24zm-5 -5l46 0 0 34 -46 0 0 -34zm4 4l38 0 0 26 -38 0 0 -26zm-3 -3l0 32 44 0 0 -32 -44 0zm5 -98l34 0 0 52 -34 0 0 -52zm1 1l32 0 0 50 -32 0 0 -50zm-2 -2l36 0 0 54 -36 0 0 -54zm-5 -5l46 0 0 64 -46 0 0 -64zm4 4l38 0 0 56 -38 0 0 -56zm-3 -3l0 62 44 0 0 -62 -44 0zm5 78l34 0 0 9 -34 0 0 -9zm1 1l32 0 0 7 -32 0 0 -7zm-2 -2l36 0 0 11 -36 0 0 -11zm-5 -5l46 0 0 21 -46 0 0 -21zm4 4l38 0 0 13 -38 0 0 -13zm-3 -3l0 19 44 0 0 -19 -44 0z"/>
 </g>
</svg>
