<svg width="70" height="165" fill="none" xmlns="http://www.w3.org/2000/svg"><path stroke="#000" d="M39.5 133.5h17v17h-17z"/><path stroke="#000" d="M13.5.5h43v164h-43z"/><path stroke="#000" d="M13.5 133.5h17v17h-17zM43.5 137.5h9v9h-9z"/><rect x="29.5" y="36.5" width="11" height="11" rx="5.5" stroke="#000"/><rect x="24.5" y="31.5" width="21" height="21" rx="10.5" stroke="#000"/><path fill-rule="evenodd" clip-rule="evenodd" d="M13 46v77h18V62.62C22.61 61.002 15.633 54.39 14 46h-1zm1 3.577c2.605 6.892 8.724 12.167 16 13.853V122H14V49.577zM18.4 61.5c.028.022.076.066.145.127.748.667 3.955 3.373 8.455 4.389V119H17V60s1.072 1.236 1.4 1.5zM26 118V66.838c-2.523-.664-5.656-2.141-8-4.312V118h8zM57 46v77H39V62.62c8.39-1.618 15.367-8.23 17-16.62h1zm-1 3.577c-2.605 6.892-8.724 12.167-16 13.853V122h16V49.577zM51.6 61.5a4.815 4.815 0 00-.145.127C50.707 62.294 47.5 65 43 66.016V119h10V60s-1.072 1.236-1.4 1.5zM44 118V66.838c2.523-.664 5.656-2.141 8-4.312V118h-8zM13 39V15l18-3.2V22.381C22.61 23.998 15.633 30.61 14 39h-1zm1-3.577c2.605-6.892 8.724-12.167 16-13.853V13l-16 3v19.423zm4.4-11.085c.028-.022.076-.065.145-.127.748-.667 3.955-3.373 8.455-4.388v-4.029l-10 2.4v7.644s1.072-1.236 1.4-1.5zM26 17v2c-2.523.664-5.656 2.142-8 4.312V19l8-2zM57 39V15l-18-3.2V22.381C47.39 23.998 54.367 30.61 56 39h1zm-1-3.577c-2.605-6.892-8.724-12.167-16-13.853V13l16 3v19.423zm-4.4-11.085a4.815 4.815 0 01-.145-.127c-.748-.667-3.955-3.373-8.455-4.388v-4.029l10 2.4v7.644s-1.072-1.236-1.4-1.5zM44 17v2c2.523.664 5.656 2.142 8 4.312V19l-8-2z" fill="#000"/><path stroke="#000" d="M17.5 137.5h9v9h-9zM31 150.5h8M30.5 123v10M39.5 123v10M56.5 15.5l-21.5-4-21.5 4M29.964 22.084a22 22 0 019.822-.057M29.964 62.916a22 22 0 009.822.057"/><path stroke="#BFBFBF" d="M.5.5h69v164H.5z"/></svg>