<svg width="70" height="165" fill="none" xmlns="http://www.w3.org/2000/svg"><path stroke="#000" d="M.5.5h69v164H.5z"/><path stroke="#000" d="M.5.5h69v164H.5z"/><path stroke="#000" d="M13.5 14.5h43v94h-43zM13.5 119.5h43v31h-43z"/><path stroke="#000" d="M17.5 123.5h35v23h-35z"/><path stroke="#000" d="M13.5.5h43v164h-43z"/><path stroke="#000" d="M17.5 18.5h35v86h-35z"/><circle cx="35" cy="135" r="4.5" stroke="#000"/><circle cx="35" cy="62" r="4.5" stroke="#000"/><path d="M36.607 66.736L52 105l.928-.373-15.41-38.306a4.976 4.976 0 01-.911.415zM32.88 57.47c.299-.14.615-.252.944-.33L18.078 18H17l15.88 39.47zM33.321 66.736L17.928 105l-.928-.373 15.41-38.306c.287.167.592.307.911.415zM37.049 57.47c-.3-.14-.616-.252-.945-.33L51.85 18h1.078l-15.88 39.47zM31.14 131.821L18.159 123.4l-.658.765 13.084 8.487a5.02 5.02 0 01.557-.831zM39.477 137.228c-.15.301-.329.584-.533.846l13.512 8.765L53 146l-13.523-8.772zM38.86 131.821l12.982-8.421.658.765-13.085 8.488a5.022 5.022 0 00-.556-.832zM30.523 137.229c.15.3.329.583.533.846l-13.512 8.764L17 146l13.523-8.771z" fill="#000"/><path stroke="#BFBFBF" d="M.5.5h69v164H.5z"/></svg>