<svg width="70" height="165" fill="none" xmlns="http://www.w3.org/2000/svg"><path stroke="#000" d="M13.5 14.5h43v55h-43z"/><path stroke="#000" d="M13.5.5h43v164h-43z"/><path stroke="#000" d="M17.5 18.5h35v47h-35zM13.5 80.5h43v25h-43z"/><path stroke="#000" d="M17.5 84.5h35v17h-35z"/><circle cx="35" cy="93" r="4.5" stroke="#000"/><path d="M39.167 95.764l12.333 6.017 1-.625-12.865-6.276a4.978 4.978 0 01-.468.884zM30.256 91.417c.106-.32.244-.625.41-.912L18.5 84.57l-1 .625 12.756 6.222zM30.833 95.764L18.5 101.781l-1-.625 12.866-6.276c.126.312.283.608.467.884zM39.744 91.417a4.971 4.971 0 00-.41-.912L51.5 84.57l1 .625-12.756 6.222z" fill="#000"/><path stroke="#000" d="M13.5 116.5h43v34h-43z"/><path stroke="#000" d="M17.5 120.5h35v26h-35z"/><circle cx="35" cy="134" r="4.5" stroke="#000"/><path d="M38.82 137.226L52 146.653l.5-.872-13.113-9.38c-.161.294-.351.57-.566.825zM30.81 131.269c.184-.28.395-.541.629-.779l-13.842-10.292-.097 1.174 13.31 9.897zM31.18 137.226L18 146.653l-.5-.872 13.113-9.38c.161.294.351.57.567.825zM39.19 131.269a5.07 5.07 0 00-.629-.779l13.842-10.292.097 1.174-13.31 9.897z" fill="#000"/><circle cx="35" cy="42" r="4.5" stroke="#000"/><path d="M37.642 46.246L52 65.649l.5-1.006-14.066-19.008a5.019 5.019 0 01-.792.61zM31.712 38.233c.251-.22.524-.414.815-.58L18.354 18.5l-.854.527 14.212 19.206zM32.358 46.246L18 65.649l-.5-1.006 14.066-19.008c.243.229.508.434.792.61zM38.288 38.233a5.017 5.017 0 00-.815-.58L51.646 18.5l.854.527-14.212 19.206z" fill="#000"/><path stroke="#BFBFBF" d="M.5.5h69v164H.5z"/></svg>