<svg width="70" height="165" fill="none" xmlns="http://www.w3.org/2000/svg"><path stroke="#000" d="M13.5.5h43v164h-43z"/><path stroke="#000" d="M13.5 14.5h43v38h-43z"/><path stroke="#000" d="M17.5 18.5h35v30h-35z"/><path d="M18.77 33.5L35 19.657 51.23 33.5 35 47.343 18.77 33.5zM13.5 63.5h43v38h-43z" stroke="#000"/><path stroke="#000" d="M17.5 67.5h35v30h-35z"/><path d="M18.77 82.5L35 68.657 51.23 82.5 35 96.343 18.77 82.5zM13.5 112.5h43v38h-43z" stroke="#000"/><path stroke="#000" d="M17.5 116.5h35v30h-35z"/><path d="M18.77 131.5L35 117.657 51.23 131.5 35 145.343 18.77 131.5z" stroke="#000"/><path stroke="#BFBFBF" d="M.5.5h69v164H.5z"/></svg>