<svg width="70" height="165" fill="none" xmlns="http://www.w3.org/2000/svg"><path stroke="#000" d="M13.5 14.5h43v64h-43z"/><path stroke="#000" d="M13.5.5h43v164h-43z"/><path stroke="#000" d="M13.5 118.5h43v32h-43z"/><path stroke="#000" d="M17.5 122.5h35v24h-35zM13.5 89.5h43v18h-43z"/><path stroke="#000" d="M17.5 93.5h35v10h-35zM17.5 18.5h35v56h-35z"/><path d="M18.601 46.018l16.4-26.08 16.473 26.129-16.398 27.047-16.475-27.096zM18.892 134.5L35 123.604 51.108 134.5 35 145.396 18.892 134.5z" stroke="#000"/><path stroke="#BFBFBF" d="M.5.5h69v164H.5z"/></svg>