<svg width="70" height="165" fill="none" xmlns="http://www.w3.org/2000/svg"><path d="M13.5 106.788c6.274 2.888 13.634 4.548 21.5 4.548s15.226-1.66 21.5-4.548V150.5h-43v-43.712z" stroke="#000"/><path d="M17.5 112.29c2.871 1.338 5.216 2.136 7.758 2.6 2.741.501 5.69.61 9.742.61 4.051 0 7-.109 9.742-.61 2.542-.464 4.887-1.262 7.758-2.6V146.5h-35v-5.499-28.711zM13.5 14.5v60.712c6.274-2.888 13.634-4.548 21.5-4.548s15.226 1.66 21.5 4.548V14.5h-43z" stroke="#000"/><path d="M17.5 69.71c2.871-1.337 5.216-2.136 7.758-2.6 2.741-.501 5.69-.61 9.742-.61 4.051 0 7 .109 9.742.61 2.542.464 4.887 1.263 7.758 2.6V18.5h-35v51.209zM56.5 91c0 2.445-2.203 4.822-6.15 6.616C46.446 99.39 41.02 100.5 35 100.5s-11.447-1.11-15.35-2.884C15.704 95.822 13.5 93.445 13.5 91c0-2.445 2.203-4.822 6.15-6.616C23.554 82.61 28.98 81.5 35 81.5s11.447 1.11 15.35 2.884c3.947 1.794 6.15 4.171 6.15 6.616z" stroke="#000"/><path d="M52.5 90.998v.004c-.006.017-.039.131-.237.352-.205.228-.525.502-.963.806-.872.606-2.155 1.293-3.759 1.939C44.335 95.39 39.898 96.5 35 96.5c-4.898 0-9.335-1.11-12.541-2.401-1.604-.647-2.887-1.333-3.76-1.94-.437-.303-.757-.577-.962-.805-.198-.22-.231-.335-.236-.352V91v-.002c.005-.017.038-.131.236-.352.205-.228.525-.502.963-.806.872-.606 2.155-1.293 3.759-1.939C25.665 86.61 30.102 85.5 35 85.5c4.898 0 9.335 1.11 12.541 2.401 1.604.647 2.887 1.333 3.76 1.94.437.303.757.577.962.805.198.22.231.335.236.352z" stroke="#000"/><path stroke="#000" d="M13.5.5h43v164h-43z"/><path stroke="#BFBFBF" d="M.5.5h69v164H.5z"/></svg>