<svg width="70" height="165" fill="none" xmlns="http://www.w3.org/2000/svg"><path d="M51.5 164.5V.5h3v164h-3z" stroke="#000"/><g clip-path="url(#clip0)" stroke="#000"><path d="M-32.458 3.992l179.406 88.393M-33.785 6.683l179.407 88.393M-35.112 9.374l179.407 88.393M-36.438 12.065l179.407 88.393M-37.764 14.756l179.407 88.393M-39.089 17.448l179.406 88.393M-40.417 20.138l179.407 88.393M-41.739 22.83l179.406 88.393M-43.066 25.521l179.407 88.393M-20.527-20.228L158.88 68.165M-21.854-17.537l179.406 88.393M-23.177-14.845l179.406 88.393M-24.503-12.154l179.406 88.393M-25.83-9.463L153.576 78.93M-27.156-6.772L152.25 81.621M-28.482-4.081l179.406 88.393M-29.808-1.39l179.406 88.393M-31.135 1.301l179.406 88.393M-44.393 28.212l179.406 88.393M-45.719 30.903l179.407 88.393M-47.045 33.594l179.407 88.393M-48.371 36.285l179.407 88.393M-49.698 38.976l179.407 88.393M-51.021 41.668l179.407 88.393M-52.347 44.359l179.406 88.393M-53.674 47.05l179.406 88.393M-55 49.741l179.406 88.393M-56.326 52.432l179.406 88.393M-57.652 55.123l179.407 88.393M-58.979 57.814l179.406 88.393M-60.302 60.505l179.406 88.393M-61.628 63.196l179.406 88.393M-62.956 65.887l179.407 88.393M-64.281 68.578l179.406 88.393M-65.607 71.269l179.406 88.393M-66.933 73.96l179.406 88.394M-68.26 76.651l179.406 88.393M-69.587 79.342l179.407 88.393M-70.91 82.034l179.407 88.393M-72.237 84.725l179.407 88.393M-73.563 87.416l179.407 88.393M-74.889 90.107L104.518 178.5M-76.215 92.798l179.407 88.393M-77.542 95.489l179.407 88.393M-78.868 98.18l179.406 88.393M-80.191 100.872l179.407 88.393M-81.518 103.563l179.406 88.393M-82.844 106.254l179.407 88.393M-84.17 108.945l179.407 88.393M-85.496 111.636l179.407 88.393M-86.823 114.327L92.584 202.72M-88.149 117.018l179.406 88.393M-8.594-44.448l179.407 88.393M-9.92-41.757l179.407 88.393M-11.246-39.066l179.407 88.394M-12.573-36.375l179.406 88.393M-13.896-33.683L165.511 54.71M-15.222-30.992l179.406 88.393M-16.549-28.301l179.406 88.393M-17.875-25.61l179.406 88.393M-19.201-22.919l179.406 88.393M-89.472 119.709l179.406 88.393M-90.799 122.4l179.406 88.393M-92.125 125.091l179.406 88.393M-93.451 127.782l179.406 88.394M-94.777 130.474l179.406 88.393M108.052 3.992L-71.354 92.385M109.379 6.683L-70.027 95.076M110.706 9.374L-68.7 97.767M112.031 12.065l-179.406 88.393M113.357 14.756L-66.049 103.15M114.683 17.447L-64.723 105.84M116.011 20.138l-179.406 88.393M117.333 22.83l-179.406 88.393M118.66 25.521l-179.406 88.393M96.12-20.228L-83.285 68.165M97.448-17.537L-81.958 70.856M98.77-14.845L-80.634 73.548M100.097-12.154L-79.309 76.239M101.424-9.463L-77.982 78.93M102.75-6.772L-76.656 81.62M104.076-4.081L-75.33 84.312M105.402-1.39L-74.004 87.003M106.729 1.3L-72.677 89.695M119.987 28.212l-179.406 88.393M121.313 30.903l-179.406 88.393M122.639 33.594l-179.406 88.393M123.965 36.285l-179.406 88.393M125.292 38.976l-179.406 88.393M126.615 41.668L-52.791 130.06M127.941 44.359l-179.406 88.393M129.268 47.05l-179.406 88.393M130.594 49.74l-179.406 88.394M131.92 52.432l-179.406 88.393M133.246 55.123L-46.16 143.516M134.573 57.814l-179.406 88.393M135.896 60.505L-43.51 148.898M137.222 63.196L-42.184 151.59M138.549 65.887L-40.857 154.28M139.875 68.578l-179.406 88.393M141.201 71.27l-179.406 88.392M142.527 73.96l-179.406 88.393M143.854 76.651l-179.406 88.393M145.181 79.342l-179.406 88.393M146.503 82.034l-179.406 88.393M147.831 84.725l-179.406 88.393M149.157 87.416l-179.406 88.393M150.482 90.107L-28.924 178.5M151.808 92.798l-179.406 88.393M153.135 95.489l-179.406 88.393M154.462 98.18l-179.406 88.393M155.785 100.871l-179.406 88.393M157.112 103.562l-179.406 88.393M158.438 106.253l-179.406 88.393M159.764 108.944l-179.406 88.393M161.09 111.635l-179.406 88.393M162.417 114.326L-16.989 202.72M163.743 117.017L-15.663 205.41M84.188-44.448L-95.22 43.945M85.514-41.757L-93.893 46.636M86.84-39.066L-92.568 49.327M88.167-36.375L-91.24 52.018M89.49-33.683L-89.917 54.71M90.816-30.992L-88.59 57.401M92.143-28.301L-87.263 60.092M93.469-25.61L-85.937 62.783M94.795-22.919L-84.612 65.474M165.066 119.71L-14.34 208.101M166.393 122.4l-179.406 88.393M167.719 125.091l-179.406 88.393M169.045 127.782l-179.406 88.393M170.371 130.473L-9.035 218.866"/></g><path stroke="#BFBFBF" d="M.5.5h69v164H.5z"/><defs><clipPath id="clip0"><path fill="#fff" transform="translate(1)" d="M0 0h50v164H0z"/></clipPath></defs></svg>