<svg width="70" height="165" fill="none" xmlns="http://www.w3.org/2000/svg"><g clip-path="url(#clip0)"><path d="M46.5 87A11.5 11.5 0 1135 75.5M21.85 73.853a18.593 18.593 0 110 26.294" stroke="#000"/><path d="M60.145 112.147a35.569 35.569 0 01-18.209 9.734 35.563 35.563 0 1118.21-60.028" stroke="#000"/><path d="M73.816 109.278a44.759 44.759 0 01-68.24 11.448 44.756 44.756 0 0151.7-72.544M73.244 125.048a53.948 53.948 0 11-.198-76.294" stroke="#000"/><path d="M58.57 146.876a64.345 64.345 0 01-68.006-13.333A64.35 64.35 0 01-5.134 36.7a64.349 64.349 0 0195.38 17.308M13.562 16.823a73.379 73.379 0 11-44.318 102.74M-4.332 11.308A85.302 85.302 0 11-33.29 138.116" stroke="#000"/><path d="M53.145 105.147a25.67 25.67 0 01-27.969 5.564 25.666 25.666 0 010-47.422 25.665 25.665 0 0127.97 5.564" stroke="#000"/><path stroke="#BFBFBF" d="M.5.5h69v164H.5z"/></g><defs><clipPath id="clip0"><path fill="#fff" d="M0 0h70v165H0z"/></clipPath></defs></svg>