<svg width="70" height="165" fill="none" xmlns="http://www.w3.org/2000/svg"><path d="M36 0v59a2 2 0 002 2h32v1H38a3 3 0 01-3-3V0h1z" fill="#000"/><path d="M43 0v46a2 2 0 002 2h25v1H45a3 3 0 01-3-3V0h1zM70 71H32a2 2 0 00-2 2v21a2 2 0 002 2h38v1H32a3 3 0 01-3-3V73a3 3 0 013-3h38v1zM24 118H0v-1h24a3 3 0 013 3v45h-1v-45a2 2 0 00-2-2z" fill="#000"/><path d="M31 107H0v-1h31a3 3 0 013 3v56h-1v-56a2 2 0 00-2-2zM70 77H48a2 2 0 00-2 2v9a2 2 0 002 2h22v1H48a3 3 0 01-3-3v-9a3 3 0 013-3h22v1z" fill="#000"/><path stroke="#BFBFBF" d="M.5.5h69v164H.5z"/></svg>