<svg width="71" height="165" fill="none" xmlns="http://www.w3.org/2000/svg"><path fill-rule="evenodd" clip-rule="evenodd" d="M1.5 7l68.971-2 .03 1L1.528 8 1.5 7zM1.5 9l69.043 3-.043 1-69.043-3L1.5 9zM1.5 14l69.028 2-.029 1-69.028-2 .028-1zM1.456 22l69.001-3 .044 1-69.002 3-.043-1zM1.472 26l69.029-2 .028 1-69.028 2-.029-1zM1.5 29l69.03 2-.03 1-69.028-2 .029-1zM1.456 37L70.5 34l.043 1L1.5 38l-.043-1zM1.5 39h69v1h-69v-1zM1.5 120.5l69-.5v1l-69 .5v-1zM1 124.043l69.541 2.958-.042.999-69.541-2.958.042-.999zM1.458 132.001L70.598 129l.044.999L1.5 133l-.043-.999zM1.471 136l69.028-2 .029 1L1.5 137l-.029-1zM1.5 139l69.042 3.001-.043.999-69.043-3.001L1.5 139zM1.5 143l69.043 3.001-.043.999-69.043-3.001L1.5 143zM1.457 151.001L70.5 148l.043.999L1.501 152l-.044-.999zM1.457 156.001L70.499 153l.044.999L1.5 157l-.043-.999zM1.5 158l69.042 2.001-.042.999-69.042-2.001L1.5 158z" fill="#000"/><path stroke="#BFBFBF" d="M1.5.5h69v164h-69z"/></svg>