<svg width="70" height="165" fill="none" xmlns="http://www.w3.org/2000/svg"><g clip-path="url(#clip0)"><path fill-rule="evenodd" clip-rule="evenodd" d="M72.409-44l-179.407 88.394-.442-.897L71.967-44.896l.442.897zM-95.065 68.615L84.342-19.78l-.442-.897-179.407 88.393.442.897zm11.932 24.22L96.273 4.441l-.442-.897-179.406 88.393.442.897zm1.326 2.691L97.6 7.132l-.442-.897L-82.25 94.628l.442.897zM98.927 9.823L-80.48 98.216l-.442-.897L98.484 8.926l.443.897zm-178.081 91.084l179.406-88.393-.442-.897-179.406 88.393.442.897zm180.732-85.702l-179.406 88.393-.442-.897 179.406-88.393.442.897zM70 34.108l32.904-16.212-.442-.897-90.616 44.646L70 33.1v1.008zM0 68.597v-1.115l-76.944 37.91.442.897L0 68.597zm0 2.23v1.114l-75.175 37.039-.442-.897L0 70.826zm70-33.374v-1.115l33.789-16.648.442.897L70 37.453zM0 74.17l-74.294 36.605.442.897L0 75.285V74.17zm70-33.374v-1.115l35.112-17.3.442.898L70 40.796zM0 77.515l-72.968 35.951.442.897L0 78.629v-1.114zM70 44.14v-1.115l36.439-17.954.442.898L70 44.14zM0 80.859l-71.64 35.297.441.897L0 81.974V80.86zm70-33.374v-1.114l37.766-18.608.442.897L70 47.485zM0 84.204l-70.315 34.644.442.897L0 85.318v-1.114zM70 50.83v-1.115l39.092-19.26.442.897L70 50.83zM0 87.548l-68.989 33.991.442.897L0 88.663v-1.115zm70-33.374v-1.115l40.418-19.913.442.897L70 54.174zM0 90.892l-67.663 33.338.442.897L0 92.007v-1.115zm70-33.374v-1.114l41.743-20.567.442.897L70 57.518zM0 94.238l-66.336 32.683.442.897L0 95.352v-1.115zm70-33.375v-1.115l43.071-21.22.442.897L70 60.862zM0 97.581l-65.013 32.031.442.897L0 98.695v-1.114zm70-33.374v-1.115l44.394-21.873.441.897L70 64.206zM0 100.925l-63.687 31.378.442.897L0 102.04v-1.115zm70-33.374v-1.115l45.72-22.526.442.897L70 67.551zM0 104.27l-62.36 30.724.443.897L0 105.385v-1.115zm70-33.374V69.78l47.047-23.18.442.897L70 70.896zM0 107.614l-61.033 30.071.441.897L0 108.729v-1.115zM70 74.24v-1.115l48.373-23.833.442.897L70 74.24zM0 110.96l-59.708 29.417.442.897L0 112.073v-1.114zm70-33.374V76.47l49.699-24.487.442.897L70 77.585zM0 114.303l-58.382 28.764.442.897L0 115.418v-1.115zm70-33.374v-1.115l51.025-25.14.442.897L70 80.93zM0 117.648l-57.054 28.11.442.897L0 118.762v-1.114zm70-33.374v-1.115l52.352-25.794.442.897L70 84.274zM0 120.99l-55.732 27.459.442.897L0 122.106v-1.115zm70-33.374v-1.115l53.675-26.445.442.897L70 87.617zM0 124.336l-54.405 26.805.442.897L0 125.45v-1.114zm70-33.374v-1.115l55.001-27.1.442.898L70 90.962zM0 127.68l-53.078 26.152.442.897L0 128.795v-1.115zm30.765-14.043L70 94.3v-1.108l56.328-27.753.442.897-96.005 47.301zM85.67-17.089L-93.737 71.305l-.442-.898L85.227-17.986l.442.897zM-92.415 73.996L86.992-14.397l-.442-.897L-92.856 73.1l.441.897zM88.318-11.706L-91.088 76.687l-.442-.897L87.876-12.603l.442.897zm-178.08 91.084L89.646-9.015l-.442-.897-179.406 88.393.442.897zM90.972-6.324L-88.435 82.07l-.442-.897L90.529-7.22l.442.897zM-87.109 84.76L92.297-3.633l-.442-.897-179.406 88.393.442.897zM93.623-.942L-85.784 87.451l-.441-.897L93.18-1.839l.442.897zm-178.08 91.084L94.95 1.75l-.442-.897-179.406 88.393.442.897zm33.147 67.278l179.406-88.393-.442-.897-179.406 88.393.442.897zm180.732-85.702L-49.984 160.11l-.442-.897L128.98 70.821l.442.897zm-178.08 91.084l179.406-88.393-.442-.897L-49.1 161.905l.442.897zM132.075 77.1l-179.406 88.393-.442-.897 179.406-88.393.442.897zm-178.08 91.084l179.407-88.393-.442-.897-179.407 88.393.442.897zm180.729-85.701l-179.406 88.393-.442-.897 179.406-88.394.442.898zm-178.079 91.083l179.407-88.393-.442-.897-179.407 88.393.442.897zm180.732-85.701l-179.406 88.393-.442-.897 179.406-88.393.442.897zm-178.08 91.084l179.406-88.393-.442-.897-179.406 88.393.442.897zm180.732-85.702L-39.377 181.64l-.442-.897L139.587 92.35l.442.897zM-38.05 184.33l179.406-88.393-.442-.898-179.406 88.394.442.897zm180.733-85.702l-179.407 88.393-.442-.897 179.407-88.394.442.898zm-178.084 91.084l179.407-88.393-.442-.897-179.407 88.393.442.897zm180.734-85.702l-179.407 88.393-.442-.897 179.407-88.393.442.897zm-178.08 91.084l179.406-88.393-.442-.897-179.407 88.393.442.897zm180.732-85.702l-179.407 88.393-.442-.897 179.407-88.393.442.897zm-178.08 91.084l179.406-88.393-.442-.897-179.407 88.393.442.897zm180.733-85.702l-179.407 88.393-.442-.897 179.407-88.393.442.897zm-178.08 91.084l179.406-88.393-.442-.897-179.406 88.393.442.897zm-78.23-158.774L73.734-41.308l-.441-.897-179.407 88.393.442.897zM75.06-38.617l-179.406 88.393-.442-.897L74.618-39.514l.442.897zm-178.079 91.084L76.388-35.926l-.442-.897-179.407 88.393.442.897zm180.73-85.701l-179.407 88.393-.442-.897L77.269-34.132l.442.898zM-100.37 57.85L79.037-30.543l-.442-.898-179.406 88.394.442.897zM80.364-27.853L-99.043 60.54l-.441-.897L79.922-28.75l.442.897zm-178.08 91.084L81.69-25.162l-.442-.897L-98.16 62.335l.442.896zM83.015-22.47L-96.391 65.923l-.442-.897L82.574-23.368l.442.898zM-26.12 208.55l179.407-88.393-.442-.897-179.406 88.393.441.897zm180.734-85.702l-179.406 88.393-.442-.897 179.406-88.393.442.897zm-178.08 91.084L155.94 125.54l-.442-.897-179.406 88.393.442.897zm180.732-85.702L-22.14 216.624l-.442-.897 179.406-88.393.442.897zm-178.08 91.084l179.406-88.393-.442-.897-179.407 88.393.442.897z" fill="#000"/><path fill-rule="evenodd" clip-rule="evenodd" d="M-20.815-44l179.407 88.394.442-.897-179.407-88.393-.442.897zM146.66 68.615L-32.748-19.78l.442-.897 179.407 88.393-.442.897zM41.691 46.995l-86.37-42.554.442-.897 87.062 42.895-1.134.556zm-2.267 1.113L-45.564 6.235l-.442.897 84.297 41.533 1.133-.557zM70 64.288v-1.115l63.843 31.455-.442.897L70 64.288zm-33.976-14.51L-46.891 8.926l-.442.897 82.223 40.51 1.134-.555zM70 67.632v-1.115l62.516 30.802-.442.897L70 67.632zM32.623 51.446l-80.84-39.83-.442.898 80.15 39.489 1.133-.556zM70 70.977v-1.114l61.19 30.148-.442.897L70 70.977zm-40.777-17.86l-78.766-38.808-.442.897L28.09 53.672l1.133-.556zM70 74.32v-1.115l59.864 29.495-.442.897L70 74.321zM25.823 54.785l-76.691-37.786-.442.897 76 37.445 1.133-.556zM70 77.665V76.55l58.538 28.842-.442.897L70 77.665zM22.422 56.454L-52.196 19.69l-.442.897L21.29 57.01l1.133-.556zM70 81.01v-1.115l57.211 28.188-.442.897L70 81.01zM19.023 58.122l-72.542-35.74-.442.897 71.85 35.4 1.134-.556zM70 84.355v-1.115l55.888 27.536-.442.897L70 84.354zM15.622 59.792l-70.467-34.72-.442.898 69.776 34.378 1.133-.556zM70 87.698v-1.115l54.561 26.883-.442.897L70 87.698zM12.222 61.461l-68.394-33.698-.442.897 67.702 33.357 1.134-.556zM70 91.043v-1.115l53.234 26.228-.442.897L70 91.043zM8.822 63.13l-66.32-32.675-.442.897L7.688 63.686l1.134-.556zm61.09 31.214L70 94.3v-1.028l51.909 25.576-.442.897-51.555-25.401zM5.422 64.799l-64.246-31.654-.442.898L4.288 65.355 5.42 64.8zm61.096 31.217l1.131-.558 52.934 26.081-.442.897-53.623-26.42zM2.021 66.468l-62.17-30.631-.443.897 61.48 30.29 1.133-.556zm61.104 31.22l1.131-.557 55.001 27.099-.442.897-55.69-27.438zM0 68.818l-61.477-30.29-.442.898L0 69.931v-1.115zm59.731 30.544l1.131-.557 57.067 28.117-.442.897-57.756-28.457zM0 72.161l-62.8-30.942-.442.897L0 73.276V72.16zm56.339 28.872l1.13-.557 59.138 29.136-.442.897-59.826-29.476zM0 75.505L-64.126 43.91l-.442.897L0 76.62v-1.115zm52.945 27.201l1.131-.558 61.204 30.155-.442.897-61.893-30.494zM0 78.85L-65.453 46.6l-.442.897L0 79.965V78.85zm49.551 25.528l1.131-.557 63.271 31.173-.442.897-63.96-31.513zM0 82.194l-66.78-32.902-.441.897L0 83.31v-1.115zm46.158 23.857l1.131-.558 65.338 32.192-.442.897-66.027-32.531zM0 85.538l-68.105-33.555-.442.897L0 86.653v-1.115zm42.765 22.185l1.13-.557 67.406 33.21-.442.897-68.094-33.55zM0 88.883l-69.431-34.209-.442.897L0 89.998v-1.115zm39.371 20.513l1.131-.558 69.473 34.229-.442.897-70.162-34.568zM0 92.228l-70.758-34.863-.442.897L0 93.342v-1.114zm35.977 18.84l1.132-.557 71.539 35.247-.442.897-72.228-35.587zM0 95.571l-72.081-35.514-.442.897L0 96.686V95.57zm32.585 17.169l1.131-.557 73.609 36.267-.442.897-74.298-36.607zM0 98.915l-73.407-36.167-.442.897L0 100.03v-1.115zm29.191 15.498l1.132-.558 75.676 37.286-.442.897-76.366-37.625zM0 102.26l-74.735-36.821-.442.897L0 103.375v-1.115zm25.798 13.825l1.13-.557 77.744 38.304-.442.897-78.432-38.644zM0 105.605L-76.06 68.13l-.442.897L0 106.719v-1.114zm22.404 12.153l1.131-.558 79.811 39.323-.442.897-80.5-39.662zM0 108.949l-77.386-38.128-.442.897L0 110.064v-1.115zm19.01 10.481l1.132-.557 81.878 40.341-.442.897-82.567-40.681zM0 112.293l-78.712-38.781-.442.897L0 113.408v-1.115zm15.618 8.81l1.13-.558 83.946 41.36-.442.897-84.634-41.699zM0 115.638l-80.04-39.435-.441.897L0 116.753v-1.115zm12.224 7.137l1.13-.557 86.013 42.378-.442.897-86.701-42.718zM0 118.982l-81.366-40.088-.442.897L0 120.097v-1.115zm8.83 5.466l1.131-.558 88.08 43.397-.442.897L8.83 124.448zM0 122.326l-82.689-40.74-.442.897L0 123.44v-1.115zm5.438 3.794l1.13-.557 90.15 44.416-.442.897L5.438 126.12zM0 125.671l-84.016-41.395-.442.897L0 126.786v-1.115zm2.044 2.122l1.131-.558 92.216 45.434-.442.897-92.905-45.773zM70 60.943v-1.115l65.169 32.109-.442.897L70 60.944zm0-3.343l66.05 32.542.442-.897L70 56.485v1.114zM46.224 44.77L-42.914.852l-.442.897L45.09 45.327l1.133-.556zm2.268-1.112L-42.03-.942l.442-.897 91.212 44.94-1.133.557zM70 54.255l67.377 33.196.442-.897L70 53.14v1.115zm0-3.345l68.703 33.85.442-.897L70 49.796v1.114zm-16.975-9.478L-40.26-4.53l-.442.897L51.892 41.99l1.133-.557zm2.267-1.113l-94.67-46.643.443-.897 95.36 46.984-1.133.556zM70 47.566l70.029 34.503.442-.897L70 46.452v1.114zm0-3.344l71.355 35.156.442-.897L70 43.107v1.115zm-10.174-6.128L-37.61-9.912l-.442.897 96.743 47.666 1.134-.557zm2.267-1.113l-98.817-48.687.441-.897 99.51 49.028-1.134.556zM70 40.877l72.682 35.81.442-.897L70 39.762v1.115zm0-3.344l74.008 36.463.442-.897L70 36.418v1.115zm-3.373-2.777l-101.583-50.05-.442.897 100.891 49.71 1.134-.557zm2.266-1.112L-34.075-17.09l.442-.897 179.406 88.393-.442.898L70 34.189V33.1l-1.107.544zm-154.677 54.22l179.407 88.394.442-.897-179.407-88.393-.442.897zm178.08 91.085L-87.11 90.556l.442-.897L92.74 178.052l-.442.897zM-88.435 93.247L90.971 181.64l.442-.897L-87.994 92.35l-.442.897zm178.08 91.084L-89.763 95.938l.442-.898 179.407 88.394-.442.897zM-91.09 98.629l179.406 88.393.442-.897-179.406-88.394-.442.898zm178.084 91.084L-92.412 101.32l.442-.897 179.406 88.393-.442.897zM-93.74 104.011l179.406 88.393.442-.897-179.406-88.393-.442.897zm178.08 91.084l-179.406-88.393.442-.897 179.406 88.393-.442.897zM-96.39 109.393l179.406 88.393.442-.897-179.406-88.393-.442.897zm178.08 91.084l-179.406-88.393.442-.897L82.132 199.58l-.442.897zm-180.733-85.702l179.407 88.393.442-.897-179.407-88.393-.442.897zm178.08 91.084l-179.406-88.393.442-.897 179.406 88.393-.442.897zm78.23-158.774L-22.141-41.308l.442-.897 179.407 88.393-.442.897zM-23.467-38.617L155.94 49.776l.442-.897-179.407-88.393-.442.897zm178.079 91.084L-24.794-35.926l.442-.897L155.054 51.57l-.442.897zM-26.117-33.234L153.29 55.159l.441-.897-179.406-88.394-.442.898zm178.08 91.084L-27.443-30.543l.442-.898 179.406 88.394-.442.897zM-28.77-27.853L150.636 60.54l.442-.897L-28.328-28.75l-.442.897zm178.08 91.084L-30.096-25.162l.442-.897 179.406 88.394-.442.896zM-31.422-22.47l179.406 88.393.442-.897L-30.98-23.368l-.442.898zM77.713 208.55l-179.406-88.393.442-.897 179.406 88.393-.442.897zm-180.733-85.702l179.406 88.393.442-.897-179.406-88.393-.442.897zm178.08 91.084l-179.406-88.393.442-.897 179.406 88.393-.442.897zm-180.732-85.702l179.406 88.393.442-.897-179.406-88.393-.442.897zm178.08 91.084l-179.406-88.393.442-.897L72.85 218.418l-.442.897z" fill="#000"/><path d="M.5 127.996V67.772l69-33.87V93.99l-69 34.007zM138.357 2.951L-41.049 91.344M138.357 56.951l-179.406 88.393" stroke="#000"/></g><path stroke="#BFBFBF" d="M.5.5h69v164H.5z"/><defs><clipPath id="clip0"><path fill="#fff" transform="translate(1)" d="M0 0h69v165H0z"/></clipPath></defs></svg>