<svg width="70" height="165" fill="none" xmlns="http://www.w3.org/2000/svg"><path stroke="#BFBFBF" d="M.5.5h69v164H.5z"/><path stroke="#000" stroke-width="2" d="M0 4h52M0 24h52M0 44h52M0 64h52M0 84h52M0 104h52M0 124h52M0 144h52M0 8h52M0 28h52M0 48h52M0 68h52M0 88h52M0 108h52M0 128h52M0 148h52M0 12h52M0 32h52M52 1v164M0 52h52M0 72h52M0 92h52M0 112h52M0 132h52M0 152h52M0 16h52M0 36h52M0 56h52M0 76h52M0 96h52M0 116h52M0 136h52M0 156h52M0 160h52M0 164h52M0 20h52M0 40h52M0 60h52M0 80h52M0 100h52M0 120h52M0 140h52"/></svg>