<svg width="70" height="165" fill="none" xmlns="http://www.w3.org/2000/svg"><path stroke="#000" d="M.5.5h69v164H.5z"/><path stroke="#000" d="M.5.5h69v164H.5z"/><path stroke="#000" d="M13.5.5h43v164h-43z"/><path stroke="#000" d="M13.5 14.5h43v43h-43z"/><path stroke="#000" d="M17.5 18.5h35v35h-35z"/><circle cx="35" cy="36" r="4.5" stroke="#000"/><path d="M38 40l13.5 13.5.914-.5-13.678-13.678c-.222.25-.468.477-.736.678zM31 33c.2-.268.428-.515.677-.737L17.914 18.5l-.753.661L31 33zM31.991 39.99l-13.5 13.5-.914-.5 13.678-13.678c.222.25.469.477.736.678zM38.992 32.99c-.492.51-.992-.49-.678-.737L52.077 18.49l.753.661L38.992 32.99z" fill="#000"/><path stroke="#000" d="M13.5 107.5h43v43h-43z"/><path stroke="#000" d="M17.5 111.5h35v35h-35z"/><circle cx="35" cy="129" r="4.5" stroke="#000"/><path d="M38 133l13.5 13.5.914-.5-13.678-13.678c-.222.25-.468.477-.736.678zM31 126c.2-.268.428-.515.677-.737L17.914 111.5l-.753.661L31 126zM31.991 132.99l-13.5 13.5-.914-.5 13.678-13.678c.222.25.469.477.736.678zM38.992 125.99c-.492.51-.992-.49-.678-.737l13.763-13.763.753.661-13.838 13.839z" fill="#000"/><path stroke="#000" d="M13.5 67.5h43v29h-43z"/><path stroke="#000" d="M17.5 71.5h35v21h-35z"/><circle cx="35" cy="82" r="4.5" stroke="#000"/><path d="M39.066 84.911L52 92.617l.5-.866-12.936-7.707a5.002 5.002 0 01-.498.867zM30.504 79.81c.147-.301.323-.586.526-.85L18 71.198l-.5.866 13.004 7.747zM30.934 84.911L18 92.617l-.5-.866 12.936-7.707c.137.307.305.597.498.867zM39.496 79.81a4.996 4.996 0 00-.526-.85L52 71.198l.5.866-13.004 7.747z" fill="#000"/><path stroke="#BFBFBF" d="M.5.5h69v164H.5z"/></svg>