<svg width="235" height="305" viewBox="0 0 235 305" fill="none" xmlns="http://www.w3.org/2000/svg">
<path d="M0.5 319V227.5V131V71V11V1H234V10.5V131V319M115 6.5V65H6.5V6.5H115ZM120 6.5L120 65H228.5L228.5 6.5H120ZM6.5 70.2014V128.5H115V70H6.5V70.2014ZM120 70.2014V128.5H228.5V70H120V70.2014ZM6.5 133.701V192H115V133.5H6.5V133.701ZM120 133.701V192H228.5V133.5H120V133.701ZM6.5 196.701V255H115V196.5H6.5V196.701ZM120 196.701V255H228.5V196.5H120V196.701ZM6.5 260.701V319H115V260.5H6.5V260.701ZM120 260.701V319H228.5V260.5H120V260.701Z" stroke="#ABABAB"/>
</svg>
