<svg width="89" height="89" viewBox="0 0 89 89" fill="none" xmlns="http://www.w3.org/2000/svg">
<path d="M76.0555 35.3775C75.7392 36.265 75.2479 37.08 74.6108 37.7742C73.9741 38.4684 73.2042 39.028 72.3472 39.4196C67.786 41.4614 63.9107 44.7763 61.1873 48.9667C58.4643 53.1571 57.0084 58.0443 56.9947 63.0417C57.0003 64.785 57.1742 66.5234 57.5139 68.2333C57.7404 69.2783 57.7553 70.3582 57.558 71.4091C57.3603 72.4597 56.9547 73.4606 56.3643 74.3521C55.8648 75.1323 55.2077 75.7994 54.4348 76.3105C53.662 76.8211 52.7906 77.1649 51.8772 77.3188C49.8962 77.6911 47.8852 77.8772 45.8697 77.875C41.3982 77.8772 36.9716 76.9806 32.8532 75.2388C28.7347 73.4969 25.0083 70.9456 21.8951 67.7353C18.782 64.5254 16.3457 60.7228 14.7309 56.5528C13.116 52.3828 12.3556 47.931 12.4947 43.4617C12.7825 35.1283 16.1622 27.2004 21.9755 21.2226C27.7888 15.2448 35.6192 11.6452 43.9414 11.125H45.8326C52.0467 11.1266 58.1372 12.8631 63.4179 16.1389C68.6986 19.4148 72.9598 24.0999 75.7218 29.6667C76.5717 31.4281 76.6919 33.454 76.0555 35.3033V35.3775Z" stroke="white" stroke-width="3"/>
<path d="M29.666 59.3712L29.7031 59.3301" stroke="white" stroke-width="3" stroke-linecap="round" stroke-linejoin="round"/>
<path d="M22.25 44.5373L22.2871 44.4961" stroke="white" stroke-width="3" stroke-linecap="round" stroke-linejoin="round"/>
<path d="M29.666 29.7033L29.7031 29.6621" stroke="white" stroke-width="3" stroke-linecap="round" stroke-linejoin="round"/>
<path d="M44.5 22.2873L44.5371 22.2461" stroke="white" stroke-width="3" stroke-linecap="round" stroke-linejoin="round"/>
<path d="M59.334 29.7033L59.3711 29.6621" stroke="white" stroke-width="3" stroke-linecap="round" stroke-linejoin="round"/>
</svg>
