<svg width="480" height="516" viewBox="0 0 480 516" fill="none" xmlns="http://www.w3.org/2000/svg">
<path d="M240 0L244.798 159.588L265.087 1.41336L254.341 160.666L289.899 5.63792L263.726 162.811L314.164 12.6274L272.852 165.998L337.617 22.3053L281.618 170.194L360 34.5654L289.928 175.351L381.068 49.2736L297.691 181.414L400.591 66.2686L304.822 188.317L418.355 85.3643L311.242 195.982L434.164 106.351L316.882 204.327L447.846 129L321.68 213.26L459.251 153.062L325.583 222.684L468.254 178.274L328.548 232.494L474.755 204.359L330.543 242.584L478.685 231.032L331.546 252.842L480 258L331.546 263.158L478.685 284.968L330.543 273.416L474.755 311.641L328.548 283.506L468.254 337.726L325.583 293.316L459.251 362.938L321.68 302.74L447.846 387L316.882 311.673L434.164 409.649L311.242 320.018L418.355 430.636L304.822 327.683L400.591 449.731L297.691 334.586L381.068 466.726L289.928 340.649L360 481.435L281.618 345.806L337.617 493.695L272.852 350.002L314.164 503.373L263.726 353.189L289.899 510.362L254.341 355.334L265.087 514.587L244.798 356.412L240 516L235.202 356.412L214.913 514.587L225.659 355.334L190.101 510.362L216.274 353.189L165.836 503.373L207.148 350.002L142.383 493.695L198.382 345.806L120 481.435L190.072 340.649L98.9315 466.726L182.309 334.586L79.4087 449.731L175.178 327.683L61.6452 430.636L168.758 320.018L45.8359 409.649L163.118 311.673L32.1539 387L158.32 302.74L20.7491 362.938L154.417 293.316L11.7464 337.726L151.452 283.506L5.24458 311.641L149.457 273.416L1.31474 284.968L148.454 263.158L0 258L148.454 252.842L1.31474 231.032L149.457 242.584L5.24458 204.359L151.452 232.494L11.7464 178.274L154.417 222.684L20.7491 153.062L158.32 213.26L32.1539 129L163.118 204.327L45.8359 106.351L168.758 195.982L61.6452 85.3643L175.178 188.317L79.4087 66.2686L182.309 181.414L98.9315 49.2736L190.072 175.351L120 34.5654L198.382 170.194L142.383 22.3053L207.148 165.998L165.836 12.6274L216.274 162.811L190.101 5.63792L225.659 160.666L214.913 1.41336L235.202 159.588L240 0Z" fill="#3D3D3D"/>
</svg>
