<svg width="901" height="968" viewBox="0 0 901 968" fill="none" xmlns="http://www.w3.org/2000/svg">
<path d="M450.5 0L459.506 299.382L497.59 2.6514L477.419 301.405L544.164 10.5766L495.036 305.428L589.712 23.6887L512.166 311.408L633.735 41.844L528.621 319.278L675.75 64.8437L544.219 328.954L715.297 92.4358L558.791 340.328L751.943 124.318L572.176 353.276L785.287 160.141L584.228 367.657L814.962 199.512L594.815 383.312L840.644 242L603.821 400.07L862.052 287.139L611.146 417.748L878.951 334.436L616.712 436.152L891.156 383.371L620.457 455.08L898.532 433.408L622.34 474.325L901 484L622.34 493.675L898.532 534.592L620.457 512.92L891.156 584.629L616.712 531.848L878.951 633.564L611.146 550.252L862.052 680.861L603.821 567.93L840.644 726L594.815 584.688L814.962 768.488L584.228 600.343L785.287 807.859L572.176 614.724L751.943 843.682L558.791 627.672L715.297 875.564L544.219 639.046L675.75 903.156L528.621 648.722L633.735 926.156L512.166 656.592L589.712 944.311L495.036 662.572L544.164 957.423L477.419 666.595L497.59 965.349L459.506 668.618L450.5 968L441.494 668.618L403.41 965.349L423.581 666.595L356.836 957.423L405.964 662.572L311.288 944.311L388.834 656.592L267.265 926.156L372.379 648.722L225.25 903.156L356.781 639.046L185.703 875.564L342.209 627.672L149.057 843.682L328.824 614.724L115.713 807.859L316.772 600.343L86.0378 768.488L306.185 584.688L60.3556 726L297.179 567.93L38.9478 680.861L289.854 550.252L22.049 633.564L284.288 531.848L9.84451 584.629L280.543 512.92L2.4679 534.592L278.66 493.675L0 484L278.66 474.325L2.4679 433.408L280.543 455.08L9.84451 383.371L284.288 436.152L22.049 334.436L289.854 417.748L38.9478 287.139L297.179 400.07L60.3556 242L306.185 383.312L86.0378 199.512L316.772 367.657L115.713 160.141L328.824 353.276L149.057 124.318L342.209 340.328L185.703 92.4358L356.781 328.954L225.25 64.8437L372.379 319.278L267.265 41.844L388.834 311.408L311.288 23.6887L405.964 305.428L356.836 10.5766L423.581 301.405L403.41 2.6514L441.494 299.382L450.5 0Z" fill="white" fill-opacity="0.25"/>
</svg>
