<?xml version="1.0" encoding="utf-8"?>
<!-- Generator: Adobe Illustrator 24.1.2, SVG Export Plug-In . SVG Version: 6.00 Build 0)  -->
<svg version="1.1" id="Слой_1" xmlns="http://www.w3.org/2000/svg" xmlns:xlink="http://www.w3.org/1999/xlink" x="0px" y="0px"
	 viewBox="0 0 153 198" style="enable-background:new 0 0 153 198;" xml:space="preserve">
<g>
	<g>
		<g>
			<rect x="43.2" y="56" width="2.9" height="0.5"/>
		</g>
		<g>
			<rect x="37.8" y="56" width="2.5" height="0.5"/>
		</g>
	</g>
	<g>
		<g>
			<rect x="51.2" y="48.8" width="0.5" height="2.9"/>
		</g>
		<g>
			<rect x="51.2" y="43.4" width="0.5" height="2.5"/>
		</g>
	</g>
	<g>
		<g>
			<rect x="112.1" y="54.6" width="0" height="1.3"/>
		</g>
		<g>
			<rect x="112.1" y="48.8" width="0.5" height="2.9"/>
		</g>
		<g>
			<rect x="112.1" y="43.4" width="0.5" height="2.5"/>
		</g>
	</g>
	<g>
		<g>
			<rect x="43.2" y="157.2" width="2.9" height="0.5"/>
		</g>
		<g>
			<rect x="37.8" y="157.2" width="2.5" height="0.5"/>
		</g>
	</g>
	<g>
		<g>
			<rect x="40.4" y="53.5" width="0.5" height="2.5"/>
		</g>
		<g>
			<path d="M40.9,152.9h-0.5v-4.8h0.5V152.9z M40.9,143.2h-0.5v-4.8h0.5V143.2z M40.9,133.5h-0.5v-4.8h0.5V133.5z M40.9,123.8h-0.5
				V119h0.5V123.8z M40.9,114.1h-0.5v-4.8h0.5V114.1z M40.9,104.4h-0.5v-4.8h0.5V104.4z M40.9,94.7h-0.5v-4.8h0.5V94.7z M40.9,85
				h-0.5v-4.8h0.5V85z M40.9,75.4h-0.5v-4.8h0.5V75.4z M40.9,65.7h-0.5v-4.8h0.5V65.7z"/>
		</g>
		<g>
			<rect x="40.4" y="157.8" width="0.5" height="2.5"/>
		</g>
	</g>
	<g>
		<g>
			<rect x="112.7" y="46" width="2.5" height="0.5"/>
		</g>
		<g>
			<path d="M107.9,46.5h-4.7V46h4.7V46.5z M98.5,46.5h-4.7V46h4.7V46.5z M89,46.5h-4.7V46H89V46.5z M79.6,46.5h-4.7V46h4.7V46.5z
				 M70.1,46.5h-4.7V46h4.7V46.5z M60.6,46.5h-4.7V46h4.7V46.5z"/>
		</g>
		<g>
			<rect x="48.7" y="46" width="2.5" height="0.5"/>
		</g>
	</g>
	<g>
		<g>
			<rect x="43.2" y="56.1" width="2.9" height="0.5"/>
		</g>
		<g>
			<rect x="37.8" y="56.1" width="2.5" height="0.5"/>
		</g>
	</g>
	<g>
		<g>
			<rect x="51.2" y="48.8" width="0.5" height="2.9"/>
		</g>
		<g>
			<rect x="51.2" y="43.4" width="0.5" height="2.5"/>
		</g>
	</g>
	<g>
		<g>
			<rect x="112.6" y="54.6" width="0" height="1.3"/>
		</g>
		<g>
			<rect x="112.1" y="48.8" width="0.5" height="2.9"/>
		</g>
		<g>
			<rect x="112.1" y="43.4" width="0.5" height="2.5"/>
		</g>
	</g>
	<g>
		<g>
			<rect x="43.2" y="157.2" width="2.9" height="0.5"/>
		</g>
		<g>
			<rect x="37.8" y="157.2" width="2.5" height="0.5"/>
		</g>
	</g>
	<g>
		<path d="M112.6,55.8v-1.3h-0.5v1.3H51.7v-1.3h-0.5v1.3H51V56H49v0.5h0v0H51v100.6H49v0.5h0v0H51v0.3h61.8V55.8H112.6z M91.6,157
			H52V56.8h39.5V157z M111.9,157H92.6V56.8h19.3V157z"/>
	</g>
	<g>
		<g>
			<rect x="40.4" y="53.5" width="0.5" height="2.5"/>
		</g>
		<g>
			<path d="M40.9,152.9h-0.5v-4.8h0.5V152.9z M40.9,143.3h-0.5v-4.8h0.5V143.3z M40.9,133.6h-0.5v-4.8h0.5V133.6z M40.9,123.9h-0.5
				V119h0.5V123.9z M40.9,114.2h-0.5v-4.8h0.5V114.2z M40.9,104.5h-0.5v-4.8h0.5V104.5z M40.9,94.8h-0.5v-4.8h0.5V94.8z M40.9,85.1
				h-0.5v-4.8h0.5V85.1z M40.9,75.4h-0.5v-4.8h0.5V75.4z M40.9,65.7h-0.5v-4.8h0.5V65.7z"/>
		</g>
		<g>
			<rect x="40.4" y="157.8" width="0.5" height="2.5"/>
		</g>
	</g>
	<g>
		<g>
			<rect x="112.7" y="46" width="2.5" height="0.5"/>
		</g>
		<g>
			<path d="M107.9,46.5h-4.7V46h4.7V46.5z M98.5,46.5h-4.7V46h4.7V46.5z M89,46.5h-4.7V46H89V46.5z M79.6,46.5h-4.7V46h4.7V46.5z
				 M70.1,46.5h-4.7V46h4.7V46.5z M60.6,46.5h-4.7V46h4.7V46.5z"/>
		</g>
		<g>
			<rect x="48.7" y="46" width="2.5" height="0.5"/>
		</g>
	</g>
	<g>
		<g>
			<path d="M86.1,109.4c-1.2,0-2.2,0.9-2.5,2h-6v1h6c0.2,1.2,1.3,2,2.5,2c1.4,0,2.5-1.1,2.5-2.5C88.6,110.5,87.5,109.4,86.1,109.4z
				 M86.1,113.4c-0.8,0-1.5-0.7-1.5-1.5c0-0.8,0.7-1.5,1.5-1.5c0.8,0,1.5,0.7,1.5,1.5C87.6,112.7,86.9,113.4,86.1,113.4z"/>
		</g>
	</g>
</g>
</svg>
