<?xml version="1.0" encoding="utf-8"?>
<!-- Generator: Adobe Illustrator 24.1.2, SVG Export Plug-In . SVG Version: 6.00 Build 0)  -->
<svg version="1.1" id="Слой_1" xmlns="http://www.w3.org/2000/svg" xmlns:xlink="http://www.w3.org/1999/xlink" x="0px" y="0px"
	 viewBox="0 0 153 198" style="enable-background:new 0 0 153 198;" xml:space="preserve">
<g>
	<g>
		<g>
			<rect x="53.4" y="56.1" width="2.9" height="0.5"/>
		</g>
		<g>
			<rect x="48" y="56.1" width="2.5" height="0.5"/>
		</g>
	</g>
	<g>
		<g>
			<rect x="61.4" y="48.8" width="0.5" height="2.9"/>
		</g>
		<g>
			<rect x="61.4" y="43.4" width="0.5" height="2.5"/>
		</g>
	</g>
	<g>
		<g>
			<rect x="101.9" y="48.8" width="0.5" height="2.9"/>
		</g>
		<g>
			<rect x="101.9" y="43.4" width="0.5" height="2.5"/>
		</g>
	</g>
	<g>
		<g>
			<rect x="53.4" y="157.2" width="2.9" height="0.5"/>
		</g>
		<g>
			<rect x="48" y="157.2" width="2.5" height="0.5"/>
		</g>
	</g>
	<g>
		<path d="M102.4,55.8v-1.3h-0.5v1.3h-40v-1.3h-0.5v1.3h-0.3v0.3h-2v0.5h2v100.7h-2v0.5h2v0.3h41.5V55.8H102.4z M101.7,157H62.1
			V56.8h39.5V157z"/>
	</g>
	<g>
		<g>
			<rect x="50.6" y="53.5" width="0.5" height="2.5"/>
		</g>
		<g>
			<path d="M51.1,153h-0.5v-4.8h0.5V153z M51.1,143.3h-0.5v-4.8h0.5V143.3z M51.1,133.6h-0.5v-4.8h0.5V133.6z M51.1,123.9h-0.5V119
				h0.5V123.9z M51.1,114.2h-0.5v-4.8h0.5V114.2z M51.1,104.5h-0.5v-4.8h0.5V104.5z M51.1,94.8h-0.5v-4.8h0.5V94.8z M51.1,85.1h-0.5
				v-4.8h0.5V85.1z M51.1,75.4h-0.5v-4.8h0.5V75.4z M51.1,65.7h-0.5v-4.8h0.5V65.7z"/>
		</g>
		<g>
			<rect x="50.6" y="157.8" width="0.5" height="2.5"/>
		</g>
	</g>
	<g>
		<g>
			<rect x="102.5" y="46" width="2.5" height="0.5"/>
		</g>
		<g>
			<path d="M97.9,46.5h-4.6V46h4.6V46.5z M88.8,46.5h-4.6V46h4.6V46.5z M79.6,46.5h-4.6V46h4.6V46.5z M70.5,46.5h-4.6V46h4.6V46.5z"
				/>
		</g>
		<g>
			<rect x="58.8" y="46" width="2.5" height="0.5"/>
		</g>
	</g>
	<g>
		<g>
			<path d="M96.2,109.4c-1.2,0-2.2,0.9-2.5,2h-6v1h6c0.2,1.2,1.3,2,2.5,2c1.4,0,2.5-1.1,2.5-2.5C98.7,110.5,97.6,109.4,96.2,109.4z
				 M96.2,113.4c-0.8,0-1.5-0.7-1.5-1.5s0.7-1.5,1.5-1.5s1.5,0.7,1.5,1.5S97,113.4,96.2,113.4z"/>
		</g>
	</g>
</g>
</svg>
