<?xml version="1.0" encoding="utf-8"?>
<!-- Generator: Adobe Illustrator 24.1.2, SVG Export Plug-In . SVG Version: 6.00 Build 0)  -->
<svg version="1.1" id="Слой_1" xmlns="http://www.w3.org/2000/svg" xmlns:xlink="http://www.w3.org/1999/xlink" x="0px" y="0px"
	 viewBox="0 0 153 198" style="enable-background:new 0 0 153 198;" xml:space="preserve">
<g>
	<g>
		<g>
			<rect x="43.3" y="56" width="2.9" height="0.5"/>
		</g>
		<g>
			<rect x="37.9" y="56" width="2.5" height="0.5"/>
		</g>
	</g>
	<g>
		<g>
			<rect x="51.3" y="35" width="0.5" height="2.9"/>
		</g>
		<g>
			<rect x="51.3" y="29.6" width="0.5" height="2.5"/>
		</g>
	</g>
	<g>
		<g>
			<rect x="112.1" y="35" width="0.5" height="2.9"/>
		</g>
		<g>
			<rect x="112.1" y="29.6" width="0.5" height="2.5"/>
		</g>
	</g>
	<g>
		<g>
			<rect x="43.3" y="157.2" width="2.9" height="0.5"/>
		</g>
		<g>
			<rect x="37.9" y="157.2" width="2.5" height="0.5"/>
		</g>
	</g>
	<g>
		<g>
			<rect x="40.4" y="53.5" width="0.5" height="2.5"/>
		</g>
		<g>
			<path d="M40.9,152.9h-0.5v-4.8h0.5V152.9z M40.9,143.2h-0.5v-4.8h0.5V143.2z M40.9,133.5h-0.5v-4.8h0.5V133.5z M40.9,123.8h-0.5
				V119h0.5V123.8z M40.9,114.1h-0.5v-4.8h0.5V114.1z M40.9,104.4h-0.5v-4.8h0.5V104.4z M40.9,94.7h-0.5v-4.8h0.5V94.7z M40.9,85
				h-0.5v-4.8h0.5V85z M40.9,75.4h-0.5v-4.8h0.5V75.4z M40.9,65.7h-0.5v-4.8h0.5V65.7z"/>
		</g>
		<g>
			<rect x="40.4" y="157.8" width="0.5" height="2.5"/>
		</g>
	</g>
	<g>
		<g>
			<rect x="112.6" y="32.2" width="2.5" height="0.5"/>
		</g>
		<g>
			<path d="M107.9,32.7h-4.7v-0.5h4.7V32.7z M98.4,32.7h-4.7v-0.5h4.7V32.7z M89,32.7h-4.7v-0.5H89V32.7z M79.6,32.7h-4.7v-0.5h4.7
				V32.7z M70.1,32.7h-4.7v-0.5h4.7V32.7z M60.7,32.7h-4.7v-0.5h4.7V32.7z"/>
		</g>
		<g>
			<rect x="48.7" y="32.2" width="2.5" height="0.5"/>
		</g>
	</g>
	<g>
		<g>
			<path d="M112.8,55.9V42h-0.2v-1.2h-0.5V42H51.8v-1.2h-0.5V42h-0.2V56H49v0.5h2.1v100.6H49v0.5h2.1v0.3h61.8V55.9H112.8z M52.1,43
				h59.7v12.8H52.1V43z M91.7,157H52.1V56.9h39.5V157z M111.9,157H92.7V56.9h19.3V157z"/>
		</g>
		<g>
			<rect x="43.3" y="56.1" width="2.9" height="0.5"/>
		</g>
		<g>
			<rect x="37.9" y="56.1" width="2.5" height="0.5"/>
		</g>
	</g>
	<g>
		<g>
			<rect x="51.3" y="35" width="0.5" height="2.9"/>
		</g>
		<g>
			<rect x="51.3" y="29.6" width="0.5" height="2.5"/>
		</g>
	</g>
	<g>
		<g>
			<rect x="112.1" y="35" width="0.5" height="2.9"/>
		</g>
		<g>
			<rect x="112.1" y="29.6" width="0.5" height="2.5"/>
		</g>
	</g>
	<g>
		<g>
			<rect x="43.3" y="157.2" width="2.9" height="0.5"/>
		</g>
		<g>
			<rect x="37.9" y="157.2" width="2.5" height="0.5"/>
		</g>
	</g>
	<g>
		<g>
			<rect x="40.4" y="53.5" width="0.5" height="2.5"/>
		</g>
		<g>
			<path d="M40.9,152.9h-0.5v-4.8h0.5V152.9z M40.9,143.3h-0.5v-4.8h0.5V143.3z M40.9,133.6h-0.5v-4.8h0.5V133.6z M40.9,123.9h-0.5
				V119h0.5V123.9z M40.9,114.2h-0.5v-4.8h0.5V114.2z M40.9,104.5h-0.5v-4.8h0.5V104.5z M40.9,94.8h-0.5v-4.8h0.5V94.8z M40.9,85.1
				h-0.5v-4.8h0.5V85.1z M40.9,75.4h-0.5v-4.8h0.5V75.4z M40.9,65.7h-0.5v-4.8h0.5V65.7z"/>
		</g>
		<g>
			<rect x="40.4" y="157.8" width="0.5" height="2.5"/>
		</g>
	</g>
	<g>
		<g>
			<rect x="112.6" y="32.2" width="2.5" height="0.5"/>
		</g>
		<g>
			<path d="M107.9,32.7h-4.7v-0.5h4.7V32.7z M98.5,32.7h-4.7v-0.5h4.7V32.7z M89,32.7h-4.7v-0.5H89V32.7z M79.6,32.7h-4.7v-0.5h4.7
				V32.7z M70.1,32.7h-4.7v-0.5h4.7V32.7z M60.7,32.7h-4.7v-0.5h4.7V32.7z"/>
		</g>
		<g>
			<rect x="48.7" y="32.2" width="2.5" height="0.5"/>
		</g>
	</g>
	<g>
		<g>
			<g>
				<path d="M86.1,109.4c-1.2,0-2.2,0.9-2.5,2h-6v1h6c0.2,1.2,1.3,2,2.5,2c1.4,0,2.5-1.1,2.5-2.5C88.7,110.5,87.5,109.4,86.1,109.4z
					 M86.1,113.4c-0.8,0-1.5-0.7-1.5-1.5c0-0.8,0.7-1.5,1.5-1.5c0.8,0,1.5,0.7,1.5,1.5C87.7,112.7,87,113.4,86.1,113.4z"/>
			</g>
		</g>
	</g>
</g>
</svg>
