<?xml version="1.0" encoding="utf-8"?>
<!-- Generator: Adobe Illustrator 24.1.2, SVG Export Plug-In . SVG Version: 6.00 Build 0)  -->
<svg version="1.1" id="Слой_1" xmlns="http://www.w3.org/2000/svg" xmlns:xlink="http://www.w3.org/1999/xlink" x="0px" y="0px"
	 viewBox="0 0 153 198" style="enable-background:new 0 0 153 198;" xml:space="preserve">
<g>
	<g>
		<g>
			<rect x="33.1" y="56" width="2.9" height="0.5"/>
		</g>
		<g>
			<rect x="27.7" y="56" width="2.5" height="0.5"/>
		</g>
	</g>
	<g>
		<g>
			<rect x="41.1" y="48.8" width="0.5" height="2.9"/>
		</g>
		<g>
			<rect x="41.1" y="43.4" width="0.5" height="2.5"/>
		</g>
	</g>
	<g>
		<g>
			<rect x="122.2" y="48.8" width="0.5" height="2.9"/>
		</g>
		<g>
			<rect x="122.2" y="43.4" width="0.5" height="2.5"/>
		</g>
	</g>
	<g>
		<g>
			<rect x="33.1" y="157.2" width="2.9" height="0.5"/>
		</g>
		<g>
			<rect x="27.7" y="157.2" width="2.5" height="0.5"/>
		</g>
	</g>
	<g>
		<rect x="81.4" y="157" width="1" height="0.1"/>
	</g>
	<g>
		<g>
			<rect x="30.3" y="53.5" width="0.5" height="2.5"/>
		</g>
		<g>
			<path d="M30.8,152.9h-0.5v-4.8h0.5V152.9z M30.8,143.2h-0.5v-4.8h0.5V143.2z M30.8,133.5h-0.5v-4.8h0.5V133.5z M30.8,123.8h-0.5
				V119h0.5V123.8z M30.8,114.1h-0.5v-4.8h0.5V114.1z M30.8,104.4h-0.5v-4.8h0.5V104.4z M30.8,94.8h-0.5v-4.8h0.5V94.8z M30.8,85.1
				h-0.5v-4.8h0.5V85.1z M30.8,75.4h-0.5v-4.8h0.5V75.4z M30.8,65.7h-0.5v-4.8h0.5V65.7z"/>
		</g>
		<g>
			<rect x="30.3" y="157.8" width="0.5" height="2.5"/>
		</g>
	</g>
	<g>
		<g>
			<rect x="122.8" y="46" width="2.5" height="0.5"/>
		</g>
		<g>
			<path d="M118,46.5h-4.8V46h4.8V46.5z M108.4,46.5h-4.8V46h4.8V46.5z M98.7,46.5h-4.8V46h4.8V46.5z M89.1,46.5h-4.8V46h4.8V46.5z
				 M79.5,46.5h-4.8V46h4.8V46.5z M69.9,46.5h-4.8V46h4.8V46.5z M60.3,46.5h-4.8V46h4.8V46.5z M50.7,46.5h-4.8V46h4.8V46.5z"/>
		</g>
		<g>
			<rect x="38.6" y="46" width="2.5" height="0.5"/>
		</g>
	</g>
	<g>
		<g>
			<path d="M122.7,55.8v-1.3h-0.5v1.3H41.6v-1.3h-0.5v1.3h-0.2V56h-2v0.5h0v0h2v100.6h-2v0.5h0v0h2v0.3H123V55.8H122.7z M122,157
				H82.4v0.1h-1V157H41.9V56.8h39.5V157h1V56.8H122V157z"/>
			<path d="M75.9,109.4c-1.2,0-2.2,0.9-2.5,2h-6v1h6c0.2,1.2,1.3,2,2.5,2c1.4,0,2.5-1.1,2.5-2.5C78.4,110.5,77.3,109.4,75.9,109.4z
				 M75.9,113.4c-0.8,0-1.5-0.7-1.5-1.5c0-0.8,0.7-1.5,1.5-1.5c0.8,0,1.5,0.7,1.5,1.5C77.4,112.7,76.7,113.4,75.9,113.4z"/>
		</g>
		<g>
			<rect x="33.1" y="56.1" width="2.9" height="0.5"/>
		</g>
		<g>
			<rect x="27.7" y="56.1" width="2.5" height="0.5"/>
		</g>
	</g>
	<g>
		<g>
			<rect x="41.1" y="48.8" width="0.5" height="2.9"/>
		</g>
		<g>
			<rect x="41.1" y="43.4" width="0.5" height="2.5"/>
		</g>
	</g>
	<g>
		<g>
			<rect x="122.2" y="48.8" width="0.5" height="2.9"/>
		</g>
		<g>
			<rect x="122.2" y="43.4" width="0.5" height="2.5"/>
		</g>
	</g>
	<g>
		<g>
			<rect x="33.1" y="157.2" width="2.9" height="0.5"/>
		</g>
		<g>
			<rect x="27.7" y="157.2" width="2.5" height="0.5"/>
		</g>
	</g>
	<g>
		<path d="M81.4,157L81.4,157l1,0.1V157H81.4z"/>
	</g>
	<g>
		<g>
			<rect x="30.3" y="53.5" width="0.5" height="2.5"/>
		</g>
		<g>
			<path d="M30.8,153h-0.5v-4.8h0.5V153z M30.8,143.3h-0.5v-4.8h0.5V143.3z M30.8,133.6h-0.5v-4.8h0.5V133.6z M30.8,123.9h-0.5V119
				h0.5V123.9z M30.8,114.2h-0.5v-4.8h0.5V114.2z M30.8,104.5h-0.5v-4.8h0.5V104.5z M30.8,94.8h-0.5v-4.8h0.5V94.8z M30.8,85.1h-0.5
				v-4.8h0.5V85.1z M30.8,75.4h-0.5v-4.8h0.5V75.4z M30.8,65.7h-0.5v-4.8h0.5V65.7z"/>
		</g>
		<g>
			<rect x="30.3" y="157.8" width="0.5" height="2.5"/>
		</g>
	</g>
	<g>
		<g>
			<rect x="122.8" y="46" width="2.5" height="0.5"/>
		</g>
		<g>
			<path d="M118,46.5h-4.8V46h4.8V46.5z M108.4,46.5h-4.8V46h4.8V46.5z M98.7,46.5h-4.8V46h4.8V46.5z M89.1,46.5h-4.8V46h4.8V46.5z
				 M79.5,46.5h-4.8V46h4.8V46.5z M69.9,46.5h-4.8V46h4.8V46.5z M60.3,46.5h-4.8V46h4.8V46.5z M50.7,46.5h-4.8V46h4.8V46.5z"/>
		</g>
		<g>
			<rect x="38.6" y="46" width="2.5" height="0.5"/>
		</g>
	</g>
</g>
</svg>
