<?xml version="1.0" encoding="utf-8"?>
<!-- Generator: Adobe Illustrator 24.1.2, SVG Export Plug-In . SVG Version: 6.00 Build 0)  -->
<svg version="1.1" id="Слой_1" xmlns="http://www.w3.org/2000/svg" xmlns:xlink="http://www.w3.org/1999/xlink" x="0px" y="0px"
	 viewBox="0 0 153 198" style="enable-background:new 0 0 153 198;" xml:space="preserve">
<g>
	<g>
		<g>
			<rect x="33.1" y="56" width="2.9" height="0.5"/>
		</g>
		<g>
			<rect x="27.7" y="56" width="2.5" height="0.5"/>
		</g>
	</g>
	<g>
		<g>
			<rect x="41.1" y="35" width="0.5" height="2.9"/>
		</g>
		<g>
			<rect x="41.1" y="29.6" width="0.5" height="2.5"/>
		</g>
	</g>
	<g>
		<g>
			<rect x="122.2" y="40.8" width="0.5" height="2.5"/>
		</g>
		<g>
			<rect x="122.2" y="35" width="0.5" height="2.9"/>
		</g>
		<g>
			<rect x="122.2" y="29.6" width="0.5" height="2.5"/>
		</g>
	</g>
	<g>
		<g>
			<rect x="38.9" y="157.2" width="2.5" height="0.5"/>
		</g>
		<g>
			<rect x="33.1" y="157.2" width="2.9" height="0.5"/>
		</g>
		<g>
			<rect x="27.7" y="157.2" width="2.5" height="0.5"/>
		</g>
	</g>
	<g>
		<g>
			<rect x="30.3" y="53.5" width="0.5" height="2.5"/>
		</g>
		<g>
			<path d="M30.8,152.9h-0.5v-4.8h0.5V152.9z M30.8,143.2h-0.5v-4.8h0.5V143.2z M30.8,133.5h-0.5v-4.8h0.5V133.5z M30.8,123.8h-0.5
				V119h0.5V123.8z M30.8,114.1h-0.5v-4.8h0.5V114.1z M30.8,104.4h-0.5v-4.8h0.5V104.4z M30.8,94.8h-0.5v-4.8h0.5V94.8z M30.8,85.1
				h-0.5v-4.8h0.5V85.1z M30.8,75.4h-0.5v-4.8h0.5V75.4z M30.8,65.7h-0.5v-4.8h0.5V65.7z"/>
		</g>
		<g>
			<rect x="30.3" y="157.8" width="0.5" height="2.5"/>
		</g>
	</g>
	<g>
		<g>
			<rect x="122.8" y="32.2" width="2.5" height="0.5"/>
		</g>
		<g>
			<path d="M118,32.7h-4.8v-0.5h4.8V32.7z M108.4,32.7h-4.8v-0.5h4.8V32.7z M98.7,32.7h-4.8v-0.5h4.8V32.7z M89.1,32.7h-4.8v-0.5
				h4.8V32.7z M79.5,32.7h-4.8v-0.5h4.8V32.7z M69.9,32.7h-4.8v-0.5h4.8V32.7z M60.3,32.7h-4.8v-0.5h4.8V32.7z M50.7,32.7h-4.8v-0.5
				h4.8V32.7z"/>
		</g>
		<g>
			<rect x="38.6" y="32.2" width="2.5" height="0.5"/>
		</g>
	</g>
	<g>
		<g>
			<path d="M75.9,114.4c-1.4,0-2.5-1.1-2.5-2.5c0-1.4,1.1-2.5,2.5-2.5c1.4,0,2.5,1.1,2.5,2.5C78.4,113.3,77.3,114.4,75.9,114.4z
				 M75.9,110.4c-0.8,0-1.5,0.7-1.5,1.5s0.7,1.5,1.5,1.5s1.5-0.7,1.5-1.5S76.7,110.4,75.9,110.4z"/>
		</g>
		<g>
			<rect x="67.5" y="111.4" width="6.4" height="1"/>
		</g>
	</g>
	<g>
		<g>
			<rect x="33.1" y="56.1" width="2.9" height="0.5"/>
		</g>
		<g>
			<rect x="27.7" y="56.1" width="2.5" height="0.5"/>
		</g>
	</g>
	<g>
		<g>
			<rect x="41.1" y="35" width="0.5" height="2.9"/>
		</g>
		<g>
			<rect x="41.1" y="29.6" width="0.5" height="2.5"/>
		</g>
	</g>
	<g>
		<g>
			<rect x="122.2" y="40.8" width="0.5" height="2.5"/>
		</g>
		<g>
			<rect x="122.2" y="35" width="0.5" height="2.9"/>
		</g>
		<g>
			<rect x="122.2" y="29.6" width="0.5" height="2.5"/>
		</g>
	</g>
	<g>
		<g>
			<rect x="38.9" y="157.2" width="2.5" height="0.5"/>
		</g>
		<g>
			<rect x="33.1" y="157.2" width="2.9" height="0.5"/>
		</g>
		<g>
			<rect x="27.7" y="157.2" width="2.5" height="0.5"/>
		</g>
	</g>
	<g>
		<path d="M81.4,157.1h1V157L81.4,157.1L81.4,157.1z M81.4,56.3v0.6h1v-0.6H81.4z M41.4,157.2h-0.5v0.5h0.5L41.4,157.2L41.4,157.2
			L41.4,157.2z"/>
	</g>
	<g>
		<path d="M122.2,42v1.3h0.5V42H122.2z M81.4,56.3v0.5h1v-0.5H81.4z"/>
		<path d="M122.7,42v1.3h-0.5V42H41.6v-1.2h-0.5V42h-0.3v14h-2v0.5h0v0h2v100.6h0.5v0h0v0.5h-0.5v0.3H123V42H122.7z M41.9,43H122
			v12.8H41.9V43z M122,56.9V157H82.4v0.1h-1V157H41.9V56.9h39.5v-0.6h1v0.6H122z"/>
	</g>
	<g>
		<rect x="81.4" y="56.3" width="1" height="100.8"/>
	</g>
	<g>
		<g>
			<rect x="30.3" y="53.5" width="0.5" height="2.5"/>
		</g>
		<g>
			<path d="M30.8,153h-0.5v-4.8h0.5V153z M30.8,143.3h-0.5v-4.8h0.5V143.3z M30.8,133.6h-0.5v-4.8h0.5V133.6z M30.8,123.9h-0.5V119
				h0.5V123.9z M30.8,114.2h-0.5v-4.8h0.5V114.2z M30.8,104.5h-0.5v-4.8h0.5V104.5z M30.8,94.8h-0.5v-4.8h0.5V94.8z M30.8,85.1h-0.5
				v-4.8h0.5V85.1z M30.8,75.4h-0.5v-4.8h0.5V75.4z M30.8,65.7h-0.5v-4.8h0.5V65.7z"/>
		</g>
		<g>
			<rect x="30.3" y="157.8" width="0.5" height="2.5"/>
		</g>
	</g>
	<g>
		<g>
			<rect x="122.8" y="32.2" width="2.5" height="0.5"/>
		</g>
		<g>
			<path d="M118,32.7h-4.8v-0.5h4.8V32.7z M108.4,32.7h-4.8v-0.5h4.8V32.7z M98.7,32.7h-4.8v-0.5h4.8V32.7z M89.1,32.7h-4.8v-0.5
				h4.8V32.7z M79.5,32.7h-4.8v-0.5h4.8V32.7z M69.9,32.7h-4.8v-0.5h4.8V32.7z M60.3,32.7h-4.8v-0.5h4.8V32.7z M50.7,32.7h-4.8v-0.5
				h4.8V32.7z"/>
		</g>
		<g>
			<rect x="38.6" y="32.2" width="2.5" height="0.5"/>
		</g>
	</g>
</g>
</svg>
