<?xml version="1.0" encoding="utf-8"?>
<!-- Generator: Adobe Illustrator 24.1.2, SVG Export Plug-In . SVG Version: 6.00 Build 0)  -->
<svg version="1.1" id="Слой_1" xmlns="http://www.w3.org/2000/svg" xmlns:xlink="http://www.w3.org/1999/xlink" x="0px" y="0px"
	 viewBox="0 0 153 198" style="enable-background:new 0 0 153 198;" xml:space="preserve">
<g>
	<g>
		<g>
			<rect x="53.4" y="56.1" width="2.9" height="0.5"/>
		</g>
		<g>
			<rect x="48" y="56.1" width="2.5" height="0.5"/>
		</g>
	</g>
	<g>
		<g>
			<path d="M61.9,48.7h-0.5v-4.1h0.5V48.7z M61.9,40.4h-0.5v-4.1h0.5V40.4z"/>
		</g>
		<g>
			<rect x="61.4" y="29.6" width="0.5" height="2.5"/>
		</g>
	</g>
	<g>
		<g>
			<path d="M102.4,48.5h-0.5v-4.1h0.5V48.5z M102.4,40.2h-0.5v-4.1h0.5V40.2z"/>
		</g>
		<g>
			<rect x="101.9" y="29.5" width="0.5" height="2.5"/>
		</g>
	</g>
	<g>
		<g>
			<path d="M102.7,56.2c0-0.3-0.1-0.4-0.4-1.1h0.1v-2.5h-0.5v1.7c-1.8-3.9-7.1-12.3-20-12.3c-12.9,0-18.3,8.4-20,12.3v-1.5h-0.5v2.5
				h0.1c-0.1,0.4-0.2,0.6-0.3,0.8h-2v0.5h1.9l0.1,0v100.7h-2v0.5h2v0.3h41.5V56.8C102.7,56.8,102.7,56.3,102.7,56.2z M81.9,43
				c14.1,0,18.6,10.1,19.6,12.8H62.3C63.3,53.1,67.8,43,81.9,43z M101.7,157H62.2V56.8h39.5V157z"/>
		</g>
		<g>
			<rect x="53.4" y="157.2" width="2.9" height="0.5"/>
		</g>
		<g>
			<rect x="48" y="157.2" width="2.5" height="0.5"/>
		</g>
	</g>
	<g>
		<g>
			<rect x="50.6" y="53.5" width="0.5" height="2.5"/>
		</g>
		<g>
			<path d="M51.1,152.9h-0.5v-4.8h0.5V152.9z M51.1,143.3h-0.5v-4.8h0.5V143.3z M51.1,133.6h-0.5v-4.8h0.5V133.6z M51.1,123.9h-0.5
				V119h0.5V123.9z M51.1,114.2h-0.5v-4.8h0.5V114.2z M51.1,104.5h-0.5v-4.8h0.5V104.5z M51.1,94.8h-0.5v-4.8h0.5V94.8z M51.1,85.1
				h-0.5v-4.8h0.5V85.1z M51.1,75.4h-0.5v-4.8h0.5V75.4z M51.1,65.7h-0.5v-4.8h0.5V65.7z"/>
		</g>
		<g>
			<rect x="50.6" y="157.8" width="0.5" height="2.5"/>
		</g>
	</g>
	<g>
		<g>
			<rect x="102.5" y="32.2" width="2.5" height="0.5"/>
		</g>
		<g>
			<path d="M97.9,32.7h-4.6v-0.5h4.6V32.7z M88.8,32.7h-4.6v-0.5h4.6V32.7z M79.6,32.7h-4.6v-0.5h4.6V32.7z M70.5,32.7h-4.6v-0.5
				h4.6V32.7z"/>
		</g>
		<g>
			<rect x="58.8" y="32.2" width="2.5" height="0.5"/>
		</g>
	</g>
	<g>
		<g>
			<path d="M96.2,109.4c-1.2,0-2.2,0.9-2.5,2h-6v1h6c0.2,1.1,1.3,2,2.5,2c1.4,0,2.5-1.1,2.5-2.5S97.6,109.4,96.2,109.4z M96.2,113.4
				c-0.8,0-1.5-0.7-1.5-1.5s0.7-1.5,1.5-1.5c0.8,0,1.5,0.7,1.5,1.5S97,113.4,96.2,113.4z"/>
		</g>
	</g>
</g>
</svg>
