<?xml version="1.0" encoding="utf-8"?>
<!-- Generator: Adobe Illustrator 24.1.2, SVG Export Plug-In . SVG Version: 6.00 Build 0)  -->
<svg version="1.1" id="Слой_1" xmlns="http://www.w3.org/2000/svg" xmlns:xlink="http://www.w3.org/1999/xlink" x="0px" y="0px"
	 viewBox="0 0 153 198" style="enable-background:new 0 0 153 198;" xml:space="preserve">
<g>
	<g>
		<g>
			<rect x="33.1" y="56" width="2.9" height="0.5"/>
		</g>
		<g>
			<rect x="27.7" y="56" width="2.5" height="0.5"/>
		</g>
	</g>
	<g>
		<g>
			<rect x="41.2" y="40.8" width="0" height="1.2"/>
		</g>
		<g>
			<rect x="41.2" y="35" width="0.5" height="2.9"/>
		</g>
		<g>
			<rect x="41.2" y="29.6" width="0.5" height="2.5"/>
		</g>
	</g>
	<g>
		<g>
			<rect x="122.3" y="35" width="0.5" height="2.9"/>
		</g>
		<g>
			<rect x="122.3" y="29.6" width="0.5" height="2.5"/>
		</g>
	</g>
	<g>
		<g>
			<rect x="33.1" y="157.2" width="2.9" height="0.5"/>
		</g>
		<g>
			<rect x="27.7" y="157.2" width="2.5" height="0.5"/>
		</g>
	</g>
	<g>
		<g>
			<rect x="30.3" y="53.5" width="0.5" height="2.5"/>
		</g>
		<g>
			<path d="M30.8,152.9h-0.5v-4.8h0.5V152.9z M30.8,143.2h-0.5v-4.8h0.5V143.2z M30.8,133.5h-0.5v-4.8h0.5V133.5z M30.8,123.8h-0.5
				V119h0.5V123.8z M30.8,114.1h-0.5v-4.8h0.5V114.1z M30.8,104.4h-0.5v-4.8h0.5V104.4z M30.8,94.7h-0.5v-4.8h0.5V94.7z M30.8,85
				h-0.5v-4.8h0.5V85z M30.8,75.4h-0.5v-4.8h0.5V75.4z M30.8,65.7h-0.5v-4.8h0.5V65.7z"/>
		</g>
		<g>
			<rect x="30.3" y="157.8" width="0.5" height="2.5"/>
		</g>
	</g>
	<g>
		<g>
			<rect x="122.9" y="32.2" width="2.5" height="0.5"/>
		</g>
		<g>
			<path d="M118,32.7h-4.8v-0.5h4.8V32.7z M108.4,32.7h-4.8v-0.5h4.8V32.7z M98.7,32.7h-4.8v-0.5h4.8V32.7z M89.1,32.7h-4.8v-0.5
				h4.8V32.7z M79.5,32.7h-4.8v-0.5h4.8V32.7z M69.9,32.7h-4.8v-0.5h4.8V32.7z M60.3,32.7h-4.8v-0.5h4.8V32.7z M50.7,32.7h-4.8v-0.5
				h4.8V32.7z"/>
		</g>
		<g>
			<rect x="38.7" y="32.2" width="2.5" height="0.5"/>
		</g>
	</g>
	<g>
		<g>
			<rect x="33.1" y="56.1" width="2.9" height="0.5"/>
		</g>
		<g>
			<rect x="27.7" y="56.1" width="2.5" height="0.5"/>
		</g>
	</g>
	<g>
		<g>
			<rect x="41.7" y="40.8" width="0" height="1.2"/>
		</g>
		<g>
			<rect x="41.3" y="35" width="0.5" height="2.9"/>
		</g>
		<g>
			<rect x="41.3" y="29.6" width="0.5" height="2.5"/>
		</g>
	</g>
	<g>
		<g>
			<rect x="122.3" y="35" width="0.5" height="2.9"/>
		</g>
		<g>
			<rect x="122.3" y="29.6" width="0.5" height="2.5"/>
		</g>
	</g>
	<g>
		<g>
			<rect x="33.1" y="157.2" width="2.9" height="0.5"/>
		</g>
		<g>
			<rect x="27.7" y="157.2" width="2.5" height="0.5"/>
		</g>
	</g>
	<g>
		<path d="M62.3,56.8L62.3,56.8l39.6,0v0H62.3z M62.3,56.8L62.3,56.8l39.6,0v0H62.3z"/>
	</g>
	<g>
		<path d="M61.3,55.8L61.3,55.8l41.6,0v0H61.3z"/>
		<path d="M123.1,55.9V42h-0.3v-1.2h-0.5V42H41.7v-1.2h-0.5V42H41V56h-2.1v0.5h0v0H41l0,0.3v100.4h-2.1v0.5h0v0H41v0.3h82.1V55.9
			L123.1,55.9z M42,43h80.1v12.8h-19.3v0H61.3v0H42V43z M42,157V56.9h19.3V157H42z M62.3,157V56.8h39.6V157H62.3z M122.1,157h-19.3
			V56.9h19.3V157z"/>
	</g>
	<g>
		<g>
			<rect x="30.3" y="53.5" width="0.5" height="2.5"/>
		</g>
		<g>
			<path d="M30.8,152.9h-0.5v-4.8h0.5V152.9z M30.8,143.3h-0.5v-4.8h0.5V143.3z M30.8,133.6h-0.5v-4.8h0.5V133.6z M30.8,123.9h-0.5
				V119h0.5V123.9z M30.8,114.2h-0.5v-4.8h0.5V114.2z M30.8,104.5h-0.5v-4.8h0.5V104.5z M30.8,94.8h-0.5v-4.8h0.5V94.8z M30.8,85.1
				h-0.5v-4.8h0.5V85.1z M30.8,75.4h-0.5v-4.8h0.5V75.4z M30.8,65.7h-0.5v-4.8h0.5V65.7z"/>
		</g>
		<g>
			<rect x="30.3" y="157.8" width="0.5" height="2.5"/>
		</g>
	</g>
	<g>
		<g>
			<rect x="122.9" y="32.2" width="2.5" height="0.5"/>
		</g>
		<g>
			<path d="M118,32.7h-4.8v-0.5h4.8V32.7z M108.4,32.7h-4.8v-0.5h4.8V32.7z M98.7,32.7h-4.8v-0.5h4.8V32.7z M89.1,32.7h-4.8v-0.5
				h4.8V32.7z M79.5,32.7h-4.8v-0.5h4.8V32.7z M69.9,32.7h-4.8v-0.5h4.8V32.7z M60.3,32.7h-4.8v-0.5h4.8V32.7z M50.7,32.7h-4.8v-0.5
				h4.8V32.7z"/>
		</g>
		<g>
			<rect x="38.7" y="32.2" width="2.5" height="0.5"/>
		</g>
	</g>
	<g>
		<g>
			<path d="M61.3,55.8L61.3,55.8l41.6,0v0H61.3z"/>
		</g>
		<g>
			<g>
				<path d="M96.3,114.4c-1.4,0-2.5-1.1-2.5-2.5s1.1-2.5,2.5-2.5c1.4,0,2.5,1.1,2.5,2.5S97.7,114.4,96.3,114.4z M96.3,110.4
					c-0.8,0-1.5,0.7-1.5,1.5s0.7,1.5,1.5,1.5s1.5-0.7,1.5-1.5S97.1,110.4,96.3,110.4z"/>
			</g>
			<g>
				<rect x="87.9" y="111.4" width="6.4" height="1"/>
			</g>
		</g>
	</g>
</g>
</svg>
