<?xml version="1.0" encoding="utf-8"?>
<!-- Generator: Adobe Illustrator 24.1.2, SVG Export Plug-In . SVG Version: 6.00 Build 0)  -->
<svg version="1.1" id="Слой_1" xmlns="http://www.w3.org/2000/svg" xmlns:xlink="http://www.w3.org/1999/xlink" x="0px" y="0px"
	 viewBox="0 0 153 198" style="enable-background:new 0 0 153 198;" xml:space="preserve">
<g>
	<g>
		<g>
			<rect x="33.1" y="56" width="2.9" height="0.5"/>
		</g>
		<g>
			<rect x="27.7" y="56" width="2.5" height="0.5"/>
		</g>
	</g>
	<g>
		<g>
			<path d="M41.1,53.8v2c0,0,0,0,0,0L41.1,53.8L41.1,53.8z"/>
		</g>
		<g>
			<path d="M41.6,49.5h-0.5v-4.3h0.5V49.5z M41.6,40.8h-0.5v-4.3h0.5V40.8z"/>
		</g>
		<g>
			<rect x="41.1" y="29.6" width="0.5" height="2.5"/>
		</g>
	</g>
	<g>
		<g>
			<path d="M122.7,49.5h-0.5v-4.3h0.5V49.5z M122.7,40.8h-0.5v-4.3h0.5V40.8z"/>
		</g>
		<g>
			<rect x="122.2" y="29.6" width="0.5" height="2.5"/>
		</g>
	</g>
	<g>
		<g>
			<rect x="33.1" y="157.2" width="2.9" height="0.5"/>
		</g>
		<g>
			<rect x="27.7" y="157.2" width="2.5" height="0.5"/>
		</g>
	</g>
	<g>
		<g>
			<rect x="30.3" y="53.5" width="0.5" height="2.5"/>
		</g>
		<g>
			<path d="M30.8,152.9h-0.5v-4.8h0.5V152.9z M30.8,143.2h-0.5v-4.8h0.5V143.2z M30.8,133.5h-0.5v-4.8h0.5V133.5z M30.8,123.8h-0.5
				V119h0.5V123.8z M30.8,114.1h-0.5v-4.8h0.5V114.1z M30.8,104.4h-0.5v-4.8h0.5V104.4z M30.8,94.8h-0.5v-4.8h0.5V94.8z M30.8,85.1
				h-0.5v-4.8h0.5V85.1z M30.8,75.4h-0.5v-4.8h0.5V75.4z M30.8,65.7h-0.5v-4.8h0.5V65.7z"/>
		</g>
		<g>
			<rect x="30.3" y="157.8" width="0.5" height="2.5"/>
		</g>
	</g>
	<g>
		<g>
			<rect x="122.8" y="32.2" width="2.5" height="0.5"/>
		</g>
		<g>
			<path d="M118,32.7h-4.8v-0.5h4.8V32.7z M108.4,32.7h-4.8v-0.5h4.8V32.7z M98.7,32.7h-4.8v-0.5h4.8V32.7z M89.1,32.7h-4.8v-0.5
				h4.8V32.7z M79.5,32.7h-4.8v-0.5h4.8V32.7z M69.9,32.7h-4.8v-0.5h4.8V32.7z M60.3,32.7h-4.8v-0.5h4.8V32.7z M50.7,32.7h-4.8v-0.5
				h4.8V32.7z"/>
		</g>
		<g>
			<rect x="38.6" y="32.2" width="2.5" height="0.5"/>
		</g>
	</g>
	<g>
		<g>
			<rect x="33.1" y="56.1" width="2.9" height="0.5"/>
		</g>
		<g>
			<rect x="27.7" y="56.1" width="2.5" height="0.5"/>
		</g>
	</g>
	<g>
		<g>
			<path d="M41.6,49.5h-0.5v-4.3h0.5V49.5z M41.6,40.8h-0.5v-4.3h0.5V40.8z"/>
		</g>
		<g>
			<rect x="41.1" y="29.6" width="0.5" height="2.5"/>
		</g>
	</g>
	<g>
		<g>
			<path d="M122.7,49.5h-0.5v-4.3h0.5V49.5z M122.7,40.8h-0.5v-4.3h0.5V40.8z"/>
		</g>
		<g>
			<rect x="122.2" y="29.6" width="0.5" height="2.5"/>
		</g>
	</g>
	<g>
		<g>
			<rect x="33.1" y="157.2" width="2.9" height="0.5"/>
		</g>
		<g>
			<rect x="27.7" y="157.2" width="2.5" height="0.5"/>
		</g>
	</g>
	<g>
		<path d="M81.4,157L81.4,157l1,0.1V157H81.4z"/>
	</g>
	<g>
		<path d="M123,56.4c0-0.1,0-0.3-0.1-0.3c0,0-0.1-0.1-0.1-0.2v-2h-0.5v1.5C119.5,52.4,107.9,42,81.9,42C56,42,44.4,52.4,41.6,55.3
			v-1.5h-0.5v2c0,0,0,0,0,0C41,56,41,56,41,56v0h-2.1v0.5h0v0h2v100.6h-2v0.5h0v0h2v0.3H123L123,56.4C123,56.4,123,56.4,123,56.4z
			 M81.9,43c25.2,0,36.6,9.9,39.4,12.8H42.5C45.3,52.9,56.7,43,81.9,43z M122,157H82.4v0.1h-1V157H41.9V56.9h39.6V157h1V56.9H122
			V157z"/>
		<path d="M75.9,109.4c-1.2,0-2.2,0.9-2.5,2h-6v1h6c0.2,1.2,1.3,2,2.5,2c1.4,0,2.5-1.1,2.5-2.5C78.4,110.5,77.3,109.4,75.9,109.4z
			 M75.9,113.4c-0.8,0-1.5-0.7-1.5-1.5c0-0.8,0.7-1.5,1.5-1.5c0.8,0,1.5,0.7,1.5,1.5C77.4,112.7,76.7,113.4,75.9,113.4z"/>
	</g>
	<g>
		<rect x="81.4" y="157" width="1" height="0.1"/>
	</g>
	<g>
		<g>
			<rect x="30.3" y="53.5" width="0.5" height="2.5"/>
		</g>
		<g>
			<path d="M30.8,153h-0.5v-4.8h0.5V153z M30.8,143.3h-0.5v-4.8h0.5V143.3z M30.8,133.6h-0.5v-4.8h0.5V133.6z M30.8,123.9h-0.5V119
				h0.5V123.9z M30.8,114.2h-0.5v-4.8h0.5V114.2z M30.8,104.5h-0.5v-4.8h0.5V104.5z M30.8,94.8h-0.5v-4.8h0.5V94.8z M30.8,85.1h-0.5
				v-4.8h0.5V85.1z M30.8,75.4h-0.5v-4.8h0.5V75.4z M30.8,65.7h-0.5v-4.8h0.5V65.7z"/>
		</g>
		<g>
			<rect x="30.3" y="157.8" width="0.5" height="2.5"/>
		</g>
	</g>
	<g>
		<g>
			<rect x="122.8" y="32.2" width="2.5" height="0.5"/>
		</g>
		<g>
			<path d="M118,32.7h-4.8v-0.5h4.8V32.7z M108.4,32.7h-4.8v-0.5h4.8V32.7z M98.7,32.7h-4.8v-0.5h4.8V32.7z M89.1,32.7h-4.8v-0.5
				h4.8V32.7z M79.5,32.7h-4.8v-0.5h4.8V32.7z M69.9,32.7h-4.8v-0.5h4.8V32.7z M60.3,32.7h-4.8v-0.5h4.8V32.7z M50.7,32.7h-4.8v-0.5
				h4.8V32.7z"/>
		</g>
		<g>
			<rect x="38.6" y="32.2" width="2.5" height="0.5"/>
		</g>
	</g>
</g>
</svg>
