<svg width="129" height="20" viewBox="0 0 129 20" fill="none" xmlns="http://www.w3.org/2000/svg">
<path d="M0.727356 19V0.964366H8.42425C9.28793 0.964366 10.0754 1.14218 10.7867 1.49782C11.5149 1.83651 12.1415 2.30222 12.6664 2.89494C13.1914 3.47073 13.5979 4.12272 13.8857 4.85092C14.1736 5.57912 14.3176 6.32425 14.3176 7.08632C14.3176 8.11935 14.072 9.10157 13.5809 10.033C13.1067 10.9644 12.4378 11.7265 11.5741 12.3192C10.7274 12.895 9.71977 13.1829 8.55127 13.1829H4.89333V19H0.727356ZM4.89333 9.55034H8.29724C8.619 9.55034 8.91536 9.4572 9.18632 9.27092C9.45728 9.08464 9.67743 8.80521 9.84678 8.43264C10.0161 8.06008 10.1008 7.60283 10.1008 7.06092C10.1008 6.50207 9.9992 6.04483 9.79598 5.68919C9.60969 5.31663 9.36414 5.04567 9.05931 4.87632C8.77142 4.70697 8.46659 4.6223 8.14483 4.6223H4.89333V9.55034ZM24.4543 19.1524C23.0995 19.1524 21.8717 18.8984 20.771 18.3903C19.6871 17.8654 18.7472 17.171 17.9513 16.3074C17.1723 15.4267 16.5711 14.4445 16.1477 13.3607C15.7244 12.2599 15.5127 11.1253 15.5127 9.95678C15.5127 8.75441 15.7328 7.6113 16.1731 6.52747C16.6304 5.44364 17.257 4.47835 18.0529 3.63161C18.8658 2.76793 19.8226 2.09053 20.9234 1.59942C22.0241 1.10831 23.2265 0.862757 24.5305 0.862757C25.8684 0.862757 27.0792 1.12525 28.163 1.65023C29.2638 2.15827 30.2037 2.8526 30.9827 3.73322C31.7786 4.61383 32.3883 5.60452 32.8117 6.70529C33.235 7.78912 33.4467 8.89835 33.4467 10.033C33.4467 11.2354 33.2266 12.3785 32.7862 13.4623C32.3459 14.5461 31.7194 15.5199 30.9065 16.3836C30.0936 17.2303 29.1368 17.9077 28.036 18.4157C26.9522 18.9069 25.7583 19.1524 24.4543 19.1524ZM19.7549 10.0076C19.7549 10.7019 19.8565 11.3793 20.0597 12.0398C20.2629 12.6833 20.5593 13.2591 20.9488 13.7671C21.3552 14.2752 21.8548 14.6816 22.4475 14.9864C23.0402 15.2913 23.7176 15.4437 24.4797 15.4437C25.2756 15.4437 25.97 15.2913 26.5627 14.9864C27.1554 14.6647 27.6465 14.2413 28.036 13.7163C28.4255 13.1913 28.7134 12.6071 28.8997 11.9636C29.1029 11.3031 29.2045 10.6342 29.2045 9.95678C29.2045 9.26245 29.1029 8.59352 28.8997 7.95C28.6965 7.30647 28.3917 6.73069 27.9852 6.22264C27.5788 5.69766 27.0792 5.29122 26.4865 5.00333C25.8938 4.71544 25.2248 4.57149 24.4797 4.57149C23.6838 4.57149 22.9894 4.72391 22.3967 5.02873C21.8209 5.33356 21.3298 5.74847 20.9234 6.27345C20.5339 6.78149 20.2375 7.36575 20.0343 8.02621C19.848 8.66973 19.7549 9.33019 19.7549 10.0076ZM35.854 19V0.964366H43.9827C44.8295 0.964366 45.6085 1.14218 46.3197 1.49782C47.0479 1.83651 47.6745 2.30222 48.1995 2.89494C48.7245 3.47073 49.1309 4.12272 49.4188 4.85092C49.7236 5.57912 49.876 6.31578 49.876 7.06092C49.876 7.80605 49.7575 8.51732 49.5204 9.19471C49.2833 9.85517 48.9446 10.4564 48.5043 10.9983C48.064 11.5233 47.539 11.9551 46.9294 12.2938L50.8921 19H46.2943L42.8396 13.1829H40.02V19H35.854ZM40.02 9.55034H43.8303C44.169 9.55034 44.4654 9.44874 44.7194 9.24552C44.9903 9.02536 45.2105 8.729 45.3798 8.35644C45.5492 7.98387 45.6339 7.55203 45.6339 7.06092C45.6339 6.56981 45.5323 6.14644 45.329 5.7908C45.1427 5.41824 44.9057 5.13034 44.6178 4.92713C44.3299 4.72391 44.025 4.6223 43.7033 4.6223H40.02V9.55034ZM66.3909 4.6223H60.904V19H56.738V4.6223H51.2257V0.964366H66.3909V4.6223ZM71.3104 0.964366H75.8066L82.0048 19H77.7372L76.3401 14.961H70.7262L69.3544 19H65.0869L71.3104 0.964366ZM75.6542 12.0906L73.5458 5.15575L71.3866 12.0906H75.6542ZM98.0063 19V8.25483L94.1197 16.0787H91.8335L87.9469 8.25483V19H83.781V0.964366H88.3026L92.9766 10.3886L97.676 0.964366H102.172V19H98.0063ZM105.636 19V0.964366H109.802V19H105.636ZM117.799 0.964366H122.295L128.493 19H124.225L122.828 14.961H117.214L115.843 19H111.575L117.799 0.964366ZM122.142 12.0906L120.034 5.15575L117.875 12.0906H122.142Z" fill="white"/>
</svg>
