<svg width="913" height="919" viewBox="0 0 913 919" fill="none" xmlns="http://www.w3.org/2000/svg">
<path d="M663.961 505.45C698.186 505.45 728.303 486.611 743.819 458.122L907.185 159.906C924.069 129.579 902.165 91.9 867.484 91.9H192.115L149.22 0H0V91.9H91.2661L255.545 440.661L193.94 552.778C160.628 614.351 204.436 689.25 273.798 689.25H821.395V597.35H273.798L323.995 505.45H663.961ZM235.467 183.8H789.908L663.961 413.55H343.617L235.467 183.8ZM273.798 735.2C223.602 735.2 182.989 776.555 182.989 827.1C182.989 877.645 223.602 919 273.798 919C323.995 919 365.064 877.645 365.064 827.1C365.064 776.555 323.995 735.2 273.798 735.2ZM730.129 735.2C679.932 735.2 639.319 776.555 639.319 827.1C639.319 877.645 679.932 919 730.129 919C780.325 919 821.395 877.645 821.395 827.1C821.395 776.555 780.325 735.2 730.129 735.2Z" fill="#E0E0EA"/>
</svg>
