<svg width="1098" height="1125" viewBox="0 0 1098 1125" fill="none" xmlns="http://www.w3.org/2000/svg">
<path d="M883.781 608.437C885.656 593.437 887.063 578.437 887.063 562.5C887.063 546.562 885.656 531.563 883.781 516.563L982.688 439.219C991.594 432.187 993.938 419.531 988.313 409.219L894.563 247.031C890.344 239.531 882.375 235.312 873.938 235.312C871.125 235.312 868.313 235.781 865.969 236.719L749.25 283.594C724.875 264.844 698.625 249.375 670.031 237.656L652.219 113.437C650.813 102.187 640.969 93.75 629.25 93.75H441.75C430.031 93.75 420.188 102.187 418.781 113.437L400.969 237.656C372.375 249.375 346.125 265.312 321.75 283.594L205.031 236.719C202.219 235.781 199.406 235.312 196.594 235.312C188.625 235.312 180.656 239.531 176.438 247.031L82.6875 409.219C76.5937 419.531 79.4062 432.187 88.3125 439.219L187.219 516.563C185.344 531.563 183.937 547.031 183.937 562.5C183.937 577.969 185.344 593.437 187.219 608.437L88.3125 685.781C79.4062 692.812 77.0625 705.469 82.6875 715.781L176.438 877.969C180.656 885.469 188.625 889.687 197.063 889.687C199.875 889.687 202.687 889.219 205.031 888.281L321.75 841.406C346.125 860.156 372.375 875.625 400.969 887.344L418.781 1011.56C420.188 1022.81 430.031 1031.25 441.75 1031.25H629.25C640.969 1031.25 650.813 1022.81 652.219 1011.56L670.031 887.344C698.625 875.625 724.875 859.688 749.25 841.406L865.969 888.281C868.781 889.219 871.594 889.687 874.406 889.687C882.375 889.687 890.344 885.469 894.563 877.969L988.313 715.781C993.938 705.469 991.594 692.812 982.688 685.781L883.781 608.437V608.437ZM790.969 528.281C792.844 542.813 793.313 552.656 793.313 562.5C793.313 572.344 792.375 582.656 790.969 596.719L784.406 649.687L826.125 682.5L876.75 721.875L843.938 778.594L784.406 754.688L735.656 735L693.469 766.875C673.313 781.875 654.094 793.125 634.875 801.094L585.188 821.25L577.688 874.219L568.313 937.5H502.688L493.781 874.219L486.281 821.25L436.594 801.094C416.438 792.656 397.687 781.875 378.937 767.812L336.281 735L286.594 755.156L227.063 779.063L194.25 722.344L244.875 682.969L286.594 650.156L280.031 597.187C278.625 582.656 277.687 571.875 277.687 562.5C277.687 553.125 278.625 542.344 280.031 528.281L286.594 475.313L244.875 442.5L194.25 403.125L227.063 346.406L286.594 370.312L335.344 390L377.531 358.125C397.688 343.125 416.906 331.875 436.125 323.906L485.813 303.75L493.313 250.781L502.688 187.5H567.844L576.75 250.781L584.25 303.75L633.938 323.906C654.094 332.344 672.844 343.125 691.594 357.187L734.25 390L783.938 369.844L843.469 345.937L876.281 402.656L826.125 442.5L784.406 475.313L790.969 528.281ZM535.5 375C431.906 375 348 458.906 348 562.5C348 666.094 431.906 750 535.5 750C639.094 750 723 666.094 723 562.5C723 458.906 639.094 375 535.5 375ZM535.5 656.25C483.938 656.25 441.75 614.062 441.75 562.5C441.75 510.937 483.938 468.75 535.5 468.75C587.063 468.75 629.25 510.937 629.25 562.5C629.25 614.062 587.063 656.25 535.5 656.25Z" fill="#E0E0EA"/>
</svg>
