<svg width="463" height="302" viewBox="0 0 463 302" fill="none" xmlns="http://www.w3.org/2000/svg">
<path d="M1 319V227.5V131V71V11V1H462.5V10.5V131V319M115.5 6.5V65H7V6.5H115.5ZM120.5 6.5L120.5 65H229L229 6.5H120.5ZM7 70.2014V128.5H115.5V70H7V70.2014ZM120.5 70.2014V128.5H229V70H120.5V70.2014ZM7 133.701V192H115.5V133.5H7V133.701ZM120.5 133.701V192H229V133.5H120.5V133.701ZM7 196.701V255H115.5V196.5H7V196.701ZM120.5 196.701V255H229V196.5H120.5V196.701ZM7 260.701V319H115.5V260.5H7V260.701ZM120.5 260.701V319H229V260.5H120.5V260.701ZM343.5 6.5V65H235V6.5H343.5ZM348.5 6.5V65H457V6.5H348.5ZM235 70.2014V128.5H343.5V70H235V70.2014ZM348.5 70.2014V128.5H457V70H348.5V70.2014ZM235 133.701V192H343.5V133.5H235V133.701ZM348.5 133.701V192H457V133.5H348.5V133.701ZM235 196.701V255H343.5V196.5H235V196.701ZM348.5 196.701V255H457V196.5H348.5V196.701ZM235 260.701V319H343.5V260.5H235V260.701ZM348.5 260.701V319H457V260.5H348.5V260.701Z" stroke="#ABABAB"/>
</svg>
