<svg width="89" height="89" viewBox="0 0 89 89" fill="none" xmlns="http://www.w3.org/2000/svg">
<g id="box-iso">
<path id="Vector" d="M9.99548 26.646L43.3705 41.4794L45.6296 36.3962L12.2546 21.5629L9.99548 26.646ZM47.2813 79.7294V38.9377H41.7188V79.7294H47.2813ZM45.6296 41.4794L79.0046 26.646L76.7455 21.5629L43.3705 36.3962L45.6296 41.4794Z" fill="white"/>
<path id="Vector_2" d="M11.125 63.4501V25.5503C11.125 24.671 11.6428 23.8742 12.4464 23.5171L43.5963 9.6726C44.1718 9.41691 44.8282 9.41691 45.4037 9.6726L76.5537 23.5171C77.3573 23.8742 77.875 24.671 77.875 25.5503V63.4501C77.875 64.3294 77.3573 65.1263 76.5537 65.4834L45.4037 79.3277C44.8282 79.5832 44.1718 79.5832 43.5963 79.3277L12.4464 65.4834C11.6428 65.1263 11.125 64.3294 11.125 63.4501Z" stroke="white" stroke-width="3" stroke-linecap="round" stroke-linejoin="round"/>
<path id="Vector_3" d="M27.8125 16.6875L59.8662 30.9336C60.6698 31.2907 61.1875 32.0875 61.1875 32.9668V46.3542" stroke="white" stroke-width="3" stroke-linecap="round" stroke-linejoin="round"/>
</g>
</svg>
