<svg width="89" height="89" viewBox="0 0 89 89" fill="none" xmlns="http://www.w3.org/2000/svg">
<g id="media-image-list">
<path id="Vector" d="M77.875 28.1834V75.65C77.875 76.879 76.879 77.875 75.65 77.875H28.1834C26.9545 77.875 25.9584 76.879 25.9584 75.65V28.1834C25.9584 26.9545 26.9545 25.9584 28.1834 25.9584H75.65C76.879 25.9584 77.875 26.9545 77.875 28.1834Z" stroke="white" stroke-width="3" stroke-linecap="round" stroke-linejoin="round"/>
<path id="Vector_2" d="M66.75 14.8334H17.0584C15.8295 14.8334 14.8334 15.8295 14.8334 17.0584V66.75" stroke="white" stroke-width="3" stroke-linecap="round" stroke-linejoin="round"/>
<path id="Vector_3" d="M25.9584 62.3L46.148 55.625L77.875 66.75" stroke="white" stroke-width="3" stroke-linecap="round" stroke-linejoin="round"/>
<path id="Vector_4" d="M61.1875 48.2084C58.1155 48.2084 55.625 45.7179 55.625 42.6459C55.625 39.5739 58.1155 37.0834 61.1875 37.0834C64.2595 37.0834 66.75 39.5739 66.75 42.6459C66.75 45.7179 64.2595 48.2084 61.1875 48.2084Z" stroke="white" stroke-width="3" stroke-linecap="round" stroke-linejoin="round"/>
</g>
</svg>
