<svg width="463" height="302" viewBox="0 0 463 302" fill="none" xmlns="http://www.w3.org/2000/svg">
<path d="M1 319V227.5V131V71V11V1H462.5V10.5V131V319M115.5 6.5H7M7 6.5H457V34.5M7 6.5V34.5M120.5 6.5H229M7 128.5V70.2014V70M7 192V133.701V133.5M7 255V196.701V196.5M7 260.5V260.701V319V314.5M343.5 6.5H235M457 332.5V314.5M457 192V133.5M457 255V196.5M457 319V260.5M457 34.5H7M457 34.5V314.5M7 34.5V314.5M7 314.5H457M7 62.5H457M457 90H7M457 117H7M7 145H457M457 172.5H7M7 200.5H457M457 231H7M7 259H457M457 286.5H7" stroke="#ABABAB"/>
</svg>
