<svg width="189" height="302" viewBox="0 0 189 302" fill="none" xmlns="http://www.w3.org/2000/svg">
<path d="M1 302V1H188V302M174.5 302V15H14.5V302M171 302V267.5V184.5V154V42V18H149M18 302V236V209.25V116.5V86.5V18H40M40 18H149M40 18V42M40 302V260M149 18V42M149 302V260M149 44H40M149 44V260M149 44V42M40 44V260M40 44V42M40 260H149M149 42H40M149 498H40M149 280H40M149 280V496H40V280M149 280V262H40V280M149 278H40M135 56V246H56V56H135ZM133 58V244H58V58H133ZM135 292V482H56V292H135ZM133 294V480H58V294H133Z" stroke="#ABABAB"/>
</svg>
