<svg width="85" height="111" viewBox="0 0 85 111" fill="none" xmlns="http://www.w3.org/2000/svg">
<path d="M84.5 6V0.5H0.5V6M84.5 6H57H28.5H0.5M84.5 6V33V37V68.5V72V110H78.5M0.5 6V13.5M58.5 110H65M58.5 110H54M58.5 110V33H54V110M28.5 110H35.5M28.5 110V13.5H0.5M28.5 110H21.5M0.5 33V37V68.5V72V110H7M0.5 33V26.5M0.5 33H7V110M78.5 110V13.5H35.5V110M78.5 110H71.5M35.5 110H42M0.5 13.5V20M0.5 20H21.5V110M0.5 20V26.5M21.5 110H14M0.5 26.5H14V110M14 110H7M71.5 110V20H42V110M71.5 110H65M42 110H48M48 110V26.5H65V110M48 110H54" stroke="white" stroke-opacity="0.4"/>
</svg>
