<svg width="98" height="110" viewBox="0 0 98 110" fill="none" xmlns="http://www.w3.org/2000/svg">
<path d="M7.5 5H1V1H97.5V5H91.5M7.5 5H35.5M7.5 5V32M91.5 5H64M91.5 5V32M64 5H35.5M64 5V32M64 109H91.5V71M64 109H35.5M64 109V71M35.5 5V32M35.5 109H7.5V71M35.5 109V71M91.5 32H64M91.5 32V36M64 32V36M35.5 32C34.3 32 16.3333 32 7.5 32M35.5 32V36M7.5 32V36M7.5 36H35.5M7.5 36V67.5M35.5 36V67.5M64 36H91.5M64 36V67.5M91.5 36V67.5M91.5 67.5H64M91.5 67.5V71M64 67.5V71M64 71H91.5M35.5 67.5H7.5M35.5 67.5V71M7.5 67.5V71M35.5 71H7.5" stroke="white" stroke-opacity="0.4"/>
</svg>
