<svg width="86" height="111" viewBox="0 0 86 111" fill="none" xmlns="http://www.w3.org/2000/svg">
<path d="M85 6.5V1H1V6.5M85 6.5H57.5H50.5M85 6.5V33.5V37.5V69V72.5V110.5H50.5M1 6.5H29H50.5M1 6.5V14V20.5V27V33.5V37.5V69V72.5V110.5M1 6.5L10 7.59615M1 110.5H7.5H14.5H22H29H36H42.5H48.5H50.5M1 110.5L10 109.115M50.5 6.5V110.5M50.5 6.5L42.5 7.52128M50.5 110.5L42.5 109.138M27 9.5V106.5M27 9.5L20 8.69231M27 9.5L34.5 8.54255M27 106.5L20 107.577M27 106.5L34.5 107.777M20 8.69231V107.577M20 8.69231L10 7.59615M20 107.577L10 109.115M10 7.59615V109.115M34.5 8.54255V107.777M34.5 8.54255L42.5 7.52128M34.5 107.777L42.5 109.138M42.5 7.52128V109.138" stroke="white" stroke-opacity="0.4"/>
</svg>
