<svg width="99" height="111" viewBox="0 0 99 111" fill="none" xmlns="http://www.w3.org/2000/svg">
<path d="M98 19.9132V1H73.8943M98 19.9132V33.3516V37.3333V68.6895V72.1735V110H66.244M98 19.9132H76H73.8943M1 19.9132V1H25.3943M1 19.9132V13.9406V20.411V26.8813V33.3516V37.3333V68.6895V72.1735V110H7.25M1 19.9132H7.25M66.244 19.9132H49.7887M66.244 19.9132H73.8943M66.244 19.9132V110M33.3333 19.9132H49.7887M33.3333 19.9132V110M33.3333 19.9132H26.5M49.7887 19.9132V1M49.7887 1H25.3943M49.7887 1H73.8943M25.3943 1V19.9132M25.3943 19.9132H23H20.5M25.3943 19.9132H26.5M73.8943 1V19.9132M66.244 110H33.3333M33.3333 110H26.5M13.5 19.9132V110M13.5 19.9132H7.25M13.5 19.9132H20.5M13.5 110H7.25M13.5 110H20.5M7.25 19.9132V110M20.5 19.9132V110M20.5 110H23H26.5M26.5 19.9132V110M72.2441 19.9141V110.001M78.2441 19.9141V110.001M85.2441 19.9141V110.001M91.2441 19.9141V110.001" stroke="white" stroke-opacity="0.4"/>
</svg>
