<svg width="99" height="114" viewBox="0 0 99 114" fill="none" xmlns="http://www.w3.org/2000/svg">
<path d="M98 19.9132V1H73.8943M98 19.9132H76H73.8943M98 19.9132L91.5 18.8675M98 19.9132V20.411M1 19.9132V1H11M1 19.9132V13.9406V20.411M1 19.9132H7.25H11M98 110V72.1735V68.6895V37.3333V33.3516V20.411M98 110H67.5M98 110L91.5 111.3M1 20.411V26.8813V33.3516V37.3333V68.6895V72.1735V110H7.25H13.5H20.5H23H26.5H33.3333H38M1 20.411H98M49.7887 19.9132H66.244H67.5M49.7887 19.9132V1M49.7887 19.9132H38M49.7887 1H25.3943M49.7887 1H73.8943M25.3943 1V19.9132M25.3943 1H15M25.3943 19.9132H23H20.5H15M25.3943 19.9132H26.5H33.3333H38M73.8943 1V19.9132M73.8943 19.9132H67.5M15 1V19.9132M15 1H11M15 19.9132H13.5H11M11 1V19.9132M88.5 1V19.9132M36.5 1V19.9132M40.5 1V19.9132M64 1V19.9132M84.5 1V19.9132M60.5 1V18.7482M60.5 19.9132V18.7482M38 19.9132V110M38 19.9132L45.5 18.7066M38 110H66.244H67.5M38 110L45.5 111.5M67.5 110V19.9132M67.5 110L62 111.138M67.5 110L74.9827 111.448M67.5 19.9132L62 18.9979M67.5 19.9132L74.9827 18.7482M83 17.5V113M83 17.5L76.5 18.512M83 17.5L90.2271 18.6627M53 17.5V113M53 17.5L47 18.4653M53 17.5L60.5 18.7482M53 113L47 111.8M53 113L60.5 111.448M83 113L76.5 111.742M83 113L90.2271 111.555M47 18.4653V111.8M47 18.4653L45.5 18.7066M47 111.8L45.5 111.5M45.5 18.7066V111.5M62 111.138V18.9979M62 111.138L60.5 111.448M62 18.9979L60.5 18.7482M60.5 18.7482V111.448M76.5 18.512V111.742M76.5 18.512L74.9827 18.7482M76.5 111.742L74.9827 111.448M74.9827 111.448V18.7482M91.5 18.8675V111.3M91.5 18.8675L90.2271 18.6627M91.5 111.3L90.2271 111.555M90.2271 111.555V18.6627" stroke="white" stroke-opacity="0.4"/>
</svg>
