<svg width="98" height="114" viewBox="0 0 98 114" fill="none" xmlns="http://www.w3.org/2000/svg">
<path d="M97 5.32618V10.6379V36.7135V40.5765V70.9981V74.3783V111.077M97 5.32618H61.5M97 5.32618V1H1V5.32618M97 5.32618L80 3.51025M1 5.32618V10.6379V17.8811V24.1586V30.436V36.7135V40.5765V70.9981V74.3783V111.077M1 5.32618H19.25M1 5.32618L18 3.53513M1 111.077H8.42857H16.4286H25H33H37.5M1 111.077L18 112.868M97 111.077H61.5M97 111.077L79 113M37.5 5.32618V111.077M37.5 5.32618H61.5M37.5 5.32618H19.25M37.5 5.32618L20.3658 3.52099M37.5 111.077H41H48.4286H55.2857H57.5714H61.5M37.5 111.077L20.3658 112.882M61.5 5.32618V111.077M61.5 5.32618L77.9358 3.52035M61.5 111.077L77.9358 112.883M79 3.40343V113M79 3.40343L80 3.51025M79 3.40343L77.9358 3.52035M79 113L77.9358 112.883M19.25 5.32618V3.40343M19.25 3.40343V113M19.25 3.40343L20.3658 3.52099M19.25 3.40343L18 3.53513M19.25 113L20.3658 112.882M19.25 113L18 112.868M80 3.51025V113M77.9358 3.52035V112.883M20.3658 3.52099V112.882M18 3.53513V112.868" stroke="white" stroke-opacity="0.4"/>
</svg>
