<svg width="86" height="111" viewBox="0 0 86 111" fill="none" xmlns="http://www.w3.org/2000/svg">
<path d="M29 110.5H25M54.5 110.5H49M70.5 1H85V6.5V17.25V26.5M70.5 1H66.5H49M70.5 1V15H72.5M18.5 110.5H25M57.5 1H49M85 15H72.5M72.5 15V26.5M72.5 110.5H76H79H85V99M72.5 110.5H72H66.5H59H49M72.5 110.5V99M72.5 26.5H85M72.5 26.5V41.5V56.5M85 26.5V33.5V37.5V56.5M72.5 99H85M72.5 99V83V67M85 99V92.5V72.5V69V67M72.5 56.5H85M72.5 56.5V67M85 56.5V67M72.5 67H85M49 1V15M49 1H43M49 110.5V99M49 110.5H43M25 1H13M25 1H31M25 1V26.5M25 110.5H22H14.5H13M25 110.5V99M25 110.5H31M49 15H43M49 15V26.5M1 15V1H13M1 15V26.5M1 15H7M13 1V15M13 15H7M13 15H19M37 1V15M37 1H43M37 1H31M37 15H43M37 15H31M37 15V110.5M43 1V15M43 15V110.5M31 1V15M31 15H19M31 15V110.5M37 110.5H43M37 110.5H31M13 110.5H7.5H1V99M13 110.5V99M25 26.5H19M25 26.5V41.5M25 26.5H49M13 26.5H7M13 26.5H19M13 26.5V41.5M1 26.5H7M1 26.5V41.5M7 26.5V15M19 26.5V15M25 41.5V56.5M25 41.5H19M25 41.5H49M13 41.5H19M13 41.5H7M1 41.5H7M1 41.5V67M25 56.5H19M25 56.5H13M25 56.5V67M25 56.5H49M1 56.5H7M19 41.5V56.5M19 56.5H13M7 41.5V56.5M7 56.5H13M13 56.5V83M25 99H19M25 99V83M25 99H49M1 99V83M1 99H7M13 99H19M13 99H7M19 99V83M25 83H19M25 83V67M25 83H49M1 83H7M1 83V67M13 83H19M13 83H7M7 83V99M25 67H1M25 67H49M49 26.5V41.5M49 41.5V56.5M49 56.5V67M49 67V83M49 83V99" stroke="white" stroke-opacity="0.4"/>
</svg>
