<svg width="99" height="115" viewBox="0 0 99 115" fill="none" xmlns="http://www.w3.org/2000/svg">
<path d="M25.3943 1H49.7887H73.8943M25.3943 1H13M25.3943 1L35.4472 2.5M25.3943 1V19.9132M73.8943 1H92.8783M73.8943 1L63.6972 2.5M73.8943 1V19.9132M26.5 110H25.3943M25.3943 110H23H20.5H13.5H13M25.3943 110L35.4472 111.75M25.3943 110V19.9132M73.8943 110H92.8783M73.8943 110L63.6972 111.75M73.8943 110V19.9132M4 1H1V19.9132V13.9406V20.411V26.8813V33.3516V37.3333V68.6895V72.1735V110H4M4 1V110M4 1H7M4 110H7M7 1V110M7 1H10M7 110H7.25H10M10 1V110M10 1H13M10 110H13M13 1V110M95.5 1H98V19.9132V33.3516V37.3333V68.6895V72.1735V110H95.5M95.5 1V110M95.5 1H92.8783M95.5 110H92.8783M92.8783 1V110M87 1V110M90 1V110M16 1V110M84 1V110M19 1V110M81 1V110M63.6972 2.5L53.5 4V24M63.6972 2.5V111.75M63.6972 111.75L53.5 113.5V24M35.4472 2.5L45.5 4V24M35.4472 2.5V111.75M35.4472 111.75L45.5 113.5V24M73.8943 19.9132L53.5 24M45.5 24L25.3943 19.9132M73.8943 50.2397L53.5 54.3265M45.5 54.3265L25.3943 50.2397M73.8945 82.9132L53.5002 87M45.5002 87L25.3945 82.9132" stroke="white" stroke-opacity="0.4"/>
</svg>
