<svg width="86" height="111" viewBox="0 0 86 111" fill="none" xmlns="http://www.w3.org/2000/svg">
<path d="M29 110.5H22H14.5H7.5H1V92.5M66.5 110.5H72H76M66.5 110.5H59H18.5M66.5 110.5V92.5M54.5 110.5H18.5M76 1H85V6.5V17.25M76 1H66.5M76 1V17.25M76 110.5H79H85V92.5M76 110.5V92.5M66.5 1H18.5M66.5 1V17.25M18.5 1H57.5V17.25M18.5 1H1V6.5V14V17.25M18.5 1V17.25M18.5 110.5V92.5M57.5 110.5V92.5M28 1V17.25M28 110.5V92.5M9 1V17.25M9 110.5V92.5M1 17.25V20.5V27V33.5V37.5V69V72.5V92.5M1 17.25H9M9 17.25V21.5M18.5 17.25H28M18.5 17.25V21.5M28 17.25V92.5M57.5 17.25H66.5M57.5 17.25V92.5M66.5 17.25V21.5M76 17.25H85M76 17.25V21.5M85 17.25V33.5V37.5V69V72.5V92.5M76 21.5H66.5M76 21.5V87.5M66.5 21.5V87.5M18.5 21.5H9M18.5 21.5V87.5M9 21.5V87.5M76 87.5H66.5M76 87.5V92.5M66.5 87.5V92.5M18.5 87.5H9M18.5 87.5V92.5M9 87.5V92.5M18.5 92.5H28M9 92.5H1M66.5 92.5H57.5M76 92.5H85" stroke="white" stroke-opacity="0.4"/>
</svg>
