<svg width="99" height="115" viewBox="0 0 99 115" fill="none" xmlns="http://www.w3.org/2000/svg">
<path d="M98 11.5V1H85.875M98 11.5H85.875M98 11.5V12M1 11.5V1H13.125M1 11.5V13.9406V11.9977M1 11.5H7.25H13.125M66.244 11.5H61.625M1 11.9977L25.3943 11.9983M1 11.9977V21.5M25.3943 11.5H33.3333H37.375M25.3943 11.5H25.25M25.3943 11.5V11.9983M51.5 11.5H61.625M73.75 110V11.9994M73.75 110H74.5M73.75 110L72 110.393M25.3943 110V11.9983M25.3943 110H24.5M25.3943 110L27 110.363M13.125 11.5V110M13.125 11.5H20.5H23H24.5M13.125 11.5V1M13.125 110H7.25H1V72.1735V68.6895V37.3333V33.3516V41.5M13.125 110H20.5H23H24.5M73.75 11.5V1M73.75 11.5H61.625M73.75 11.5V11.9994M73.75 11.5H74.5M85.875 11.5V110M85.875 11.5H76H74.5M85.875 11.5V1M49.5 1V11.5M49.5 1H61.625M49.5 1H37.375M49.5 11.5H39.5H37.375M49.5 11.5H61.625M73.75 1H85.875M73.75 1H61.625M25.25 1V11.5M25.25 1H37.375M25.25 1H13.125M25.25 11.5H24.5M61.625 1V11.5M37.375 1V11.5M98 12V33.3516V37.3333V68.6895V72.1735V110H74.5M98 12L73.75 11.9994M73.75 11.9994L25.3943 11.9983M73.75 11.9994L72 12.3534M55.0237 15.7872V110M55.0237 15.7872V114.208M55.0237 15.7872L59.037 14.9755M55.0237 114.208V110M55.0237 114.208L59.037 113.306M25.3943 11.9983L27 12.3253M44 15.7872V110M44 15.7872V114.208M44 15.7872L40.0138 14.9755M44 114.208V110M44 114.208L40.0138 113.307M55.0237 110H44M74.5 11.5V110M24.5 11.5V21.5M24.5 110V41.5M1 21.5V26.8813V41.5M1 21.5H24.5M24.5 21.5V41.5M1 41.5H24.5M1 31.5H24.5M1 100H24.5M1 51.5H24.5M1 61.5H24.5M1 71.5H24.5M1 81H24.5M1 91H24.5M74 21.5H97.5M74 41.5H97.5M74 31.5H97.5M74 100H97.5M74 51.5H97.5M74 61.5H97.5M74 71.5H97.5M74 81H97.5M74 91H97.5M40.0138 14.9755V113.307M40.0138 14.9755L36.5 14.2599M40.0138 113.307L36.5 112.512M36.5 14.2599V112.512M36.5 14.2599L33 13.5471M36.5 112.512L33 111.72M33 13.5471V111.72M33 13.5471L29.7381 12.8829M33 111.72L29.7381 110.982M29.7381 12.8829V110.982M29.7381 12.8829L27 12.3253M29.7381 110.982L27 110.363M27 12.3253V110.363M59.037 14.9755V113.306M59.037 14.9755L62.5 14.275M59.037 113.306L62.5 112.528M62.5 14.275V112.528M62.5 14.275L65.5 13.6682L66.1279 13.5412M62.5 112.528L65.5 111.854L66.1279 111.713M66.1279 13.5412V111.713M66.1279 13.5412L69.1674 12.9264M66.1279 111.713L69.1674 111.03M69.1674 12.9264V111.03M69.1674 12.9264L72 12.3534M69.1674 111.03L72 110.393M72 12.3534V110.393" stroke="white" stroke-opacity="0.4"/>
</svg>
