<svg width="161" height="298" viewBox="0 0 161 298" fill="none" xmlns="http://www.w3.org/2000/svg">
<path d="M82 296.5H79V290.5H67V287.5L20.5 287.5L14.5 290.5H4V296.5H1V272.5H4V239.5L67.8781 191V129L85 116.5H92L99 115H140.512L146 116.5H157V178V208.209L156.965 208.238L160 208.209V226L82 296.5Z" fill="#575757"/>
<path d="M79 239.5V272.5M79 239.5H54.25M79 239.5L140.512 191M4 239.5V272.5M4 239.5H28M4 239.5L67.8781 191M79 272.5V287.5L67 287.5M79 272.5H82M79 272.5L156.965 208.238M82 272.5V288.25V296.5M82 272.5L160 208.209M82 296.5H79V290.5H67V287.5M82 296.5L160 226V208.209M160 208.209L156.965 208.238M156.965 208.238L157 208.209V178V116.5M4 272.5V287.5L14.5 287.5M4 272.5H1V296.5H4V290.5H14.5M14.5 290.5V287.5M14.5 290.5L20.5 287.5M14.5 287.5L20.5 287.5M20.5 287.5L67 287.5M54.25 239.5V244.75H56.5V249.625M54.25 239.5L107.5 197.125M54.25 252.25V259H28M54.25 252.25H56.5V249.625M54.25 252.25L56.5 249.625M28 239.5V244.75M28 239.5L90.6951 191M28 244.75H25V252.25M28 244.75L105.625 184.75M25 252.25H28M25 252.25L105.625 188.5M28 252.25V259M28 252.25L107.5 188.5M28 259L107.5 197.125M105.625 188.5V184.75M105.625 188.5H107.5M105.625 184.75L107.5 183.25V178V116.5M107.5 188.5V197.125M107.5 197.125L115.426 191M115.426 191V129M115.426 191H140.512M115.426 129L132.25 116.5M115.426 129H140.512M132.25 116.5H146M132.25 116.5H107.5M140.512 191V129M140.512 129L157 116.5M157 116.5H146M90.6951 191V129M90.6951 191H67.8781M90.6951 129H67.8781M90.6951 129L107.5 116.5M67.8781 191V129M67.8781 129L85 116.5H92M107.5 116.5H92M92 116.5L99 115H140.512L146 116.5" stroke="white" stroke-opacity="0.1" stroke-width="2"/>
<path d="M54.25 259H28V100L57.5691 39.9693L107.875 1H132.25V38.125L131.5 116L115 128V190.5L109.5 194.936L54.25 239.5V245.125H56.125V249.625L54.25 251.5V259Z" fill="#FFDCB4" fill-opacity="0.5"/>
<path d="M28 259H54.25V251.5M28 259V100M28 259L109.5 194.936L107.875 38.125V1M28 100H54.25M28 100L57.5691 39.9693M54.25 100V239.5M54.25 100L83.125 39.9693M132.25 1V38.125L131.5 116L115 128V190.5L54.25 239.5M132.25 1H107.875M132.25 1L83.125 39.9693M107.875 1L57.5691 39.9693M54.25 239.5V245.125M83.125 39.9693H57.5691M54.25 251.5L56.125 249.625V245.125H54.25M54.25 251.5V245.125" stroke="white" stroke-opacity="0.1" stroke-width="2"/>
</svg>
