<svg width="787" height="850" viewBox="0 0 787 850" fill="none" xmlns="http://www.w3.org/2000/svg">
<path d="M126.504 -34L777.005 -34L777.005 925.5L760 925.5L560.005 925.5L543.005 925.5L343.003 925.5L326.003 925.5L126.504 925.5L109.504 925.5L-12.5 925.5L-12.5 910L-16.9965 745.5L-16.9965 730L-17.0108 530L-17.0108 513.841L-21.3234 314.5L-21.6588 299L-25.9965 98.5L-16.9965 83L-25.9965 -17.5L-25.9965 -34L126.504 -34Z" fill="#2B2B2B"/>
<path d="M760.005 514.5L760.005 -17.5L553.005 -17.5L539.505 -17.5L-25.9965 -17.5M760.005 514.5L760.005 98.5M760.005 514.5L-16.9965 514.5L-17.0108 513.841M760.005 98.5L760 910L-12.5 910M760.005 98.5L-25.9965 98.5M-25.9965 98.5L-16.9965 83M-25.9965 98.5L-21.6588 299M-25.9965 -17.5L-25.9965 -34L777.005 -34L777.005 925.5L760 925.5L-12.5 925.5M-25.9965 -17.5L-16.9965 83M560.005 -34L560.005 925.5M543.005 -17.5L543.005 84L543.005 99.5L543.005 925.5M343.003 -34L343.003 925.5M326.003 -17.5L326.003 84L326.003 99.5L326.003 925.5M126.504 -34L126.504 925.5M109.504 -17.5L109.504 84L109.504 99.5L109.504 925.5M760.005 83L-16.9965 83M760.005 314.5L-21.3234 314.5M760.005 299L-16.9965 299L-21.6588 299M760.005 530L-17.0108 530M-25.9966 530L-17.0108 530M760.005 730L-16.9965 730M-16.9965 730L-17.0108 530M-16.9965 730L-16.9965 745.5M760.005 745.5L-16.9965 745.5M-25.9966 745.5L-16.9965 745.5M-16.9999 910L-12.5 910M-26 925.5L-12.5 925.5M-21.6588 299L-21.3234 314.5M-21.3234 314.5L-17.0108 513.841M-17.0108 513.841L-17.0108 530M-16.9965 745.5L-12.5 910M-12.5 910L-12.5 925.5" stroke="#2B2B2B"/>
<rect x="343.5" y="99" width="199" height="199.5" fill="#E3E3E3"/>
<path d="M343.5 99L353.5 110.028V298.5H343.5V99Z" fill="#616474"/>
<path d="M343.5 99L353.5 110L542.5 110V99L343.5 99Z" fill="#414451"/>
<rect x="126" y="99" width="199" height="199.5" fill="#E3E3E3"/>
<path d="M126 99L136 110.028V298.5H126V99Z" fill="#616474"/>
<path d="M126 99L136 110L325 110V99L126 99Z" fill="#414451"/>
<rect x="-91" y="99" width="199" height="199.5" fill="#E3E3E3"/>
<path d="M-91 99L-81 110L108 110V99L-91 99Z" fill="#414451"/>
<rect x="561" y="99" width="199" height="199.5" fill="#E3E3E3"/>
<path d="M561 99L571 110.028V298.5H561V99Z" fill="#616474"/>
<path d="M561 99L571 110L760 110V99L561 99Z" fill="#414451"/>
<rect x="343.5" y="-119" width="199" height="199.5" fill="#E3E3E3"/>
<path d="M343.5 -119L353.5 -107.972V80.5H343.5V-119Z" fill="#616474"/>
<rect x="126" y="-119" width="199" height="199.5" fill="#E3E3E3"/>
<path d="M126 -119L136 -107.972V80.5H126V-119Z" fill="#616474"/>
<rect x="-91" y="-119" width="199" height="199.5" fill="#E3E3E3"/>
<rect x="561" y="-119" width="199" height="199.5" fill="#E3E3E3"/>
<path d="M561 -119L571 -107.972V80.5H561V-119Z" fill="#616474"/>
<rect x="343.5" y="317" width="199" height="199.5" fill="#E3E3E3"/>
<path d="M343.5 317L353.5 328.028V516.5H343.5V317Z" fill="#616474"/>
<path d="M343.5 317L353.5 328H542.5V317H343.5Z" fill="#414451"/>
<rect x="126" y="317" width="199" height="199.5" fill="#E3E3E3"/>
<path d="M126 317L136 328.028V516.5H126V317Z" fill="#616474"/>
<path d="M126 317L136 328H325V317H126Z" fill="#414451"/>
<rect x="-91" y="317" width="199" height="199.5" fill="#E3E3E3"/>
<path d="M-91 317L-81 328H108V317H-91Z" fill="#414451"/>
<rect x="561" y="317" width="199" height="199.5" fill="#E3E3E3"/>
<path d="M561 317L571 328.028V516.5H561V317Z" fill="#616474"/>
<path d="M561 317L571 328H760V317H561Z" fill="#414451"/>
<rect x="343.5" y="535" width="199" height="199.5" fill="#E3E3E3"/>
<path d="M343.5 535L353.5 546.028V734.5H343.5V535Z" fill="#616474"/>
<path d="M343.5 535L353.5 546H542.5V535H343.5Z" fill="#414451"/>
<rect x="126" y="535" width="199" height="199.5" fill="#E3E3E3"/>
<path d="M126 535L136 546.028V734.5H126V535Z" fill="#616474"/>
<path d="M126 535L136 546H325V535H126Z" fill="#414451"/>
<rect x="-91" y="535" width="199" height="199.5" fill="#E3E3E3"/>
<path d="M-91 535L-81 546H108V535H-91Z" fill="#414451"/>
<rect x="561" y="535" width="199" height="199.5" fill="#E3E3E3"/>
<path d="M561 535L571 546.028V734.5H561V535Z" fill="#616474"/>
<path d="M561 535L571 546H760V535H561Z" fill="#414451"/>
<rect x="343.5" y="753" width="199" height="199.5" fill="#E3E3E3"/>
<path d="M343.5 753L353.5 764.028V952.5H343.5V753Z" fill="#616474"/>
<path d="M343.5 753L353.5 764H542.5V753H343.5Z" fill="#414451"/>
<rect x="126" y="753" width="199" height="199.5" fill="#E3E3E3"/>
<path d="M126 753L136 764.028V952.5H126V753Z" fill="#616474"/>
<path d="M126 753L136 764H325V753H126Z" fill="#414451"/>
<rect x="-91" y="753" width="199" height="199.5" fill="#E3E3E3"/>
<path d="M-91 753L-81 764H108V753H-91Z" fill="#414451"/>
<rect x="561" y="753" width="199" height="199.5" fill="#E3E3E3"/>
<path d="M561 753L571 764.028V952.5H561V753Z" fill="#616474"/>
<path d="M561 753L571 764H760V753H561Z" fill="#414451"/>
<rect x="777" y="-27" width="10" height="1049" fill="#616474"/>
</svg>
