<svg width="517" height="600" viewBox="0 0 517 600" fill="none" xmlns="http://www.w3.org/2000/svg">
<path d="M450.5 -184L459.506 115.382L497.59 -181.349L477.419 117.405L544.164 -173.423L495.036 121.428L589.712 -160.311L512.166 127.408L633.735 -142.156L528.621 135.278L675.75 -119.156L544.219 144.954L715.297 -91.5642L558.791 156.328L751.943 -59.6821L572.176 169.276L785.287 -23.8592L584.228 183.657L814.962 15.5119L594.815 199.312L840.644 58L603.821 216.07L862.052 103.139L611.146 233.748L878.951 150.436L616.712 252.152L891.156 199.371L620.457 271.08L898.532 249.408L622.34 290.325L901 300L622.34 309.675L898.532 350.592L620.457 328.92L891.156 400.629L616.712 347.848L878.951 449.564L611.146 366.252L862.052 496.861L603.821 383.93L840.644 542L594.815 400.688L814.962 584.488L584.228 416.343L785.287 623.859L572.176 430.724L751.943 659.682L558.791 443.672L715.297 691.564L544.219 455.046L675.75 719.156L528.621 464.722L633.735 742.156L512.166 472.592L589.712 760.311L495.036 478.572L544.164 773.423L477.419 482.595L497.59 781.349L459.506 484.618L450.5 784L441.494 484.618L403.41 781.349L423.581 482.595L356.836 773.423L405.964 478.572L311.288 760.311L388.834 472.592L267.265 742.156L372.379 464.722L225.25 719.156L356.781 455.046L185.703 691.564L342.209 443.672L149.057 659.682L328.824 430.724L115.713 623.859L316.772 416.343L86.0378 584.488L306.185 400.688L60.3556 542L297.179 383.93L38.9478 496.861L289.854 366.252L22.049 449.564L284.288 347.848L9.84451 400.629L280.543 328.92L2.4679 350.592L278.66 309.675L0 300L278.66 290.325L2.4679 249.408L280.543 271.08L9.84451 199.371L284.288 252.152L22.049 150.436L289.854 233.748L38.9478 103.139L297.179 216.07L60.3556 58L306.185 199.312L86.0378 15.5119L316.772 183.657L115.713 -23.8592L328.824 169.276L149.057 -59.6821L342.209 156.328L185.703 -91.5642L356.781 144.954L225.25 -119.156L372.379 135.278L267.265 -142.156L388.834 127.408L311.288 -160.311L405.964 121.428L356.836 -173.423L423.581 117.405L403.41 -181.349L441.494 115.382L450.5 -184Z" fill="white" fill-opacity="0.25"/>
</svg>
