<svg width="260" height="260" viewBox="0 0 260 260" fill="none" xmlns="http://www.w3.org/2000/svg">
<g clip-path="url(#clip0_4918_296)">
<path d="M76.7036 74.3867H72.8516V75.0509H76.7036V74.3867Z" fill="black"/>
<path d="M68.9965 74.3867H65.6758V75.0509H68.9965V74.3867Z" fill="black"/>
<path d="M84.1368 46.4902H83.4727V50.3423H84.1368V46.4902Z" fill="black"/>
<path d="M84.1368 39.3164H83.4727V42.6371H84.1368V39.3164Z" fill="black"/>
<path d="M191.859 54.1895H191.195V57.5102H191.859V54.1895Z" fill="black"/>
<path d="M191.859 46.4902H191.195V50.3423H191.859V46.4902Z" fill="black"/>
<path d="M191.859 39.3164H191.195V42.6371H191.859V39.3164Z" fill="black"/>
<path d="M83.8754 208.807H80.5547V209.471H83.8754V208.807Z" fill="black"/>
<path d="M76.7036 208.807H72.8516V209.471H76.7036V208.807Z" fill="black"/>
<path d="M68.9965 208.807H65.6758V209.471H68.9965V208.807Z" fill="black"/>
<path d="M69.8009 71.0605H69.1367V74.3813H69.8009V71.0605Z" fill="black"/>
<path d="M69.8009 203.093H69.1367V196.717H69.8009V203.093ZM69.8009 190.208H69.1367V183.833H69.8009V190.208ZM69.8009 177.324H69.1367V170.948H69.8009V177.324ZM69.8009 164.44H69.1367V158.064H69.8009V164.44ZM69.8009 151.555H69.1367V145.18H69.8009V151.555ZM69.8009 138.671H69.1367V132.295H69.8009V138.671ZM69.8009 125.919H69.1367V119.544H69.8009V125.919ZM69.8009 113.035H69.1367V106.659H69.8009V113.035ZM69.8009 100.151H69.1367V93.775H69.8009V100.151ZM69.8009 87.2664H69.1367V80.8906H69.8009V87.2664Z" fill="black"/>
<path d="M69.8009 209.602H69.1367V212.922H69.8009V209.602Z" fill="black"/>
<path d="M195.317 42.7695H191.996V43.4337H195.317V42.7695Z" fill="black"/>
<path d="M185.621 43.4337H179.245V42.7695H185.621V43.4337ZM172.869 43.4337H166.493V42.7695H172.869V43.4337ZM159.985 43.4337H153.609V42.7695H159.985V43.4337ZM147.233 43.4337H140.858V42.7695H147.233V43.4337ZM134.482 43.4337H128.106V42.7695H134.482V43.4337ZM121.73 43.4337H115.355V42.7695H121.73V43.4337ZM108.979 43.4337H102.603V42.7695H108.979V43.4337ZM96.2273 43.4337H89.8516V42.7695H96.2273V43.4337Z" fill="black"/>
<path d="M83.4731 42.7695H80.1523V43.4337H83.4731V42.7695Z" fill="black"/>
<path d="M129.7 151.956C127.84 151.956 126.379 150.495 126.379 148.635C126.379 146.776 127.84 145.314 129.7 145.314C131.559 145.314 133.02 146.776 133.02 148.635C133.02 150.495 131.559 151.956 129.7 151.956ZM129.7 146.643C128.637 146.643 127.707 147.573 127.707 148.635C127.707 149.698 128.637 150.628 129.7 150.628C130.762 150.628 131.692 149.698 131.692 148.635C131.692 147.573 130.762 146.643 129.7 146.643Z" fill="black"/>
<path d="M127.052 147.973H118.551V149.301H127.052V147.973Z" fill="black"/>
<path d="M146.441 151.956C148.301 151.956 149.762 150.495 149.762 148.635C149.762 146.776 148.301 145.314 146.441 145.314C144.581 145.314 143.12 146.776 143.12 148.635C143.12 150.495 144.581 151.956 146.441 151.956ZM146.441 146.643C147.504 146.643 148.433 147.573 148.433 148.635C148.433 149.698 147.504 150.628 146.441 150.628C145.378 150.628 144.449 149.698 144.449 148.635C144.449 147.573 145.378 146.643 146.441 146.643Z" fill="#FF4040"/>
<path d="M149.089 147.973H157.59V149.301H149.089V147.973Z" fill="#FF4040"/>
<path d="M76.7036 74.5176H72.8516V75.1817H76.7036V74.5176Z" fill="black"/>
<path d="M68.9965 74.5176H65.6758V75.1817H68.9965V74.5176Z" fill="black"/>
<path d="M84.1368 46.4902H83.4727V50.3423H84.1368V46.4902Z" fill="black"/>
<path d="M84.1368 39.3164H83.4727V42.6371H84.1368V39.3164Z" fill="black"/>
<path d="M191.859 54.1895H191.195V57.5102H191.859V54.1895Z" fill="black"/>
<path d="M191.859 46.4902H191.195V50.3423H191.859V46.4902Z" fill="black"/>
<path d="M191.859 39.3164H191.195V42.6371H191.859V39.3164Z" fill="black"/>
<path d="M83.8754 208.807H80.5547V209.471H83.8754V208.807Z" fill="black"/>
<path d="M76.7036 208.807H72.8516V209.471H76.7036V208.807Z" fill="black"/>
<path d="M68.9965 208.807H65.6758V209.471H68.9965V208.807Z" fill="black"/>
<path d="M137.006 208.672H138.335V208.539L137.006 208.672ZM137.006 74.7812V75.5782H138.335V74.7812H137.006ZM83.8751 208.805H83.2109V209.469H83.8751V208.805Z" fill="black"/>
<path d="M191.206 55.7832V57.51H191.87V55.7832H191.206ZM137.012 74.7776V75.4418H138.34V74.7776H137.012Z" fill="black"/>
<path d="M191.865 55.7853V57.5121H191.201V55.7853H84.1411V54.1914H83.4769V55.7853H83.0784V74.3813H80.4219V75.0454H83.0784V208.671H83.7426V209.335H83.0784V209.733H192.263V55.7853H191.865ZM84.5396 57.1136H190.935V74.1156H84.5396V57.1136ZM190.935 75.5768V208.538H138.335V208.671H137.007V208.538H84.5396V75.5768H137.007V74.7798H138.335V75.5768H190.935Z" fill="black"/>
<path d="M138.34 74.7812H137.012V208.672H138.34V74.7812Z" fill="black"/>
<path d="M69.8009 71.0605H69.1367V74.3813H69.8009V71.0605Z" fill="black"/>
<path d="M69.8009 203.225H69.1367V196.85H69.8009V203.225ZM69.8009 190.341H69.1367V183.965H69.8009V190.341ZM69.8009 177.457H69.1367V171.081H69.8009V177.457ZM69.8009 164.572H69.1367V158.064H69.8009V164.572ZM69.8009 151.688H69.1367V145.312H69.8009V151.688ZM69.8009 138.804H69.1367V132.428H69.8009V138.804ZM69.8009 125.919H69.1367V119.544H69.8009V125.919ZM69.8009 113.035H69.1367V106.659H69.8009V113.035ZM69.8009 100.151H69.1367V93.775H69.8009V100.151ZM69.8009 87.2664H69.1367V80.8906H69.8009V87.2664Z" fill="black"/>
<path d="M69.8009 209.602H69.1367V212.922H69.8009V209.602Z" fill="black"/>
<path d="M195.317 42.7695H191.996V43.4337H195.317V42.7695Z" fill="black"/>
<path d="M185.621 43.4337H179.245V42.7695H185.621V43.4337ZM172.869 43.4337H166.493V42.7695H172.869V43.4337ZM159.985 43.4337H153.609V42.7695H159.985V43.4337ZM147.233 43.4337H140.858V42.7695H147.233V43.4337ZM134.482 43.4337H128.106V42.7695H134.482V43.4337ZM121.73 43.4337H115.355V42.7695H121.73V43.4337ZM108.979 43.4337H102.603V42.7695H108.979V43.4337ZM96.2273 43.4337H89.8516V42.7695H96.2273V43.4337Z" fill="black"/>
<path d="M83.4731 42.7695H80.1523V43.4337H83.4731V42.7695Z" fill="black"/>
</g>
<defs>
<clipPath id="clip0_4918_296">
<rect width="260" height="260" fill="white"/>
</clipPath>
</defs>
</svg>
