<svg width="135" height="33" viewBox="0 0 135 33" fill="none" xmlns="http://www.w3.org/2000/svg">
<path d="M9.39548 22.0614V9.38826L5.27344 7.61133V25.4189H18.324V22.0614H9.39548Z" fill="white"/>
<path d="M25.0407 22.1109V17.9908H33.3095V14.7858H25.0407V10.9173H34.402V7.61133H20.9453V25.4189H34.7319V22.1109H25.0407Z" fill="white"/>
<path d="M47.1349 24.2215V19.1081V18.6486L43.7087 13.1309L43.6916 13.1004L40.3893 7.61133H36.0156L42.9098 19.0585V25.4189L47.1349 24.2215Z" fill="white"/>
<path d="M59.234 22.1109V17.9908H67.5009V14.7858H59.234V10.9173H68.5953V7.61133H55.1367V25.4189H68.9252V22.1109H59.234Z" fill="white"/>
<path d="M83.8081 8.9917V18.4236L74.9559 7.61133H71.5469V25.4189H76.0255L75.6174 14.6066L84.4945 25.4189H87.8787V7.61133L83.8081 8.9917Z" fill="white"/>
<path d="M108.196 11.8344C107.373 10.4941 106.219 9.45501 104.736 8.71716C103.251 7.97931 101.544 7.61133 99.6092 7.61133H91.5195V25.4189H99.6092C101.542 25.4189 103.251 25.049 104.736 24.3111C106.219 23.5752 107.371 22.5342 108.196 21.1939C109.018 19.8554 109.428 18.2939 109.428 16.5151C109.428 14.7343 109.018 13.1748 108.196 11.8344ZM103.666 20.5475C102.606 21.5409 101.186 22.0366 99.4052 22.0366H95.6416V10.9955H99.4052C101.188 10.9955 102.606 11.4932 103.666 12.4846C104.726 13.4779 105.257 14.822 105.257 16.517C105.257 18.21 104.726 19.5542 103.666 20.5475Z" fill="white"/>
<path d="M121.734 7.61133H117.664L109.727 25.4189H113.95L115.298 22.1605L115.528 21.6038H115.532L117.145 17.7639L117.195 17.6438L119.675 11.6571L122.499 18.4751H118.007L116.792 21.6038H123.795L125.372 25.4208H129.696L121.734 7.61133Z" fill="white"/>
<path d="M52.7772 7.61133H44.0737H43.7305V10.742L47.1356 16.109L47.0346 10.9154H52.7772V7.61133Z" fill="white"/>
</svg>
